<svg width="577" height="76" viewBox="0 0 577 76" fill="none" xmlns="http://www.w3.org/2000/svg">
<path d="M25.1 2.6H0.5V74H11.3V46.4H24.6C39.1 46.4 50 37 50 24.4C50 11.9 40 2.6 25.1 2.6ZM23.6 37.3H11.3V11.6H24.1C33.8 11.6 39.2 16.2 39.2 24.4C39.2 32.6 33.3 37.3 23.6 37.3ZM103.184 2.6V33.6H70.2844V2.6H59.4844V74H70.2844V42.8H103.184V74H113.984V2.6H103.184ZM129.016 2.6V74H139.816V2.6H129.016ZM162.297 51.6H151.397C151.997 68.1 163.897 75.7 179.497 75.7C192.497 75.7 204.997 69.3 204.997 54.7C204.997 39.6 192.897 36.8 180.897 33.3C171.597 30.6 164.997 27.9 164.997 21C164.997 13 171.097 9.9 178.597 9.9C187.497 9.9 191.797 14.1 193.097 22.7H203.997C202.697 7.9 192.997 0.899999 178.697 0.899999C165.797 0.899999 153.997 7.7 154.197 21.4C154.497 35.2 166.397 38.8 178.197 42.4C187.197 45.1 194.197 46.6 194.197 54.9C194.197 63 187.697 66.7 179.497 66.7C169.697 66.7 162.797 61.7 162.297 51.6ZM217.004 2.6V74H227.804V2.6H217.004ZM307.788 52.5H297.088C294.188 60.5 286.988 66.2 275.288 66.2C258.688 66.2 249.688 53.5 249.688 38.3C249.688 23.1 258.788 10.4 275.288 10.4C286.587 10.4 293.188 15.3 296.988 24.1H307.788C303.388 10.7 293.188 1.29999 275.288 1.29999C252.388 1.29999 238.888 17.8 238.888 38.3C238.888 59 252.288 75.3 275.188 75.3C293.288 75.3 304.788 65 307.788 52.5ZM366.885 74H378.185L351.785 2.6H338.285L311.885 74H323.085L330.485 53.8H359.585L366.885 74ZM344.885 12.4H345.085L356.485 45.1H333.585L344.885 12.4ZM398.116 64.9V2.6H387.316V74H432.216V64.9H398.116ZM441.613 2.6V74H452.413V2.6H441.613ZM515.295 2.6H461.395V11.7H482.895V74H493.695V11.7H515.295V2.6ZM516.375 2.6L540.875 45.1V74H551.675V45.1L576.275 2.6H563.975C557.875 14.2 552.375 24.4 546.575 35.1H546.375L528.775 2.6H516.375Z" fill="black"/>
<path d="M0.5 2.6V-6.4L-8.5 2.6H0.5ZM0.5 74H-8.5L0.5 83V74ZM11.3 74V83L20.3 74H11.3ZM11.3 46.4V37.4L2.3 46.4H11.3ZM11.3 37.3H2.3L11.3 46.3V37.3ZM11.3 11.6V2.6L2.3 11.6H11.3ZM25.1 -6.4H0.5V11.6H25.1V-6.4ZM-8.5 2.6V74H9.5V2.6H-8.5ZM0.5 83H11.3V65H0.5V83ZM20.3 74V46.4H2.3V74H20.3ZM11.3 55.4H24.6V37.4H11.3V55.4ZM24.6 55.4C42.8012 55.4 59 43.1514 59 24.4H41C41 30.8486 35.3988 37.4 24.6 37.4V55.4ZM59 24.4C59 5.98201 43.967 -6.4 25.1 -6.4V11.6C36.033 11.6 41 17.818 41 24.4H59ZM23.6 28.3H11.3V46.3H23.6V28.3ZM20.3 37.3V11.6H2.3V37.3H20.3ZM11.3 20.6H24.1V2.6H11.3V20.6ZM24.1 20.6C27.6648 20.6 29.0746 21.4564 29.4635 21.7866C29.6259 21.9244 30.2 22.3913 30.2 24.4H48.2C48.2 18.2087 46.0741 12.2756 41.1115 8.06342C36.3754 4.04355 30.2352 2.6 24.1 2.6V20.6ZM30.2 24.4C30.2 26.1574 29.6752 26.6836 29.3366 26.9608C28.7543 27.4375 27.1202 28.3 23.6 28.3V46.3C29.7798 46.3 35.9457 44.8125 40.7384 40.8892C45.7748 36.7664 48.2 30.8426 48.2 24.4H30.2ZM103.184 2.6V-6.4L94.1844 2.6H103.184ZM103.184 33.6V42.6L112.184 33.6H103.184ZM70.2844 33.6H61.2844L70.2844 42.6V33.6ZM70.2844 2.6H79.2844L70.2844 -6.4V2.6ZM59.4844 2.6V-6.4L50.4844 2.6H59.4844ZM59.4844 74H50.4844L59.4844 83V74ZM70.2844 74V83L79.2844 74H70.2844ZM70.2844 42.8V33.8L61.2844 42.8H70.2844ZM103.184 42.8H112.184L103.184 33.8V42.8ZM103.184 74H94.1844L103.184 83V74ZM113.984 74V83L122.984 74H113.984ZM113.984 2.6H122.984L113.984 -6.4V2.6ZM94.1844 2.6V33.6H112.184V2.6H94.1844ZM103.184 24.6H70.2844V42.6H103.184V24.6ZM79.2844 33.6V2.6H61.2844V33.6H79.2844ZM70.2844 -6.4H59.4844V11.6H70.2844V-6.4ZM50.4844 2.6V74H68.4844V2.6H50.4844ZM59.4844 83H70.2844V65H59.4844V83ZM79.2844 74V42.8H61.2844V74H79.2844ZM70.2844 51.8H103.184V33.8H70.2844V51.8ZM94.1844 42.8V74H112.184V42.8H94.1844ZM103.184 83H113.984V65H103.184V83ZM122.984 74V2.6H104.984V74H122.984ZM113.984 -6.4H103.184V11.6H113.984V-6.4ZM129.016 2.6V-6.4L120.016 2.6H129.016ZM129.016 74H120.016L129.016 83V74ZM139.816 74V83L148.816 74H139.816ZM139.816 2.6H148.816L139.816 -6.4V2.6ZM120.016 2.6V74H138.016V2.6H120.016ZM129.016 83H139.816V65H129.016V83ZM148.816 74V2.6H130.816V74H148.816ZM139.816 -6.4H129.016V11.6H139.816V-6.4ZM162.297 51.6L171.286 51.155L162.297 42.6V51.6ZM151.397 51.6V42.6L142.403 51.9271L151.397 51.6ZM180.897 33.3L183.417 24.66L183.406 24.6569L180.897 33.3ZM193.097 22.7L184.198 24.0452L193.097 31.7V22.7ZM203.997 22.7V31.7L212.962 21.9125L203.997 22.7ZM154.197 21.4L145.198 21.5314L145.199 21.5956L154.197 21.4ZM178.197 42.4L175.571 51.0083L175.611 51.0204L178.197 42.4ZM162.297 42.6H151.397V60.6H162.297V42.6ZM142.403 51.9271C142.787 62.4814 146.924 71.0992 154.232 76.8911C161.29 82.4844 170.357 84.7 179.497 84.7V66.7C173.037 66.7 168.354 65.1156 165.412 62.7839C162.72 60.6508 160.607 57.2186 160.391 51.2729L142.403 51.9271ZM179.497 84.7C187.308 84.7 195.692 82.8014 202.386 77.9752C209.426 72.899 213.997 64.9609 213.997 54.7H195.997C195.997 59.0391 194.318 61.601 191.858 63.3748C189.051 65.3986 184.686 66.7 179.497 66.7V84.7ZM213.997 54.7C213.997 49.6911 212.983 45.162 210.833 41.1919C208.682 37.2206 205.673 34.3232 202.449 32.1679C196.484 28.1805 188.777 26.2234 183.417 24.66L178.377 41.94C185.017 43.8766 189.36 45.0695 192.445 47.1321C193.746 48.0018 194.512 48.8544 195.005 49.7643C195.498 50.6755 195.997 52.1589 195.997 54.7H213.997ZM183.406 24.6569C178.666 23.2807 175.964 22.2448 174.452 21.2365C173.827 20.8199 173.783 20.6445 173.878 20.8017C174.019 21.0355 173.997 21.2012 173.997 21H155.997C155.997 28.1291 159.765 33.0786 164.467 36.2135C168.58 38.9552 173.828 40.6193 178.388 41.9431L183.406 24.6569ZM173.997 21C173.997 20.1572 174.152 19.8441 174.159 19.8296C174.165 19.818 174.168 19.8145 174.166 19.8164C174.166 19.817 174.165 19.818 174.165 19.819C174.164 19.8201 174.163 19.8207 174.163 19.8207C174.163 19.8207 174.164 19.8196 174.166 19.8172C174.169 19.8149 174.173 19.811 174.179 19.8055C174.19 19.7949 174.212 19.7762 174.247 19.751C174.603 19.4942 175.878 18.9 178.597 18.9V0.899997C173.816 0.899997 168.29 1.85578 163.722 5.149C158.697 8.77108 155.997 14.3837 155.997 21H173.997ZM178.597 18.9C181.679 18.9 182.51 19.614 182.661 19.7505C182.888 19.9562 183.716 20.8597 184.198 24.0452L201.996 21.3548C201.177 15.9403 199.206 10.4438 194.733 6.39949C190.184 2.28596 184.414 0.899997 178.597 0.899997V18.9ZM193.097 31.7H203.997V13.7H193.097V31.7ZM212.962 21.9125C212.145 12.6058 208.536 4.7273 201.94 -0.699666C195.487 -6.00982 187.235 -8.1 178.697 -8.1V9.9C184.459 9.9 188.207 11.3098 190.503 13.1997C192.658 14.9727 194.549 17.9942 195.031 23.4875L212.962 21.9125ZM178.697 -8.1C170.809 -8.1 162.588 -6.04086 156.125 -1.18036C149.368 3.90122 145.054 11.7102 145.198 21.5314L163.196 21.2686C163.139 17.3898 164.626 14.9488 166.944 13.2054C169.556 11.2409 173.685 9.9 178.697 9.9V-8.1ZM145.199 21.5956C145.419 31.735 150.213 38.6378 156.797 43.1492C162.652 47.1609 170.041 49.3214 175.571 51.0083L180.823 33.7917C174.552 31.8786 170.092 30.4391 166.972 28.3008C164.58 26.6622 163.274 24.865 163.195 21.2044L145.199 21.5956ZM175.611 51.0204C178.064 51.7564 179.886 52.2673 181.61 52.8506C183.295 53.4204 184.289 53.8705 184.892 54.2378C185.423 54.5607 185.354 54.6412 185.212 54.3999C185.052 54.1286 185.197 54.1368 185.197 54.9H203.197C203.197 51.5132 202.467 48.2214 200.713 45.2501C198.977 42.3088 196.596 40.2893 194.251 38.8622C190.109 36.341 184.552 34.9102 180.783 33.7796L175.611 51.0204ZM185.197 54.9C185.197 55.6984 185.044 56.0544 184.991 56.1598C184.942 56.2585 184.858 56.3908 184.61 56.5722C184 57.0184 182.414 57.7 179.497 57.7V75.7C184.78 75.7 190.544 74.5316 195.234 71.1028C200.299 67.3993 203.197 61.6987 203.197 54.9H185.197ZM179.497 57.7C176.042 57.7 174.124 56.8186 173.174 56.0259C172.392 55.3734 171.432 54.1113 171.286 51.155L153.308 52.045C153.662 59.1887 156.402 65.4766 161.645 69.8491C166.719 74.0814 173.152 75.7 179.497 75.7V57.7ZM217.004 2.6V-6.4L208.004 2.6H217.004ZM217.004 74H208.004L217.004 83V74ZM227.804 74V83L236.804 74H227.804ZM227.804 2.6H236.804L227.804 -6.4V2.6ZM208.004 2.6V74H226.004V2.6H208.004ZM217.004 83H227.804V65H217.004V83ZM236.804 74V2.6H218.804V74H236.804ZM227.804 -6.4H217.004V11.6H227.804V-6.4ZM307.788 52.5L316.539 54.6004L307.788 43.5V52.5ZM297.088 52.5V43.5L288.626 49.4328L297.088 52.5ZM296.988 24.1L288.725 27.6679L296.988 33.1V24.1ZM307.788 24.1V33.1L316.338 21.2923L307.788 24.1ZM307.788 43.5H297.088V61.5H307.788V43.5ZM288.626 49.4328C287.125 53.5744 283.526 57.2 275.288 57.2V75.2C290.449 75.2 301.25 67.4256 305.549 55.5672L288.626 49.4328ZM275.288 57.2C269.488 57.2 265.641 55.0795 263.112 52.1124C260.435 48.971 258.688 44.1989 258.688 38.3H240.688C240.688 47.6011 243.44 56.7789 249.413 63.7876C255.534 70.9705 264.487 75.2 275.288 75.2V57.2ZM258.688 38.3C258.688 32.4249 260.447 27.65 263.142 24.4974C265.693 21.5118 269.55 19.4 275.288 19.4V1.4C264.525 1.4 255.582 5.63822 249.458 12.8026C243.478 19.8 240.688 28.9751 240.688 38.3H258.688ZM275.288 19.4C279.621 19.4 282.267 20.3272 284.007 21.471C285.742 22.6112 287.344 24.4706 288.725 27.6679L305.25 20.5321C302.831 14.9294 299.233 9.93881 293.893 6.429C288.558 2.92283 282.254 1.4 275.288 1.4V19.4ZM296.988 33.1H307.788V15.1H296.988V33.1ZM316.338 21.2923C313.69 13.2262 309.111 5.83768 302.019 0.489158C294.883 -4.89211 285.873 -7.70001 275.288 -7.70001V10.3C282.602 10.3 287.642 12.1921 291.181 14.8608C294.764 17.5623 297.485 21.5738 299.237 26.9077L316.338 21.2923ZM275.288 -7.70001C261.551 -7.70001 249.996 -2.68605 241.918 5.97382C233.922 14.5471 229.888 26.0905 229.888 38.3H247.888C247.888 30.0095 250.603 23.0528 255.082 18.2512C259.479 13.536 266.124 10.3 275.288 10.3V-7.70001ZM229.888 38.3C229.888 50.5751 233.876 62.1302 241.868 70.7003C249.94 79.3569 261.482 84.3 275.188 84.3V66.3C265.993 66.3 259.385 63.0931 255.032 58.4247C250.599 53.6698 247.888 46.7249 247.888 38.3H229.888ZM275.188 84.3C297.08 84.3 312.484 71.4947 316.539 54.6004L299.036 50.3996C297.091 58.5053 289.495 66.3 275.188 66.3V84.3ZM366.885 74L358.421 77.0589L366.885 83V74ZM378.185 74V83L386.627 70.8788L378.185 74ZM351.785 2.6L360.227 -0.521212L351.785 -6.4V2.6ZM338.285 2.6V-6.4L329.844 -0.521212L338.285 2.6ZM311.885 74L303.444 70.8788L311.885 83V74ZM323.085 74V83L331.536 77.0958L323.085 74ZM330.485 53.8V44.8L322.034 50.7042L330.485 53.8ZM359.585 53.8L368.049 50.7411L359.585 44.8V53.8ZM344.885 12.4V3.39999L336.379 9.46047L344.885 12.4ZM345.085 12.4L353.584 9.43726L345.085 3.39999V12.4ZM356.485 45.1V54.1L364.984 42.1373L356.485 45.1ZM333.585 45.1L325.079 42.1605L333.585 54.1V45.1ZM366.885 83H378.185V65H366.885V83ZM386.627 70.8788L360.227 -0.521212L343.344 5.7212L369.744 77.1212L386.627 70.8788ZM351.785 -6.4H338.285V11.6H351.785V-6.4ZM329.844 -0.521212L303.444 70.8788L320.327 77.1212L346.727 5.7212L329.844 -0.521212ZM311.885 83H323.085V65H311.885V83ZM331.536 77.0958L338.936 56.8958L322.034 50.7042L314.634 70.9042L331.536 77.0958ZM330.485 62.8H359.585V44.8H330.485V62.8ZM351.121 56.8589L358.421 77.0589L375.349 70.9411L368.049 50.7411L351.121 56.8589ZM344.885 21.4H345.085V3.39999H344.885V21.4ZM336.587 15.3627L347.987 48.0627L364.984 42.1373L353.584 9.43726L336.587 15.3627ZM356.485 36.1H333.585V54.1H356.485V36.1ZM342.092 48.0395L353.392 15.3395L336.379 9.46047L325.079 42.1605L342.092 48.0395ZM398.116 64.9H389.116L398.116 73.9V64.9ZM398.116 2.6H407.116L398.116 -6.4V2.6ZM387.316 2.6V-6.4L378.316 2.6H387.316ZM387.316 74H378.316L387.316 83V74ZM432.216 74V83L441.216 74H432.216ZM432.216 64.9H441.216L432.216 55.9V64.9ZM407.116 64.9V2.6H389.116V64.9H407.116ZM398.116 -6.4H387.316V11.6H398.116V-6.4ZM378.316 2.6V74H396.316V2.6H378.316ZM387.316 83H432.216V65H387.316V83ZM441.216 74V64.9H423.216V74H441.216ZM432.216 55.9H398.116V73.9H432.216V55.9ZM441.613 2.6V-6.4L432.613 2.6H441.613ZM441.613 74H432.613L441.613 83V74ZM452.413 74V83L461.413 74H452.413ZM452.413 2.6H461.413L452.413 -6.4V2.6ZM432.613 2.6V74H450.613V2.6H432.613ZM441.613 83H452.413V65H441.613V83ZM461.413 74V2.6H443.413V74H461.413ZM452.413 -6.4H441.613V11.6H452.413V-6.4ZM515.295 2.6H524.295L515.295 -6.4V2.6ZM461.395 2.6V-6.4L452.395 2.6H461.395ZM461.395 11.7H452.395L461.395 20.7V11.7ZM482.895 11.7H491.895L482.895 2.7V11.7ZM482.895 74H473.895L482.895 83V74ZM493.695 74V83L502.695 74H493.695ZM493.695 11.7V2.7L484.695 11.7H493.695ZM515.295 11.7V20.7L524.295 11.7H515.295ZM515.295 -6.4H461.395V11.6H515.295V-6.4ZM452.395 2.6V11.7H470.395V2.6H452.395ZM461.395 20.7H482.895V2.7H461.395V20.7ZM473.895 11.7V74H491.895V11.7H473.895ZM482.895 83H493.695V65H482.895V83ZM502.695 74V11.7H484.695V74H502.695ZM493.695 20.7H515.295V2.7H493.695V20.7ZM524.295 11.7V2.6H506.295V11.7H524.295ZM516.375 2.6V-6.4L508.578 7.09485L516.375 2.6ZM540.875 45.1H549.875L548.672 40.6051L540.875 45.1ZM540.875 74H531.875L540.875 83V74ZM551.675 74V83L560.675 74H551.675ZM551.675 45.1L543.886 40.5914L542.675 45.1H551.675ZM576.275 2.6L584.064 7.1086L576.275 -6.4V2.6ZM563.975 2.6V-6.4L556.009 -1.58889L563.975 2.6ZM546.575 35.1V44.1L554.487 39.3889L546.575 35.1ZM546.375 35.1L538.461 39.3858L546.375 44.1V35.1ZM528.775 2.6L536.689 -1.68577L528.775 -6.4V2.6ZM508.578 7.09485L533.078 49.5949L548.672 40.6051L524.172 -1.89486L508.578 7.09485ZM531.875 45.1V74H549.875V45.1H531.875ZM540.875 83H551.675V65H540.875V83ZM560.675 74V45.1H542.675V74H560.675ZM559.464 49.6086L584.064 7.1086L568.486 -1.90861L543.886 40.5914L559.464 49.6086ZM576.275 -6.4H563.975V11.6H576.275V-6.4ZM556.009 -1.58889C549.936 9.96095 544.457 20.122 538.663 30.8111L554.487 39.3889C560.293 28.6779 565.814 18.439 571.941 6.78888L556.009 -1.58889ZM546.575 26.1H546.375V44.1H546.575V26.1ZM554.289 30.8142L536.689 -1.68577L520.861 6.88576L538.461 39.3858L554.289 30.8142ZM528.775 -6.4H516.375V11.6H528.775V-6.4Z" fill="black"/>
</svg>
