<?xml version="1.0" encoding="utf-8"?>
<!-- Generator: Adobe Illustrator 26.4.0, SVG Export Plug-In . SVG Version: 6.00 Build 0)  -->
<svg version="1.1" id="Livello_1" xmlns="http://www.w3.org/2000/svg" xmlns:xlink="http://www.w3.org/1999/xlink" x="0px" y="0px"
	 viewBox="0 0 497.1 103.4" style="enable-background:new 0 0 497.1 103.4;" xml:space="preserve">
<path d="M33.7,24.4c-9.3,0-15.4,6.1-17.2,11.2h-0.1v-9.9H6v71.7h10.4V67.8h0.1c1.9,4.9,8,10.8,17.1,10.8c14.4,0,23.9-11,23.9-27.2
	S48.1,24.4,33.7,24.4z M31.5,70.1c-10.7,0-15.7-8.9-15.7-18.7c0-9.6,5.1-18.5,15.7-18.5c10.2,0,15.7,7.9,15.7,18.5
	C47.2,62.1,41.9,70.1,31.5,70.1z M67.9,77.4h10.3V52.7c0-13.2,6-19.5,13.4-19.5c7.1,0,10.4,4.4,10.4,13v31.2h10.2V44.5
	c0-11.2-5.1-20.1-18.6-20.1c-8,0-12.8,4.8-15.5,10.7V6H67.9V77.4z M117.7,25.7c6.9,17.4,13.8,34.4,21.2,53l-1.7,4.3
	c-1.4,3.6-2.4,6-7,6h-5.7v8.4h7.9c7,0,10.9-3.7,13.2-9.9c10.5-28.5,12.9-34,23.1-61.8h-10.9c-4.6,13.9-9.4,28-13.7,41.2h-0.2
	c-5.1-13.9-10.1-27.2-15.3-41.2H117.7z M204,41.2h10c-1.1-11.2-9.8-16.8-20.4-16.8c-9.9,0-19.5,5.7-19.5,15.3
	c0,8,6.5,12.7,14.5,14.7c2.4,0.7,4.9,1.3,7.3,1.9c4.6,1.2,8.7,2.6,8.7,6.9c0,5.4-5.4,7.2-10.4,7.2c-6.5,0-10.3-2.6-11.4-8.7h-10.2
	c1,12.6,11.8,17,21.4,17c10,0,20.8-5.5,20.8-16.1c0-8.4-7.2-12.3-15.3-14.4c-2.3-0.6-4.5-1.1-6.9-1.7c-4.8-1.2-8.4-3.4-8.4-7.2
	c0-4,4.4-6.7,9.1-6.7C198.3,32.6,203.4,35,204,41.2z M236.2,16.7V6h-10.8v10.7H236.2z M225.2,77.4h10.3V25.7h-10.3V77.4z
	 M296.9,61.1h-10.1c-2.1,6-6.6,9.2-13.5,9.2c-10,0-16.4-8.2-16.4-18.7c0-10.6,6.4-18.9,16.4-18.9c7.6,0,11.3,4.1,13.2,9h10
	c-2.1-10-10-17.3-23-17.3c-15.8,0-26.8,11.1-26.8,27.2c0,16,11,27.1,26.8,27.1C286,78.7,294.2,72.3,296.9,61.1z M350.3,66.2v-21
	c0-9.6-3.2-20.9-21.3-20.9c-13.5,0-20.1,9.2-21.3,17.1h10c1.2-5.4,5.6-8.8,11.5-8.8c6.9,0,10.9,2.8,10.9,7.1s-2.6,5.9-9.3,7
	c-7.6,1.3-25.6,2.1-25.6,16.6c0,7.8,6.1,15.4,18.1,15.4c11,0,15.3-6.2,16.8-10.3h0.1v2.2c0,2.5,0,4.6,0.2,6.8h10.7
	C350.6,74.6,350.3,70.1,350.3,66.2z M340.3,53.4c0,12.5-7.3,17.2-14.7,17.2c-6.2,0-10.2-3-10.2-7.5c0-4.8,4.1-6.9,11.4-8.3
	c9.9-1.7,12.4-4.6,13.5-7.7V53.4z M363.5,6v71.4h10.3V6H363.5z M398.3,16.7V6h-10.8v10.7H398.3z M387.3,77.4h10.3V25.7h-10.3V77.4z
	 M431.1,69.1c-4.5,0-6.6-2.8-6.6-7.8V33.9h10v-8.2h-10V9.2l-10.1,4.5v12h-7.9v8.2h7.9v28.4c0,8.8,4.2,15.2,15.2,15.2h5v-8.4H431.1z
	 M440.5,25.7c6.9,17.4,13.8,34.4,21.2,53L460,83c-1.4,3.6-2.4,6-7,6h-5.7v8.4h7.9c7,0,10.9-3.7,13.2-9.9
	c10.5-28.5,12.9-34,23.1-61.8h-10.9c-4.6,13.9-9.4,28-13.7,41.2h-0.2c-5.1-13.9-10.1-27.2-15.3-41.2H440.5z"/>
<path d="M16.5,35.6v6l5.7-4L16.5,35.6z M16.4,35.6h-6l6,6V35.6z M16.4,25.7h6l-6-6V25.7z M6,25.7v-6l-6,6H6z M6,97.4H0l6,6V97.4z
	 M16.4,97.4v6l6-6H16.4z M16.4,67.8v-6l-6,6H16.4z M16.5,67.8l5.6-2.2l-5.6-3.8V67.8z M33.7,18.4c-12.1,0-20.3,7.9-22.9,15.2l11.3,4
	c1-2.9,5-7.2,11.5-7.2V18.4z M16.5,29.6h-0.1v12h0.1V29.6z M22.4,35.6v-9.9h-12v9.9H22.4z M16.4,19.7H6v12h10.4V19.7z M0,25.7v71.7
	h12V25.7H0z M6,103.4h10.4v-12H6V103.4z M22.4,97.4V67.8h-12v29.6H22.4z M16.4,73.8h0.1v-12h-0.1V73.8z M10.9,70
	c2.7,7,10.9,14.6,22.7,14.6v-12c-6.4,0-10.4-4.2-11.5-7L10.9,70z M33.6,84.6c8.8,0,16.5-3.4,21.9-9.6c5.3-6.1,8-14.4,8-23.6h-12
	c0,7-2,12.3-5.1,15.7c-3,3.4-7.3,5.5-12.8,5.5V84.6z M63.5,51.4c0-9.2-2.7-17.5-8-23.5c-5.4-6.1-13-9.5-21.8-9.5v12
	c5.6,0,9.9,2,12.8,5.4c3,3.4,5,8.6,5,15.6H63.5z M31.5,64.1c-3.5,0-5.6-1.3-7.1-3.3c-1.6-2.1-2.6-5.4-2.6-9.4h-12
	c0,5.8,1.5,11.9,5,16.6c3.7,5,9.4,8.1,16.7,8.1V64.1z M21.8,51.4c0-3.8,1-7.1,2.7-9.2c1.5-2,3.6-3.3,7-3.3v-12
	c-7.2,0-12.9,3.1-16.6,8c-3.6,4.7-5.1,10.7-5.1,16.5H21.8z M31.5,38.9c3.4,0,5.6,1.2,7,3c1.6,2,2.7,5.1,2.7,9.5h12
	c0-6.3-1.6-12.3-5.3-17c-3.9-4.8-9.5-7.5-16.4-7.5V38.9z M41.2,51.4c0,4.4-1.1,7.7-2.7,9.7c-1.4,1.8-3.5,3-7,3v12
	c6.9,0,12.6-2.7,16.5-7.6c3.7-4.7,5.2-10.8,5.2-17.1H41.2z M67.9,77.4h-6l6,6V77.4z M78.2,77.4v6l6-6H78.2z M102,77.4h-6l6,6V77.4z
	 M112.2,77.4v6l6-6H112.2z M78.1,35.1h-6l11.5,2.5L78.1,35.1z M78.1,6h6l-6-6V6z M67.9,6V0l-6,6H67.9z M67.9,83.4h10.3v-12H67.9
	V83.4z M84.2,77.4V52.7h-12v24.7H84.2z M84.2,52.7c0-5.8,1.3-9.2,2.7-11.1c1.3-1.7,2.8-2.4,4.7-2.4v-12c-5.6,0-10.7,2.4-14.3,7.2
	c-3.4,4.6-5.1,10.9-5.1,18.3H84.2z M91.6,39.2c2.2,0,2.9,0.6,3.1,1c0.5,0.6,1.3,2.3,1.3,6h12c0-4.9-0.9-9.7-3.8-13.4
	c-3.1-4-7.7-5.6-12.6-5.6V39.2z M96,46.2v31.2h12V46.2H96z M102,83.4h10.2v-12H102V83.4z M118.2,77.4V44.5h-12v32.9H118.2z
	 M118.2,44.5c0-6.4-1.4-13-5.6-18c-4.3-5.3-10.8-8.1-19-8.1v12c5.3,0,8.1,1.7,9.7,3.6c1.8,2.2,2.9,5.6,2.9,10.5H118.2z M93.6,18.4
	c-11.1,0-17.6,6.9-21,14.2l10.9,5c2.1-4.5,5.1-7.2,10-7.2V18.4z M84.1,35.1V6h-12v29.1H84.1z M78.1,0H67.9v12h10.2V0z M61.9,6v71.4
	h12V6H61.9z M117.7,25.7v-6l-5.6,8.2L117.7,25.7z M138.9,78.7l5.6,2.2l0-4.4L138.9,78.7z M137.2,83l-5.6-2.2l0,0L137.2,83z
	 M124.5,89v-6l-6,6H124.5z M124.5,97.4h-6l6,6V97.4z M145.6,87.5l5.6,2.1l0,0L145.6,87.5z M168.7,25.7l5.6,2.1l-5.6-8.1V25.7z
	 M157.8,25.7v-6l-5.7,4.1L157.8,25.7z M144.1,66.9v6l5.7-4.1L144.1,66.9z M143.9,66.9l-5.6,2.1l5.6,3.9V66.9z M128.6,25.7l5.6-2.1
	l-5.6-3.9V25.7z M112.2,27.9c6.9,17.3,13.8,34.5,21.2,53l11.2-4.4c-7.4-18.7-14.3-35.5-21.2-53L112.2,27.9z M133.4,76.5l-1.7,4.3
	l11.2,4.4l1.7-4.3L133.4,76.5z M131.6,80.8c-0.4,0.9-0.6,1.5-0.8,2c-0.2,0.4-0.3,0.5-0.2,0.4c0.1-0.1,0.3-0.2,0.4-0.3
	c0.1,0-0.1,0.1-0.8,0.1v12c3.5,0,6.6-1,9-3.5c2-2.1,3-4.8,3.5-6.3L131.6,80.8z M130.2,83h-5.7v12h5.7V83z M118.5,89v8.4h12V89H118.5
	z M124.5,103.4h7.9v-12h-7.9V103.4z M132.4,103.4c4.6,0,8.7-1.3,12.1-3.9c3.3-2.6,5.3-6.2,6.7-9.9L140,85.4
	c-0.9,2.5-1.9,3.9-2.9,4.7c-0.9,0.7-2.3,1.3-4.6,1.3V103.4z M151.3,89.6c5.2-14.2,8.5-22.7,11.6-31.1c3.2-8.4,6.3-16.8,11.5-30.7
	l-11.3-4.1c-5.1,13.9-8.2,22.2-11.4,30.6c-3.2,8.4-6.4,16.9-11.7,31.2L151.3,89.6z M168.7,19.7h-10.9v12h10.9V19.7z M152.1,23.8
	c-4.6,13.8-9.4,28-13.7,41.2l11.4,3.7c4.3-13.2,9.1-27.2,13.7-41.2L152.1,23.8z M144.1,60.9h-0.2v12h0.2V60.9z M149.6,64.8
	c-5.1-13.9-10.1-27.3-15.3-41.2L123,27.8c5.2,14,10.2,27.3,15.3,41.2L149.6,64.8z M128.6,19.7h-10.9v12h10.9V19.7z M204,41.2l-6,0.6
	l6,5.4V41.2z M214,41.2v6l6-6.6L214,41.2z M188.6,54.4l1.7-5.8l-0.2-0.1L188.6,54.4z M195.9,56.3l1.5-5.8l-0.1,0L195.9,56.3z
	 M182.8,61.7l5.9-1.1l-5.9-4.9V61.7z M172.6,61.7v-6l-6,6.5L172.6,61.7z M199.5,48.2L198,54l0,0L199.5,48.2z M192.6,46.5l1.5-5.8
	l0,0L192.6,46.5z M204,47.2h10v-12h-10V47.2z M220,40.6c-0.7-7.2-3.9-12.9-8.9-16.8c-4.9-3.8-11.1-5.4-17.4-5.4v12
	c4.3,0,7.7,1.1,10.1,3c2.3,1.7,3.9,4.4,4.3,8.4L220,40.6z M193.6,18.4c-6,0-12.2,1.7-17,5.2c-4.9,3.5-8.5,9.1-8.5,16.1h12
	c0-2.5,1.2-4.7,3.5-6.4c2.5-1.8,6.1-2.9,10-2.9V18.4z M168.1,39.7c0,12.2,10.1,18.3,19,20.5l2.9-11.6c-7.1-1.8-10-5.1-10-8.9H168.1z
	 M186.9,60.2c2.5,0.7,5.2,1.4,7.5,2l2.9-11.6c-2.5-0.6-4.8-1.2-7.1-1.8L186.9,60.2z M194.4,62.1c1.1,0.3,2,0.5,2.8,0.8
	c0.8,0.3,1.3,0.5,1.5,0.7c0.2,0.2,0.2,0.2,0,0c-0.2-0.3-0.2-0.4-0.2-0.4h12c0-4.6-2.4-7.7-5.4-9.6c-2.5-1.6-5.6-2.5-7.8-3.1
	L194.4,62.1z M198.6,63.2c0,0.3-0.1,0.3,0,0.2c0-0.1,0,0-0.3,0.2c-0.7,0.4-2.2,0.8-4.1,0.8v12c3.1,0,6.8-0.5,10-2.4
	c3.6-2,6.4-5.7,6.4-10.8H198.6z M194.2,64.4c-2.5,0-3.7-0.5-4.1-0.9c-0.4-0.3-1-0.9-1.4-2.9l-11.8,2.1c0.7,4.1,2.6,7.8,6,10.4
	c3.3,2.5,7.3,3.2,11.3,3.2V64.4z M182.8,55.7h-10.2v12h10.2V55.7z M166.6,62.2c0.6,8.2,4.6,14.1,10.1,17.7
	c5.3,3.5,11.6,4.8,17.2,4.8v-12c-4,0-7.8-0.9-10.6-2.8c-2.5-1.7-4.5-4.3-4.8-8.7L166.6,62.2z M194,84.7c6,0,12.4-1.6,17.5-5.1
	c5.3-3.6,9.3-9.3,9.3-17h-12c0,3-1.4,5.3-4,7.1c-2.8,1.9-6.8,3-10.8,3V84.7z M220.8,62.6c0-6.2-2.8-10.9-6.8-14.2
	c-3.8-3.1-8.6-4.9-13-6L198,54c3.7,1,6.6,2.2,8.4,3.7c1.6,1.3,2.4,2.7,2.4,4.9H220.8z M201,42.4c-2.3-0.6-4.8-1.2-7-1.7l-2.9,11.6
	c2.6,0.7,4.5,1.1,6.8,1.7L201,42.4z M194.1,40.7c-2-0.5-3.2-1.1-3.8-1.5c-0.2-0.2-0.2-0.3-0.2-0.2c0,0,0.1,0.1,0.1,0.2
	c0,0,0,0.1,0,0.1c0,0,0,0,0,0h-12c0,4.1,2.1,7.2,4.7,9.3c2.4,1.9,5.5,3,8.2,3.7L194.1,40.7z M190.2,39.3c0,0.4-0.3,0.4,0.2,0.1
	c0.6-0.4,1.6-0.8,2.9-0.8v-12c-3.4,0-6.9,1-9.7,2.9c-2.9,2-5.4,5.3-5.4,9.8H190.2z M193.3,38.6c1.6,0,2.9,0.4,3.6,0.9
	c0.5,0.4,1,0.9,1.2,2.3l11.9-1.2c-0.5-4.8-2.8-8.6-6.2-11c-3.2-2.3-7.1-3.1-10.4-3.1V38.6z M236.2,16.7v6l6-6H236.2z M236.2,6h6
	l-6-6V6z M225.4,6V0l-6,6H225.4z M225.4,16.7h-6l6,6V16.7z M225.2,77.4h-6l6,6V77.4z M235.5,77.4v6l6-6H235.5z M235.5,25.7h6l-6-6
	V25.7z M225.2,25.7v-6l-6,6H225.2z M242.2,16.7V6h-12v10.7H242.2z M236.2,0h-10.8v12h10.8V0z M219.4,6v10.7h12V6H219.4z M225.4,22.7
	h10.8v-12h-10.8V22.7z M225.2,83.4h10.3v-12h-10.3V83.4z M241.5,77.4V25.7h-12v51.7H241.5z M235.5,19.7h-10.3v12h10.3V19.7z
	 M219.2,25.7v51.7h12V25.7H219.2z M296.9,61.1l5.8,1.4l-5.8-7.4V61.1z M286.8,61.1v-6l-5.7,4L286.8,61.1z M286.5,41.7l-5.6,2.2
	l5.6,3.8V41.7z M296.5,41.7v6l5.9-7.2L296.5,41.7z M296.9,55.1h-10.1v12h10.1V55.1z M281.1,59.1c-0.7,2-1.7,3.2-2.7,3.9
	c-1,0.7-2.6,1.3-5.1,1.3v12c4.4,0,8.5-1,12-3.4c3.5-2.4,5.8-5.8,7.2-9.8L281.1,59.1z M273.3,64.3c-3.2,0-5.7-1.3-7.4-3.3
	c-1.8-2.1-3-5.3-3-9.4h-12c0,6.4,2,12.6,5.9,17.2c4,4.7,9.8,7.5,16.5,7.5V64.3z M262.9,51.6c0-4.1,1.2-7.4,3-9.6
	c1.7-2.1,4.2-3.3,7.4-3.3v-12c-6.8,0-12.6,2.9-16.5,7.6c-3.9,4.7-5.9,10.8-5.9,17.3H262.9z M273.3,38.7c2.7,0,4.1,0.7,5.1,1.4
	c1,0.8,1.9,2,2.5,3.8l11.2-4.3c-1.2-3.1-3.2-6.4-6.4-8.9c-3.3-2.6-7.5-3.9-12.4-3.9V38.7z M286.5,47.7h10v-12h-10V47.7z M302.3,40.5
	c-1.3-6.2-4.5-11.8-9.5-15.9c-5.1-4-11.7-6.2-19.3-6.2v12c5.4,0,9.2,1.5,11.9,3.6c2.7,2.1,4.5,5.2,5.3,8.9L302.3,40.5z M273.5,18.4
	c-9.3,0-17.6,3.3-23.6,9.3c-6,6-9.2,14.4-9.2,23.9h12c0-6.7,2.2-11.9,5.7-15.4c3.5-3.5,8.6-5.8,15.1-5.8V18.4z M240.7,51.6
	c0,9.4,3.3,17.8,9.2,23.8c6,6,14.2,9.3,23.6,9.3v-12c-6.5,0-11.6-2.2-15.1-5.8c-3.5-3.5-5.7-8.7-5.7-15.3H240.7z M273.5,84.7
	c7.3,0,13.8-1.9,19-5.8c5.2-4,8.6-9.6,10.2-16.4L291,59.7c-1.1,4.5-3.1,7.6-5.8,9.6c-2.7,2.1-6.5,3.4-11.7,3.4V84.7z M307.7,41.4
	l-5.9-0.9l5.9,6.9V41.4z M317.7,41.4v6l5.9-4.7L317.7,41.4z M330.8,46.7l-1-5.9l0,0L330.8,46.7z M340.1,68.4v-6l-5.6,3.9L340.1,68.4
	z M340.2,68.4h6l-6-6V68.4z M340.4,77.4l-6,0.5l6,5.5V77.4z M351.1,77.4v6l5.9-7.1L351.1,77.4z M326.8,54.8l-1-5.9l-0.1,0
	L326.8,54.8z M340.3,47.1h6l-11.7-2L340.3,47.1z M356.3,66.2v-21h-12v21H356.3z M356.3,45.2c0-5.3-0.8-12.1-5.1-17.7
	c-4.5-5.9-11.8-9.2-22.2-9.2v12c7.7,0,11,2.3,12.7,4.5c1.9,2.5,2.6,6.1,2.6,10.4H356.3z M329,18.3c-16.9,0-25.7,11.9-27.2,22.2
	l11.9,1.8c0.8-5.5,5.3-12,15.4-12V18.3z M307.7,47.4h10v-12h-10V47.4z M323.6,42.7c0.5-2.4,2.3-4.1,5.6-4.1v-12
	c-8.5,0-15.5,5.1-17.4,13.5L323.6,42.7z M329.2,38.6c2.8,0,4.2,0.6,4.7,0.9c0.2,0.2,0.2,0.2,0.2,0.2c0-0.1,0-0.1,0,0h12
	c0-4.3-2.1-7.9-5.5-10.2c-3.2-2.1-7.2-2.9-11.4-2.9V38.6z M334.1,39.7c0,0.5-0.1,0.5,0,0.3c0-0.1,0.1-0.2,0.2-0.3
	c0.1-0.1,0.1-0.1,0.1-0.1c0,0-0.3,0.2-1.2,0.5c-0.8,0.3-1.9,0.5-3.5,0.8l1.9,11.8c3.4-0.6,7-1.4,9.7-3.4c3.4-2.4,4.6-5.9,4.6-9.6
	H334.1z M329.8,40.8c-3,0.5-10.6,1.2-16.9,3.7c-3.3,1.3-6.7,3.3-9.4,6.4c-2.8,3.3-4.4,7.4-4.4,12.4h12c0-2.3,0.7-3.6,1.5-4.7
	c1-1.1,2.5-2.2,4.7-3c4.7-1.9,9.9-2.2,14.4-3L329.8,40.8z M299.2,63.3c0,5.5,2.2,10.9,6.4,15c4.3,4.1,10.4,6.4,17.7,6.4v-12
	c-4.7,0-7.7-1.5-9.4-3.1c-1.8-1.7-2.7-3.9-2.7-6.3H299.2z M323.3,84.7c6.7,0,11.9-1.9,15.7-4.9c3.7-2.9,5.7-6.5,6.8-9.4l-11.3-4.1
	c-0.5,1.3-1.3,2.8-2.9,4c-1.5,1.2-4,2.3-8.3,2.3V84.7z M340.1,74.4L340.1,74.4l0.1-12h-0.1V74.4z M334.2,68.4v2.2h12v-2.2H334.2z
	 M334.2,70.6c0,2.5,0,4.8,0.2,7.3l12-1.1c-0.2-1.9-0.2-3.7-0.2-6.3H334.2z M340.4,83.4h10.7v-12h-10.7V83.4z M357,76.3
	c-0.4-2.3-0.7-6.4-0.7-10.1h-12c0,4.1,0.3,9,0.9,12.3L357,76.3z M334.3,53.4c0,5.1-1.4,7.7-2.8,9c-1.4,1.4-3.4,2.2-5.9,2.2v12
	c4.9,0,10.3-1.6,14.4-5.7c4.1-4.1,6.3-10.1,6.3-17.5H334.3z M325.6,64.6c-2.2,0-3.4-0.5-3.9-0.9c-0.2-0.2-0.3-0.3-0.3-0.3
	c0,0-0.1-0.1-0.1-0.3h-12c0,4.2,2,7.9,5.2,10.3c3.1,2.3,7,3.2,11,3.2V64.6z M321.4,63.1c0-0.3,0.1-0.3,0-0.2c-0.1,0.1,0,0,0.3-0.2
	c0.9-0.6,2.7-1.3,6.2-2l-2.3-11.8c-3.8,0.7-7.7,1.8-10.6,3.8c-3.5,2.3-5.6,5.8-5.6,10.4H321.4z M327.8,60.7
	c5.3-0.9,9.4-2.3,12.3-4.2c3.3-2.2,4.9-4.8,5.8-7.4l-11.3-4c-0.2,0.5-0.4,0.9-1.1,1.4c-1,0.7-3.2,1.6-7.8,2.4L327.8,60.7z
	 M334.3,47.1v6.3h12v-6.3H334.3z M363.5,6V0l-6,6H363.5z M363.5,77.4h-6l6,6V77.4z M373.8,77.4v6l6-6H373.8z M373.8,6h6l-6-6V6z
	 M357.5,6v71.4h12V6H357.5z M363.5,83.4h10.3v-12h-10.3V83.4z M379.8,77.4V6h-12v71.4H379.8z M373.8,0h-10.3v12h10.3V0z M398.3,16.7
	v6l6-6H398.3z M398.3,6h6l-6-6V6z M387.5,6V0l-6,6H387.5z M387.5,16.7h-6l6,6V16.7z M387.3,77.4h-6l6,6V77.4z M397.6,77.4v6l6-6
	H397.6z M397.6,25.7h6l-6-6V25.7z M387.3,25.7v-6l-6,6H387.3z M404.3,16.7V6h-12v10.7H404.3z M398.3,0h-10.8v12h10.8V0z M381.5,6
	v10.7h12V6H381.5z M387.5,22.7h10.8v-12h-10.8V22.7z M387.3,83.4h10.3v-12h-10.3V83.4z M403.6,77.4V25.7h-12v51.7H403.6z
	 M397.6,19.7h-10.3v12h10.3V19.7z M381.3,25.7v51.7h12V25.7H381.3z M424.5,33.9v-6l-6,6H424.5z M434.5,33.9v6l6-6H434.5z
	 M434.5,25.7h6l-6-6V25.7z M424.5,25.7h-6l6,6V25.7z M424.5,9.2h6L422,3.7L424.5,9.2z M414.4,13.7l-2.4-5.5l-3.6,5.5H414.4z
	 M414.4,25.7v6l6-6H414.4z M406.5,25.7v-6l-6,6H406.5z M406.5,33.9h-6l6,6V33.9z M414.4,33.9h6l-6-6V33.9z M434.6,77.5v6l6-6H434.6z
	 M434.6,69.1h6l-6-6V69.1z M431.1,63.1c-0.5,0-0.7-0.1-0.7-0.1c0.1,0,0.2,0.1,0.3,0.2c0.1,0.1,0,0.1-0.1-0.2
	c-0.1-0.3-0.2-0.9-0.2-1.7h-12c0,3.2,0.7,6.7,3,9.6c2.5,3.1,6.1,4.2,9.6,4.2V63.1z M430.5,61.3V33.9h-12v27.4H430.5z M424.5,39.9h10
	v-12h-10V39.9z M440.5,33.9v-8.2h-12v8.2H440.5z M434.5,19.7h-10v12h10V19.7z M430.5,25.7V9.2h-12v16.5H430.5z M422,3.7l-10.1,4.5
	l4.9,11l10.1-4.5L422,3.7z M408.4,13.7v12h12v-12H408.4z M414.4,19.7h-7.9v12h7.9V19.7z M400.5,25.7v8.2h12v-8.2H400.5z M406.5,39.9
	h7.9v-12h-7.9V39.9z M408.4,33.9v28.4h12V33.9H408.4z M408.4,62.3c0,5.3,1.2,10.7,5,14.9c3.9,4.3,9.5,6.3,16.2,6.3v-12
	c-4.3,0-6.3-1.2-7.3-2.3c-1.1-1.2-1.9-3.3-1.9-6.9H408.4z M429.6,83.5h5v-12h-5V83.5z M440.6,77.5v-8.4h-12v8.4H440.6z M434.6,63.1
	h-3.5v12h3.5V63.1z M440.5,25.7v-6l-5.6,8.2L440.5,25.7z M461.7,78.7l5.6,2.2l0-4.4L461.7,78.7z M460,83l-5.6-2.2l0,0L460,83z
	 M447.3,89v-6l-6,6H447.3z M447.3,97.4h-6l6,6V97.4z M468.4,87.5l5.6,2.1l0,0L468.4,87.5z M491.5,25.7l5.6,2.1l-5.6-8.1V25.7z
	 M480.6,25.7v-6l-5.7,4.1L480.6,25.7z M466.9,66.9v6l5.7-4.1L466.9,66.9z M466.7,66.9L461,69l5.6,3.9V66.9z M451.4,25.7l5.6-2.1
	l-5.6-3.9V25.7z M434.9,27.9c6.9,17.3,13.8,34.5,21.2,53l11.1-4.4c-7.4-18.7-14.3-35.5-21.2-53L434.9,27.9z M456.1,76.5l-1.7,4.3
	l11.2,4.4l1.7-4.3L456.1,76.5z M454.4,80.8c-0.4,0.9-0.6,1.5-0.8,2c-0.2,0.4-0.3,0.5-0.2,0.4c0.1-0.1,0.3-0.2,0.4-0.3
	c0.1,0-0.1,0.1-0.8,0.1v12c3.5,0,6.6-1,9-3.5c2-2.1,3-4.8,3.5-6.3L454.4,80.8z M453,83h-5.7v12h5.7V83z M441.3,89v8.4h12V89H441.3z
	 M447.3,103.4h7.9v-12h-7.9V103.4z M455.2,103.4c4.6,0,8.7-1.3,12.1-3.9c3.3-2.6,5.3-6.2,6.7-9.9l-11.3-4.2
	c-0.9,2.5-1.9,3.9-2.9,4.7c-0.9,0.7-2.3,1.3-4.6,1.3V103.4z M474,89.6c5.2-14.2,8.5-22.7,11.6-31.1c3.2-8.4,6.4-16.8,11.5-30.7
	l-11.3-4.1c-5.1,13.9-8.2,22.2-11.4,30.6c-3.2,8.4-6.4,16.9-11.7,31.2L474,89.6z M491.5,19.7h-10.9v12h10.9V19.7z M474.9,23.8
	c-4.6,13.8-9.4,28-13.7,41.2l11.4,3.7c4.3-13.2,9.1-27.2,13.7-41.2L474.9,23.8z M466.9,60.9h-0.2v12h0.2V60.9z M472.3,64.8
	c-5.1-13.9-10.1-27.3-15.3-41.2l-11.2,4.2C451,41.8,456,55.1,461,69L472.3,64.8z M451.4,19.7h-10.9v12h10.9V19.7z"/>
</svg>
