<?xml version="1.0" encoding="utf-8"?>
<!-- Generator: Adobe Illustrator 26.4.0, SVG Export Plug-In . SVG Version: 6.00 Build 0)  -->
<svg version="1.1" xmlns="http://www.w3.org/2000/svg" xmlns:xlink="http://www.w3.org/1999/xlink" x="0px" y="0px"
	 viewBox="0 0 426.5 828.8" style="enable-background:new 0 0 426.5 828.8;" xml:space="preserve">
<style type="text/css">
	.st0{display:none;}
	.st1{display:inline;fill:#1D1D1B;stroke:#000000;stroke-miterlimit:10;}
	.st2{fill:none;stroke:#FFFFFF;stroke-width:2;stroke-miterlimit:10;}
	.st3{enable-background:new    ;}
	.st4{fill:#FFFFFF;}
	.st5{fill:#1D1D1B;}
</style>
<g id="Livello_2" class="st0">
	<rect x="-208.2" y="-93.3" class="st1" width="771" height="1119"/>
</g>
<g id="Livello_1">
	<line class="st2" x1="99.2" y1="48.7" x2="99.2" y2="812.9"/>
	<g>
		<g>
			<rect x="0.1" y="341.9" width="198.4" height="53.8"/>
		</g>
		<g class="st3">
			<path class="st4" d="M13.3,362.2c0.1,1.3,0.7,2,1.9,2c1.4,0,1.7-1.1,1.7-2.4v-9.2h1.9v9.1c0,2.6-1.2,4.1-3.7,4.1
				c-2.1,0-3.7-1.3-3.7-3.6l0-0.8h1.9L13.3,362.2z"/>
			<path class="st4" d="M25.9,364.2c1.5,0,2.6-0.7,2.6-2.1c0-1.5-1.3-1.8-2.9-2.2c-2.1-0.6-4.3-1.3-4.3-3.8c0-2.5,2.1-3.7,4.4-3.7
				c2.6,0,4.3,1.3,4.6,3.9h-2c-0.2-1.5-1-2.3-2.6-2.3c-1.4,0-2.4,0.6-2.4,2c0,1.2,1.2,1.7,2.9,2.2c2.2,0.6,4.3,1.1,4.3,3.9
				c0,2.6-2.3,3.8-4.6,3.8c-2.8,0-5-1.4-5.1-4.3h2C22.9,363.3,24.1,364.2,25.9,364.2z"/>
		</g>
		<g class="st3">
			<path class="st4" d="M45.3,359c0,3.6-2.5,6.7-6.7,6.7s-6.7-3.1-6.7-6.7s2.5-6.7,6.7-6.7S45.3,355.4,45.3,359z M43.4,359
				c0-2.6-1.7-5.1-4.8-5.1s-4.7,2.4-4.7,5.1s1.7,5.1,4.7,5.1S43.4,361.7,43.4,359z"/>
		</g>
		<g class="st3">
			<path class="st4" d="M49.7,352.6l4.6,7.8c0.5,0.9,1,1.7,1.4,2.5c0-0.9,0-1.8,0-2.8v-7.5h1.9v12.9h-2.5l-4.5-7.5
				c-0.5-1-1-1.9-1.5-2.6c0,0.9,0,1.9,0,2.9v7.2h-1.9v-12.9H49.7z"/>
			<path class="st4" d="M67.4,352.6h1v1.5h-0.6c-0.8,0-1.2,0.3-1.2,1.3v0.8h1.6v1.5h-1.6v7.8h-1.8v-7.8h-1.3v-1.5h1.3v-0.9
				C64.8,353.8,65.5,352.6,67.4,352.6z M69.8,356.2h1.9v9.3h-1.9V356.2z M71.8,352.6v1.9h-2v-1.9H71.8z"/>
			<path class="st4" d="M75.9,352.6v12.9h-1.9v-12.9H75.9z"/>
			<path class="st4" d="M86.6,361.3h-7.2c0.1,1.8,1.3,2.9,2.8,2.9c1.2,0,2.1-0.5,2.4-1.5h1.8c-0.5,1.9-2.1,3-4.2,3
				c-2.8,0-4.6-2-4.6-4.9c0-2.8,1.9-4.8,4.6-4.8c3.2,0,4.4,2.5,4.4,5.1V361.3z M84.8,359.9c-0.1-1.5-1-2.5-2.6-2.5
				c-1.6,0-2.6,1-2.8,2.5H84.8z"/>
			<path class="st4" d="M91.5,356.2h1.9l1.4,5.3c0.2,0.7,0.3,1.4,0.5,2.1h0c0.2-0.7,0.3-1.4,0.5-2.1l1.4-5.2h2.3l1.4,5.2
				c0.2,0.7,0.3,1.4,0.5,2.1h0c0.2-0.7,0.3-1.4,0.5-2.1l1.3-5.2h1.9l-2.7,9.3h-2.1l-1.5-5.5l-0.5-1.9h0c-0.1,0.6-0.3,1.2-0.5,1.9
				l-1.5,5.5h-2.1L91.5,356.2z"/>
		</g>
		<g class="st3">
			<path class="st4" d="M106.2,356.2h1.9v9.3h-1.9V356.2z M106.3,354.5v-1.9h1.9v1.9H106.3z"/>
		</g>
		<g class="st3">
			<path class="st4" d="M114.5,364v1.5h-0.9c-2,0-2.7-1.2-2.7-2.7v-5.1h-1.4v-1.5h1.4V354l1.8-0.8v3h1.8v1.5h-1.8v4.9
				c0,0.9,0.4,1.4,1.2,1.4H114.5z"/>
		</g>
		<g class="st3">
			<path class="st4" d="M116.1,352.6h1.8v5.2c0.5-1.1,1.4-1.9,2.8-1.9c2.4,0,3.3,1.6,3.3,3.6v5.9h-1.8v-5.6c0-1.5-0.6-2.3-1.9-2.3
				c-1.3,0-2.4,1.1-2.4,3.5v4.4h-1.9V352.6z"/>
			<path class="st4" d="M130.3,356.2h1.8v1.7c0.5-1.1,1.4-1.9,2.8-1.9c2.4,0,3.3,1.6,3.3,3.6v5.9h-1.8v-5.6c0-1.5-0.6-2.3-1.9-2.3
				c-1.3,0-2.4,1.1-2.4,3.5v4.4h-1.9V356.2z"/>
			<path class="st4" d="M139.9,360.8c0-2.8,1.9-4.9,4.7-4.9c2.8,0,4.7,2.1,4.7,4.9s-1.9,4.9-4.7,4.9
				C141.8,365.7,139.9,363.7,139.9,360.8z M147.5,360.8c0-1.9-1.2-3.4-2.9-3.4c-1.7,0-2.9,1.5-2.9,3.4c0,1.8,1.2,3.3,2.9,3.3
				C146.3,364.2,147.5,362.7,147.5,360.8z"/>
			<path class="st4" d="M159.7,352.6v12.9h-1.9v-1.7h0c-0.3,0.9-1.4,1.9-3.1,1.9c-2.6,0-4.3-2-4.3-4.9s1.7-4.9,4.3-4.9
				c1.7,0,2.8,1.1,3.1,2h0v-5.3H159.7z M157.9,360.8c0-1.7-0.9-3.3-2.8-3.3c-1.8,0-2.8,1.4-2.8,3.3c0,1.9,1,3.4,2.8,3.4
				C157,364.2,157.9,362.6,157.9,360.8z"/>
			<path class="st4" d="M170.4,361.3h-7.2c0.1,1.8,1.3,2.9,2.8,2.9c1.2,0,2.1-0.5,2.4-1.5h1.8c-0.5,1.9-2.1,3-4.2,3
				c-2.8,0-4.6-2-4.6-4.9c0-2.8,1.9-4.8,4.6-4.8c3.2,0,4.4,2.5,4.4,5.1V361.3z M168.6,359.9c-0.1-1.5-1-2.5-2.6-2.5
				c-1.6,0-2.6,1-2.8,2.5H168.6z"/>
		</g>
		<g class="st3">
			<path class="st4" d="M175.3,357.4c-0.8,0-1.6,0.5-1.6,1.2c0,0.7,0.6,1.1,1.5,1.3c0.4,0.1,0.8,0.2,1.2,0.3
				c1.5,0.4,2.8,1.1,2.8,2.6c0,1.9-1.9,2.9-3.7,2.9c-1.7,0-3.7-0.8-3.9-3.1h1.8c0.2,1.1,0.9,1.6,2.1,1.6c0.9,0,1.9-0.3,1.9-1.3
				c0-0.8-0.7-1-1.6-1.2c-0.4-0.1-0.9-0.2-1.3-0.3c-1.4-0.4-2.6-1.2-2.6-2.6c0-1.7,1.7-2.8,3.5-2.8c1.9,0,3.5,1,3.7,3h-1.8
				C177.2,357.8,176.2,357.4,175.3,357.4z"/>
		</g>
		<g class="st3">
			<path class="st4" d="M182.9,352.6l-1.4,4.4h-1.7l1-4.4H182.9z"/>
		</g>
		<g class="st3">
			<path class="st4" d="M38.6,379l-3.2-4.6h2.2l2.1,3.1l2.1-3.1h2.2l-3.2,4.5l3.3,4.8h-2.2l-2.3-3.3l-2.3,3.3h-2.2L38.6,379z"/>
		</g>
		<g class="st3">
			<path class="st4" d="M48,381.5l-1.4,4.4h-1.7l1-4.4H48z"/>
			<path class="st4" d="M54.8,374.5c0.9,2.5,1.8,4.9,2.8,7.4h0c0.8-2.4,1.6-4.9,2.5-7.4h2c-1.8,5-2.3,6-4.2,11.1
				c-0.4,1.1-1.1,1.8-2.4,1.8h-1.4v-1.5h1c0.8,0,1-0.4,1.3-1.1l0.3-0.8c-1.3-3.3-2.6-6.4-3.8-9.5H54.8z"/>
			<path class="st4" d="M71.6,384c-2.8,0-4.8-2-4.8-4.9c0-2.9,2-4.9,4.8-4.9c2.3,0,3.8,1.3,4.1,3.1H74c-0.3-0.9-1-1.6-2.4-1.6
				c-1.8,0-3,1.5-3,3.4c0,1.9,1.2,3.4,3,3.4c1.2,0,2.1-0.6,2.4-1.7h1.8C75.4,382.9,73.9,384,71.6,384z"/>
			<path class="st4" d="M77.1,379.1c0-2.8,1.9-4.9,4.7-4.9c2.8,0,4.7,2.1,4.7,4.9s-1.9,4.9-4.7,4.9C79,384,77.1,382,77.1,379.1z
				 M84.7,379.1c0-1.9-1.2-3.4-2.9-3.4c-1.7,0-2.9,1.5-2.9,3.4c0,1.8,1.2,3.3,2.9,3.3C83.5,382.5,84.7,381,84.7,379.1z"/>
			<path class="st4" d="M87.6,379.1c0-2.8,1.9-4.9,4.7-4.9c2.8,0,4.7,2.1,4.7,4.9s-1.9,4.9-4.7,4.9C89.6,384,87.6,382,87.6,379.1z
				 M95.3,379.1c0-1.9-1.2-3.4-2.9-3.4c-1.7,0-2.9,1.5-2.9,3.4c0,1.8,1.2,3.3,2.9,3.3C94.1,382.5,95.3,381,95.3,379.1z"/>
		</g>
		<g class="st3">
			<path class="st4" d="M103.4,374.4v1.7c-0.1,0-0.5,0-0.8,0.1c-1,0.2-2,0.6-2,3.2v4.3h-1.9v-9.3h1.8v1.8
				C101.1,374.9,102,374.4,103.4,374.4z"/>
		</g>
		<g class="st3">
			<path class="st4" d="M113.5,370.9v12.9h-1.9V382h0c-0.3,0.9-1.4,1.9-3.1,1.9c-2.6,0-4.3-2-4.3-4.9s1.7-4.9,4.3-4.9
				c1.7,0,2.8,1.1,3.1,2h0v-5.3H113.5z M111.7,379.1c0-1.7-0.9-3.3-2.8-3.3c-1.8,0-2.8,1.4-2.8,3.3c0,1.9,1,3.4,2.8,3.4
				C110.8,382.5,111.7,380.9,111.7,379.1z"/>
			<path class="st4" d="M115.8,374.5h1.9v9.3h-1.9V374.5z M115.8,372.8v-1.9h1.9v1.9H115.8z"/>
			<path class="st4" d="M120,374.5h1.8v1.7c0.5-1.1,1.4-1.9,2.8-1.9c2.4,0,3.3,1.6,3.3,3.6v5.9h-1.8v-5.6c0-1.5-0.6-2.3-1.9-2.3
				c-1.3,0-2.4,1.1-2.4,3.5v4.4H120V374.5z"/>
			<path class="st4" d="M138,383.8h-1.9c0-0.4,0-0.8,0-1.2v-0.4h0c-0.3,0.7-1,1.9-3,1.9c-2.2,0-3.3-1.4-3.3-2.8c0-2.6,3.2-2.8,4.6-3
				c1.2-0.2,1.7-0.5,1.7-1.3s-0.7-1.3-2-1.3c-1.1,0-1.9,0.6-2.1,1.6h-1.8c0.2-1.4,1.4-3.1,3.8-3.1c3.3,0,3.8,2,3.8,3.8v3.8
				C137.8,382.5,137.9,383.3,138,383.8z M136,378.3c-0.2,0.6-0.6,1.1-2.4,1.4c-1.3,0.3-2.1,0.6-2.1,1.5c0,0.8,0.7,1.4,1.8,1.4
				c1.3,0,2.6-0.8,2.6-3.1V378.3z"/>
		</g>
		<g class="st3">
			<path class="st4" d="M144.1,382.3v1.5h-0.9c-2,0-2.7-1.2-2.7-2.7v-5.1H139v-1.5h1.4v-2.2l1.8-0.8v3h1.8v1.5h-1.8v4.9
				c0,0.9,0.4,1.4,1.2,1.4H144.1z"/>
		</g>
		<g class="st3">
			<path class="st4" d="M154.2,379.6h-7.2c0.1,1.8,1.3,2.9,2.8,2.9c1.2,0,2.1-0.5,2.4-1.5h1.8c-0.5,1.9-2.1,3-4.2,3
				c-2.8,0-4.6-2-4.6-4.9c0-2.8,1.9-4.8,4.6-4.8c3.2,0,4.4,2.5,4.4,5.1V379.6z M152.3,378.2c-0.1-1.5-1-2.5-2.6-2.5
				c-1.6,0-2.6,1-2.8,2.5H152.3z"/>
			<path class="st4" d="M159.1,375.7c-0.8,0-1.6,0.5-1.6,1.2c0,0.7,0.6,1.1,1.5,1.3c0.4,0.1,0.8,0.2,1.2,0.3
				c1.5,0.4,2.8,1.1,2.8,2.6c0,1.9-1.9,2.9-3.7,2.9c-1.7,0-3.7-0.8-3.9-3.1h1.8c0.2,1.1,0.9,1.6,2.1,1.6c0.9,0,1.9-0.3,1.9-1.3
				c0-0.8-0.7-1-1.6-1.2c-0.4-0.1-0.9-0.2-1.3-0.3c-1.4-0.4-2.6-1.2-2.6-2.6c0-1.7,1.7-2.8,3.5-2.8c1.9,0,3.5,1,3.7,3H161
				C160.9,376.1,160,375.7,159.1,375.7z"/>
		</g>
	</g>
	<g>
		<g>
			<rect x="34.2" y="476.4" width="130" height="36.8"/>
		</g>
		<g class="st3">
			<path class="st4" d="M86.5,497.7v2.2h-2.1v-2.2H86.5z"/>
		</g>
		<g class="st3">
			<path class="st4" d="M92.6,500.1c-2.8,0-4.8-2-4.8-4.9c0-2.9,2-4.9,4.8-4.9c2.3,0,3.8,1.3,4.1,3.1h-1.8c-0.3-0.9-1-1.6-2.4-1.6
				c-1.8,0-3,1.5-3,3.4c0,1.9,1.2,3.4,3,3.4c1.2,0,2.1-0.6,2.4-1.7h1.8C96.3,499,94.8,500.1,92.6,500.1z"/>
		</g>
		<g class="st3">
			<path class="st4" d="M101.7,491.8c-0.8,0-1.6,0.5-1.6,1.2c0,0.7,0.6,1.1,1.5,1.3c0.4,0.1,0.8,0.2,1.2,0.3
				c1.5,0.4,2.8,1.1,2.8,2.6c0,1.9-1.9,2.9-3.7,2.9c-1.7,0-3.7-0.8-3.9-3.1h1.8c0.2,1.1,0.9,1.6,2.1,1.6c0.9,0,1.9-0.3,1.9-1.3
				c0-0.8-0.7-1-1.6-1.2c-0.4-0.1-0.9-0.2-1.3-0.3c-1.4-0.4-2.6-1.2-2.6-2.6c0-1.7,1.7-2.8,3.5-2.8c1.9,0,3.5,1,3.7,3h-1.8
				C103.6,492.3,102.6,491.8,101.7,491.8z"/>
		</g>
		<g class="st3">
			<path class="st4" d="M108.1,490.6c0.8,2.5,1.7,5,2.5,7.5h0c0.8-2.4,1.6-5,2.4-7.5h2c-1.2,3.1-2.3,6.2-3.4,9.3h-2.1
				c-1.2-3.1-2.3-6.2-3.4-9.3H108.1z"/>
		</g>
	</g>
	<g>
		<g>
			<g>
				<rect x="188.5" y="623.1" class="st5" width="13.4" height="1"/>
			</g>
			<g>
				<rect x="194.6" y="616.9" class="st5" width="1" height="13.4"/>
			</g>
		</g>
		<g>
			<rect x="226" y="605.2" width="130" height="36.8"/>
		</g>
		<g>
			<rect x="34.2" y="605.2" width="130" height="36.8"/>
		</g>
		<g class="st3">
			<path class="st4" d="M86.5,627.5v2.2h-2.1v-2.2H86.5z"/>
		</g>
		<g class="st3">
			<path class="st4" d="M92.6,630c-2.8,0-4.8-2-4.8-4.9c0-2.9,2-4.9,4.8-4.9c2.3,0,3.8,1.3,4.1,3.1h-1.8c-0.3-0.9-1-1.6-2.4-1.6
				c-1.8,0-3,1.5-3,3.4c0,1.9,1.2,3.4,3,3.4c1.2,0,2.1-0.6,2.4-1.7h1.8C96.3,628.8,94.8,630,92.6,630z"/>
		</g>
		<g class="st3">
			<path class="st4" d="M101.7,621.7c-0.8,0-1.6,0.5-1.6,1.2c0,0.7,0.6,1.1,1.5,1.3c0.4,0.1,0.8,0.2,1.2,0.3
				c1.5,0.4,2.8,1.1,2.8,2.6c0,1.9-1.9,2.9-3.7,2.9c-1.7,0-3.7-0.8-3.9-3.1h1.8c0.2,1.1,0.9,1.6,2.1,1.6c0.9,0,1.9-0.3,1.9-1.3
				c0-0.8-0.7-1-1.6-1.2c-0.4-0.1-0.9-0.2-1.3-0.3c-1.4-0.4-2.6-1.2-2.6-2.6c0-1.7,1.7-2.8,3.5-2.8c1.9,0,3.5,1,3.7,3h-1.8
				C103.6,622.1,102.6,621.7,101.7,621.7z"/>
		</g>
		<g class="st3">
			<path class="st4" d="M108.1,620.4c0.8,2.5,1.7,5,2.5,7.5h0c0.8-2.4,1.6-5,2.4-7.5h2c-1.2,3.1-2.3,6.2-3.4,9.3h-2.1
				c-1.2-3.1-2.3-6.2-3.4-9.3H108.1z"/>
		</g>
		<g class="st3">
			<path class="st4" d="M237,620.1h1.9v9.3H237V620.1z M237,618.5v-1.9h1.9v1.9H237z"/>
			<path class="st4" d="M241.3,620.1h1.8v1.6c0.2-0.9,1.1-1.8,2.4-1.8c1.4,0,2.3,0.6,2.7,1.8c0.6-1.2,1.4-1.8,2.6-1.8
				c2.3,0,3.3,1.6,3.3,3.6v5.9h-1.8v-5.6c0-1.5-0.6-2.3-1.7-2.3c-1.2,0-2,1.2-2,3.4v4.5h-1.8v-5.6c0-1.5-0.4-2.3-1.7-2.3
				c-1.6,0-2,1.6-2,3.5v4.4h-1.9V620.1z"/>
			<path class="st4" d="M264.1,629.4h-1.9c0-0.4,0-0.8,0-1.2v-0.4h0c-0.3,0.7-1,1.9-3,1.9c-2.2,0-3.3-1.4-3.3-2.8
				c0-2.6,3.2-2.8,4.6-3c1.2-0.2,1.7-0.5,1.7-1.3s-0.7-1.3-2-1.3c-1.1,0-1.9,0.6-2.1,1.6h-1.8c0.2-1.4,1.4-3.1,3.8-3.1
				c3.3,0,3.8,2,3.8,3.8v3.8C264,628.1,264,628.9,264.1,629.4z M262.2,623.9c-0.2,0.6-0.6,1.1-2.4,1.4c-1.3,0.3-2.1,0.6-2.1,1.5
				c0,0.8,0.7,1.4,1.8,1.4c1.3,0,2.6-0.8,2.6-3.1V623.9z"/>
			<path class="st4" d="M274.8,620.1v8.5c0,2.9-2.1,4.3-4.4,4.3c-2.4,0-4.2-1.2-4.4-3.2h1.8c0.2,1.2,1.1,1.7,2.5,1.7
				c1.5,0,2.6-0.8,2.6-2.7v-1.1h0c-0.4,1.1-1.3,1.9-3,1.9c-2.6,0-4.3-2-4.3-4.8c0-2.8,1.7-4.8,4.3-4.8c1.7,0,2.7,1,3,1.8h0v-1.6
				H274.8z M270.2,628c2.1,0,2.8-1.9,2.8-3.3c0-1.4-0.9-3.3-2.8-3.3c-1.9,0-2.8,1.6-2.8,3.3C267.4,626.4,268.3,628,270.2,628z"/>
			<path class="st4" d="M285.5,625.3h-7.2c0.1,1.8,1.3,2.9,2.8,2.9c1.2,0,2.1-0.5,2.4-1.5h1.8c-0.5,1.9-2.1,3-4.2,3
				c-2.8,0-4.6-2-4.6-4.9c0-2.8,1.9-4.8,4.6-4.8c3.2,0,4.4,2.5,4.4,5.1V625.3z M283.7,623.9c-0.1-1.5-1-2.5-2.6-2.5
				c-1.6,0-2.6,1-2.8,2.5H283.7z"/>
			<path class="st4" d="M290.4,621.3c-0.8,0-1.6,0.5-1.6,1.2c0,0.7,0.6,1.1,1.5,1.3c0.4,0.1,0.8,0.2,1.2,0.3
				c1.5,0.4,2.8,1.1,2.8,2.6c0,1.9-1.9,2.9-3.7,2.9c-1.7,0-3.7-0.8-3.9-3.1h1.8c0.2,1.1,0.9,1.6,2.1,1.6c0.9,0,1.9-0.3,1.9-1.3
				c0-0.8-0.7-1-1.6-1.2c-0.4-0.1-0.9-0.2-1.3-0.3c-1.4-0.4-2.6-1.2-2.6-2.6c0-1.7,1.7-2.8,3.5-2.8c1.9,0,3.5,1,3.7,3h-1.8
				C292.3,621.8,291.3,621.3,290.4,621.3z"/>
		</g>
		<g class="st3">
			<path class="st4" d="M302.5,619.3v0.8h1.6v1.5h-1.6v7.8h-1.8v-7.8h-1.3v-1.5h1.3v-0.9c0-1.5,0.7-2.7,2.5-2.7h1v1.5h-0.6
				C302.9,618,302.5,618.3,302.5,619.3z"/>
		</g>
		<g class="st3">
			<path class="st4" d="M304.7,624.8c0-2.8,1.9-4.9,4.7-4.9s4.7,2.1,4.7,4.9s-1.9,4.9-4.7,4.9S304.7,627.6,304.7,624.8z
				 M312.4,624.8c0-1.9-1.2-3.4-2.9-3.4c-1.7,0-2.9,1.5-2.9,3.4c0,1.8,1.2,3.3,2.9,3.3C311.2,628.1,312.4,626.6,312.4,624.8z"/>
			<path class="st4" d="M317.7,616.5v12.9h-1.9v-12.9H317.7z"/>
			<path class="st4" d="M328.7,616.5v12.9h-1.9v-1.7h0c-0.3,0.9-1.4,1.9-3.1,1.9c-2.6,0-4.3-2-4.3-4.9s1.7-4.9,4.3-4.9
				c1.7,0,2.8,1.1,3.1,2h0v-5.3H328.7z M326.9,624.7c0-1.7-0.9-3.3-2.8-3.3c-1.8,0-2.8,1.4-2.8,3.3c0,1.9,1,3.4,2.8,3.4
				C326,628.1,326.9,626.5,326.9,624.7z"/>
			<path class="st4" d="M339.4,625.3h-7.2c0.1,1.8,1.3,2.9,2.8,2.9c1.2,0,2.1-0.5,2.4-1.5h1.8c-0.5,1.9-2.1,3-4.2,3
				c-2.8,0-4.6-2-4.6-4.9c0-2.8,1.9-4.8,4.6-4.8c3.2,0,4.4,2.5,4.4,5.1V625.3z M337.6,623.9c-0.1-1.5-1-2.5-2.6-2.5
				c-1.6,0-2.6,1-2.8,2.5H337.6z"/>
			<path class="st4" d="M345.8,620v1.7c-0.1,0-0.5,0-0.8,0.1c-1,0.2-2,0.6-2,3.2v4.3h-1.9v-9.3h1.8v1.8
				C343.5,620.6,344.4,620,345.8,620z"/>
		</g>
	</g>
	<g>
		<g>
			<path class="st4" d="M14,0h170.5c7.7,0,14,6.2,14,14v25.9c0,7.7-6.2,13.9-14,13.9H14c-7.7,0-13.9-6.2-13.9-13.9V14
				C0.1,6.2,6.3,0,14,0z"/>
		</g>
		<g class="st3">
			<path d="M33.4,10.7l3.1,0L40,21.2h0l3.4-10.6h3.1v12.9h-1.9V12.8h0l-3.5,10.7h-2.1l-3.6-10.7h0v10.7h-1.9V10.7z"/>
		</g>
		<g class="st3">
			<path d="M56.8,23.5h-1.9c0-0.4,0-0.8,0-1.2v-0.4h0c-0.3,0.7-1,1.9-3,1.9c-2.2,0-3.3-1.4-3.3-2.8c0-2.6,3.2-2.8,4.6-3
				c1.2-0.2,1.7-0.5,1.7-1.3s-0.7-1.3-2-1.3c-1.1,0-1.9,0.6-2.1,1.6h-1.8c0.2-1.4,1.4-3.1,3.8-3.1c3.3,0,3.8,2,3.8,3.8v3.8
				C56.6,22.2,56.7,23,56.8,23.5z M54.8,18.1c-0.2,0.6-0.6,1.1-2.4,1.4c-1.3,0.3-2.1,0.6-2.1,1.5c0,0.8,0.7,1.4,1.8,1.4
				c1.3,0,2.6-0.8,2.6-3.1V18.1z"/>
			<path d="M58.8,14.2h1.8v1.7c0.5-1.1,1.4-1.9,2.8-1.9c2.4,0,3.3,1.6,3.3,3.6v5.9h-1.8v-5.6c0-1.5-0.6-2.3-1.9-2.3
				c-1.3,0-2.4,1.1-2.4,3.5v4.4h-1.9V14.2z"/>
			<path d="M68.9,14.2h1.8v5.6c0,1.5,0.6,2.3,1.9,2.3c1.3,0,2.4-1.1,2.4-3.5v-4.4h1.9v9.3H75v-1.7c-0.5,1.1-1.4,1.9-2.8,1.9
				c-2.4,0-3.3-1.6-3.3-3.6V14.2z"/>
			<path d="M86.9,23.5H85c0-0.4,0-0.8,0-1.2v-0.4h0c-0.3,0.7-1,1.9-3,1.9c-2.2,0-3.3-1.4-3.3-2.8c0-2.6,3.2-2.8,4.6-3
				c1.2-0.2,1.7-0.5,1.7-1.3s-0.7-1.3-2-1.3c-1.1,0-1.9,0.6-2.1,1.6h-1.8c0.2-1.4,1.4-3.1,3.8-3.1c3.3,0,3.8,2,3.8,3.8v3.8
				C86.8,22.2,86.8,23,86.9,23.5z M85,18.1c-0.2,0.6-0.6,1.1-2.4,1.4c-1.3,0.3-2.1,0.6-2.1,1.5c0,0.8,0.7,1.4,1.8,1.4
				c1.3,0,2.6-0.8,2.6-3.1V18.1z"/>
			<path d="M90.8,10.7v12.9H89V10.7H90.8z"/>
			<path d="M106.4,18.8c0,2.9-1.7,4.9-4.3,4.9c-1.6,0-2.7-1.1-3.1-1.9h0v5.3h-1.9V14.2H99V16h0c0.3-0.9,1.4-2,3.1-2
				C104.7,14,106.4,15.9,106.4,18.8z M104.6,18.8c0-1.9-1-3.3-2.8-3.3c-1.9,0-2.8,1.6-2.8,3.3c0,1.8,0.9,3.4,2.8,3.4
				C103.6,22.2,104.6,20.8,104.6,18.8z"/>
			<path d="M108.1,14.2h1.9v9.3h-1.9V14.2z M108.1,12.6v-1.9h1.9v1.9H108.1z"/>
		</g>
		<g class="st3">
			<path d="M116.6,23.8c-2.8,0-4.8-2-4.8-4.9c0-2.9,2-4.9,4.8-4.9c2.3,0,3.8,1.3,4.1,3.1h-1.8c-0.3-0.9-1-1.6-2.4-1.6
				c-1.8,0-3,1.5-3,3.4c0,1.9,1.2,3.4,3,3.4c1.2,0,2.1-0.6,2.4-1.7h1.8C120.3,22.6,118.8,23.8,116.6,23.8z"/>
		</g>
		<g class="st3">
			<path d="M126.7,22v1.5h-0.9c-2,0-2.7-1.2-2.7-2.7v-5.1h-1.4v-1.5h1.4v-2.2l1.8-0.8v3h1.8v1.5h-1.8v4.9c0,0.9,0.4,1.4,1.2,1.4
				H126.7z"/>
			<path d="M128.3,14.2h1.8v5.6c0,1.5,0.6,2.3,1.9,2.3c1.3,0,2.4-1.1,2.4-3.5v-4.4h1.9v9.3h-1.8v-1.7c-0.5,1.1-1.4,1.9-2.8,1.9
				c-2.4,0-3.3-1.6-3.3-3.6V14.2z"/>
		</g>
		<g class="st3">
			<path d="M143.2,14.2v1.7c-0.1,0-0.5,0-0.8,0.1c-1,0.2-2,0.6-2,3.2v4.3h-1.9v-9.3h1.8V16C140.9,14.7,141.8,14.2,143.2,14.2z"/>
		</g>
		<g class="st3">
			<path d="M153,19.4h-7.2c0.1,1.8,1.3,2.9,2.8,2.9c1.2,0,2.1-0.5,2.4-1.5h1.8c-0.5,1.9-2.1,3-4.2,3c-2.8,0-4.6-2-4.6-4.9
				c0-2.8,1.9-4.8,4.6-4.8c3.2,0,4.4,2.5,4.4,5.1V19.4z M151.2,18c-0.1-1.5-1-2.5-2.6-2.5c-1.6,0-2.6,1-2.8,2.5H151.2z"/>
			<path d="M158,15.5c-0.8,0-1.6,0.5-1.6,1.2c0,0.7,0.6,1.1,1.5,1.3c0.4,0.1,0.8,0.2,1.2,0.3c1.5,0.4,2.8,1.1,2.8,2.6
				c0,1.9-1.9,2.9-3.7,2.9c-1.7,0-3.7-0.8-3.9-3.1h1.8c0.2,1.1,0.9,1.6,2.1,1.6c0.9,0,1.9-0.3,1.9-1.3c0-0.8-0.7-1-1.6-1.2
				c-0.4-0.1-0.9-0.2-1.3-0.3c-1.4-0.4-2.6-1.2-2.6-2.6c0-1.7,1.7-2.8,3.5-2.8c1.9,0,3.5,1,3.7,3h-1.8
				C159.8,15.9,158.9,15.5,158,15.5z"/>
		</g>
		<g class="st3">
			<path d="M34.4,29h1v1.5h-0.6c-0.8,0-1.2,0.3-1.2,1.3v0.8h1.6V34h-1.6v7.8h-1.8V34h-1.3v-1.5h1.3v-0.9C31.9,30.2,32.6,29,34.4,29z
				 M36.9,32.5h1.9v9.3h-1.9V32.5z M38.9,29v1.9h-2V29H38.9z"/>
		</g>
		<g class="st3">
			<path d="M43,29v12.9h-1.9V29H43z"/>
		</g>
		<g class="st3">
			<path d="M49.3,40.3v1.5h-0.9c-2,0-2.7-1.2-2.7-2.7V34h-1.4v-1.5h1.4v-2.2l1.8-0.8v3h1.8V34h-1.8v4.9c0,0.9,0.4,1.4,1.2,1.4H49.3z
				"/>
		</g>
		<g class="st3">
			<path d="M59.4,37.7h-7.2c0.1,1.8,1.3,2.9,2.8,2.9c1.2,0,2.1-0.5,2.4-1.5h1.8c-0.5,1.9-2.1,3-4.2,3c-2.8,0-4.6-2-4.6-4.9
				c0-2.8,1.9-4.8,4.6-4.8c3.2,0,4.4,2.5,4.4,5.1V37.7z M57.6,36.3c-0.1-1.5-1-2.5-2.6-2.5c-1.6,0-2.6,1-2.8,2.5H57.6z"/>
		</g>
		<g class="st3">
			<path d="M65.8,32.5v1.7c-0.1,0-0.5,0-0.8,0.1c-1,0.2-2,0.6-2,3.2v4.3h-1.9v-9.3H63v1.8C63.5,33,64.5,32.5,65.8,32.5z"/>
		</g>
		<g class="st3">
			<path d="M67.1,32.5H69v9.3h-1.9V32.5z M67.2,30.9V29h1.9v1.9H67.2z"/>
			<path d="M71.4,32.5h1.8v1.7c0.5-1.1,1.4-1.9,2.8-1.9c2.4,0,3.3,1.6,3.3,3.6v5.9h-1.8v-5.6c0-1.5-0.6-2.3-1.9-2.3
				c-1.3,0-2.4,1.1-2.4,3.5v4.4h-1.9V32.5z"/>
			<path d="M90.2,32.5V41c0,2.9-2.1,4.3-4.4,4.3c-2.4,0-4.2-1.2-4.4-3.2h1.8c0.2,1.2,1.1,1.7,2.5,1.7c1.5,0,2.6-0.8,2.6-2.7V40h0
				c-0.4,1.1-1.3,1.9-3,1.9c-2.6,0-4.3-2-4.3-4.8c0-2.8,1.7-4.8,4.3-4.8c1.7,0,2.7,1,3,1.8h0v-1.6H90.2z M85.6,40.4
				c2.1,0,2.8-1.9,2.8-3.3c0-1.4-0.9-3.3-2.8-3.3c-1.9,0-2.8,1.6-2.8,3.3C82.8,38.8,83.7,40.4,85.6,40.4z"/>
		</g>
		<g class="st3">
			<path d="M96.3,37c0-2.8,1-5.8,2.8-8.3h1.6c-1.6,2.7-2.6,5.4-2.6,8.3c0,3,1,5.7,2.6,8.4h-1.6C97.4,42.7,96.3,40.1,96.3,37z"/>
		</g>
		<g class="st3">
			<path d="M105.8,40.3v1.5h-0.9c-2,0-2.7-1.2-2.7-2.7V34h-1.4v-1.5h1.4v-2.2l1.8-0.8v3h1.8V34H104v4.9c0,0.9,0.4,1.4,1.2,1.4H105.8
				z"/>
			<path d="M115.3,41.8h-1.9c0-0.4,0-0.8,0-1.2v-0.4h0c-0.3,0.7-1,1.9-3,1.9c-2.2,0-3.3-1.4-3.3-2.8c0-2.6,3.2-2.8,4.6-3
				c1.2-0.2,1.7-0.5,1.7-1.3s-0.7-1.3-2-1.3c-1.1,0-1.9,0.6-2.1,1.6h-1.8c0.2-1.4,1.4-3.1,3.8-3.1c3.3,0,3.8,2,3.8,3.8v3.8
				C115.2,40.5,115.2,41.3,115.3,41.8z M113.4,36.4c-0.2,0.6-0.6,1.1-2.4,1.4c-1.3,0.3-2.1,0.6-2.1,1.5c0,0.8,0.7,1.4,1.8,1.4
				c1.3,0,2.6-0.8,2.6-3.1V36.4z"/>
			<path d="M126,32.5V41c0,2.9-2.1,4.3-4.4,4.3c-2.4,0-4.2-1.2-4.4-3.2h1.8c0.2,1.2,1.1,1.7,2.5,1.7c1.5,0,2.6-0.8,2.6-2.7V40h0
				c-0.4,1.1-1.3,1.9-3,1.9c-2.6,0-4.3-2-4.3-4.8c0-2.8,1.7-4.8,4.3-4.8c1.7,0,2.7,1,3,1.8h0v-1.6H126z M121.4,40.4
				c2.1,0,2.8-1.9,2.8-3.3c0-1.4-0.9-3.3-2.8-3.3s-2.8,1.6-2.8,3.3C118.6,38.8,119.5,40.4,121.4,40.4z"/>
			<path d="M137,32.5V41c0,2.9-2.1,4.3-4.4,4.3c-2.4,0-4.2-1.2-4.4-3.2h1.8c0.2,1.2,1.1,1.7,2.5,1.7c1.5,0,2.6-0.8,2.6-2.7V40h0
				c-0.4,1.1-1.3,1.9-3,1.9c-2.6,0-4.3-2-4.3-4.8c0-2.8,1.7-4.8,4.3-4.8c1.7,0,2.7,1,3,1.8h0v-1.6H137z M132.4,40.4
				c2.1,0,2.8-1.9,2.8-3.3c0-1.4-0.9-3.3-2.8-3.3s-2.8,1.6-2.8,3.3C129.6,38.8,130.4,40.4,132.4,40.4z"/>
			<path d="M139.2,32.5h1.9v9.3h-1.9V32.5z M139.3,30.9V29h1.9v1.9H139.3z"/>
			<path d="M143.5,32.5h1.8v1.7c0.5-1.1,1.4-1.9,2.8-1.9c2.4,0,3.3,1.6,3.3,3.6v5.9h-1.8v-5.6c0-1.5-0.6-2.3-1.9-2.3
				c-1.3,0-2.4,1.1-2.4,3.5v4.4h-1.9V32.5z"/>
		</g>
		<g class="st3">
			<path d="M162.3,32.5V41c0,2.9-2.1,4.3-4.4,4.3c-2.4,0-4.2-1.2-4.4-3.2h1.8c0.2,1.2,1.1,1.7,2.5,1.7c1.5,0,2.6-0.8,2.6-2.7V40h0
				c-0.4,1.1-1.3,1.9-3,1.9c-2.6,0-4.3-2-4.3-4.8c0-2.8,1.7-4.8,4.3-4.8c1.7,0,2.7,1,3,1.8h0v-1.6H162.3z M157.7,40.4
				c2.1,0,2.8-1.9,2.8-3.3c0-1.4-0.9-3.3-2.8-3.3c-1.9,0-2.8,1.6-2.8,3.3C154.9,38.8,155.8,40.4,157.7,40.4z"/>
		</g>
		<g class="st3">
			<path d="M163,45.4c1.6-2.8,2.6-5.4,2.6-8.4c0-2.9-1-5.6-2.6-8.3h1.6c1.9,2.5,2.8,5.5,2.8,8.3c0,3.2-1.1,5.7-2.8,8.4H163z"/>
		</g>
	</g>
	<g>
		<g>
			<path class="st4" d="M14,409.1h170.5c7.7,0,14,6.2,14,14V449c0,7.7-6.2,14-14,14H14c-7.7,0-13.9-6.2-13.9-14v-25.9
				C0.1,415.4,6.3,409.1,14,409.1z"/>
		</g>
		<g class="st3">
			<path d="M18.8,421.5h-3.9v11.2H13v-11.2H9.1v-1.6h9.7V421.5z"/>
		</g>
		<g class="st3">
			<path d="M27,428.5h-7.2c0.1,1.8,1.3,2.9,2.8,2.9c1.2,0,2.1-0.5,2.4-1.5h1.8c-0.5,1.9-2.1,3-4.2,3c-2.8,0-4.6-2-4.6-4.9
				c0-2.8,1.9-4.8,4.6-4.8c3.2,0,4.4,2.5,4.4,5.1V428.5z M25.2,427.2c-0.1-1.5-1-2.5-2.6-2.5c-1.6,0-2.6,1-2.8,2.5H25.2z"/>
			<path d="M33.4,423.3v1.7c-0.1,0-0.5,0-0.8,0.1c-1,0.2-2,0.6-2,3.2v4.3h-1.9v-9.3h1.8v1.8C31.1,423.8,32,423.3,33.4,423.3z"/>
		</g>
		<g class="st3">
			<path d="M39.6,423.3v1.7c-0.1,0-0.5,0-0.8,0.1c-1,0.2-2,0.6-2,3.2v4.3h-1.9v-9.3h1.8v1.8C37.3,423.8,38.2,423.3,39.6,423.3z"/>
		</g>
		<g class="st3">
			<path d="M49.4,428.5h-7.2c0.1,1.8,1.3,2.9,2.8,2.9c1.2,0,2.1-0.5,2.4-1.5h1.8c-0.5,1.9-2.1,3-4.2,3c-2.8,0-4.6-2-4.6-4.9
				c0-2.8,1.9-4.8,4.6-4.8c3.2,0,4.4,2.5,4.4,5.1V428.5z M47.6,427.2c-0.1-1.5-1-2.5-2.6-2.5c-1.6,0-2.6,1-2.8,2.5H47.6z"/>
		</g>
		<g class="st3">
			<path d="M54.3,424.6c-0.8,0-1.6,0.5-1.6,1.2c0,0.7,0.6,1.1,1.5,1.3c0.4,0.1,0.8,0.2,1.2,0.3c1.5,0.4,2.8,1.1,2.8,2.6
				c0,1.9-1.9,2.9-3.7,2.9c-1.7,0-3.7-0.8-3.9-3.1h1.8c0.2,1.1,0.9,1.6,2.1,1.6c0.9,0,1.9-0.3,1.9-1.3c0-0.8-0.7-1-1.6-1.2
				c-0.4-0.1-0.9-0.2-1.3-0.3c-1.4-0.4-2.6-1.2-2.6-2.6c0-1.7,1.7-2.8,3.5-2.8c1.9,0,3.5,1,3.7,3h-1.8
				C56.2,425.1,55.2,424.6,54.3,424.6z"/>
		</g>
		<g class="st3">
			<path d="M64,431.2v1.5h-0.9c-2,0-2.7-1.2-2.7-2.7v-5.1h-1.4v-1.5h1.4v-2.2l1.8-0.8v3H64v1.5h-1.8v4.9c0,0.9,0.4,1.4,1.2,1.4H64z"
				/>
		</g>
		<g class="st3">
			<path d="M70.1,423.3v1.7c-0.1,0-0.5,0-0.8,0.1c-1,0.2-2,0.6-2,3.2v4.3h-1.9v-9.3h1.8v1.8C67.8,423.8,68.8,423.3,70.1,423.3z"/>
		</g>
		<g class="st3">
			<path d="M71.5,423.4h1.9v9.3h-1.9V423.4z M71.5,421.8v-1.9h1.9v1.9H71.5z"/>
		</g>
		<g class="st3">
			<path d="M83.3,432.7h-1.9c0-0.4,0-0.8,0-1.2v-0.4h0c-0.3,0.7-1,1.9-3,1.9c-2.2,0-3.3-1.4-3.3-2.8c0-2.6,3.2-2.8,4.6-3
				c1.2-0.2,1.7-0.5,1.7-1.3s-0.7-1.3-2-1.3c-1.1,0-1.9,0.6-2.1,1.6h-1.8c0.2-1.4,1.4-3.1,3.8-3.1c3.3,0,3.8,2,3.8,3.8v3.8
				C83.2,431.4,83.2,432.2,83.3,432.7z M81.4,427.2c-0.2,0.6-0.6,1.1-2.4,1.4c-1.3,0.3-2.1,0.6-2.1,1.5c0,0.8,0.7,1.4,1.8,1.4
				c1.3,0,2.6-0.8,2.6-3.1V427.2z"/>
			<path d="M87.2,419.8v12.9h-1.9v-12.9H87.2z"/>
			<path d="M97.8,432.9c-2.8,0-4.8-2-4.8-4.9c0-2.9,2-4.9,4.8-4.9c2.3,0,3.8,1.3,4.1,3.1h-1.8c-0.3-0.9-1-1.6-2.4-1.6
				c-1.8,0-3,1.5-3,3.4c0,1.9,1.2,3.4,3,3.4c1.2,0,2.1-0.6,2.4-1.7h1.8C101.5,431.8,100,432.9,97.8,432.9z"/>
			<path d="M103.2,428c0-2.8,1.9-4.9,4.7-4.9c2.8,0,4.7,2.1,4.7,4.9s-1.9,4.9-4.7,4.9C105.2,432.9,103.2,430.9,103.2,428z
				 M110.9,428c0-1.9-1.2-3.4-2.9-3.4c-1.7,0-2.9,1.5-2.9,3.4c0,1.8,1.2,3.3,2.9,3.3C109.7,431.4,110.9,429.9,110.9,428z"/>
			<path d="M113.8,428c0-2.8,1.9-4.9,4.7-4.9c2.8,0,4.7,2.1,4.7,4.9s-1.9,4.9-4.7,4.9C115.7,432.9,113.8,430.9,113.8,428z
				 M121.4,428c0-1.9-1.2-3.4-2.9-3.4c-1.7,0-2.9,1.5-2.9,3.4c0,1.8,1.2,3.3,2.9,3.3C120.3,431.4,121.4,429.9,121.4,428z"/>
		</g>
		<g class="st3">
			<path d="M129.6,423.3v1.7c-0.1,0-0.5,0-0.8,0.1c-1,0.2-2,0.6-2,3.2v4.3h-1.9v-9.3h1.8v1.8C127.3,423.8,128.2,423.3,129.6,423.3z"
				/>
		</g>
		<g class="st3">
			<path d="M139.7,419.8v12.9h-1.9V431h0c-0.3,0.9-1.4,1.9-3.1,1.9c-2.6,0-4.3-2-4.3-4.9s1.7-4.9,4.3-4.9c1.7,0,2.8,1.1,3.1,2h0
				v-5.3H139.7z M137.9,428c0-1.7-0.9-3.3-2.8-3.3c-1.8,0-2.8,1.4-2.8,3.3c0,1.9,1,3.4,2.8,3.4C137,431.4,137.9,429.8,137.9,428z"/>
			<path d="M141.9,423.4h1.9v9.3h-1.9V423.4z M142,421.8v-1.9h1.9v1.9H142z"/>
			<path d="M146.2,423.4h1.8v1.7c0.5-1.1,1.4-1.9,2.8-1.9c2.4,0,3.3,1.6,3.3,3.6v5.9h-1.8v-5.6c0-1.5-0.6-2.3-1.9-2.3
				c-1.3,0-2.4,1.1-2.4,3.5v4.4h-1.9V423.4z"/>
			<path d="M164.1,432.7h-1.9c0-0.4,0-0.8,0-1.2v-0.4h0c-0.3,0.7-1,1.9-3,1.9c-2.2,0-3.3-1.4-3.3-2.8c0-2.6,3.2-2.8,4.6-3
				c1.2-0.2,1.7-0.5,1.7-1.3s-0.7-1.3-2-1.3c-1.1,0-1.9,0.6-2.1,1.6h-1.8c0.2-1.4,1.4-3.1,3.8-3.1c3.3,0,3.8,2,3.8,3.8v3.8
				C164,431.4,164.1,432.2,164.1,432.7z M162.2,427.2c-0.2,0.6-0.6,1.1-2.4,1.4c-1.3,0.3-2.1,0.6-2.1,1.5c0,0.8,0.7,1.4,1.8,1.4
				c1.3,0,2.6-0.8,2.6-3.1V427.2z"/>
		</g>
		<g class="st3">
			<path d="M170.2,431.2v1.5h-0.9c-2,0-2.7-1.2-2.7-2.7v-5.1h-1.4v-1.5h1.4v-2.2l1.8-0.8v3h1.8v1.5h-1.8v4.9c0,0.9,0.4,1.4,1.2,1.4
				H170.2z"/>
		</g>
		<g class="st3">
			<path d="M180.3,428.5h-7.2c0.1,1.8,1.3,2.9,2.8,2.9c1.2,0,2.1-0.5,2.4-1.5h1.8c-0.5,1.9-2.1,3-4.2,3c-2.8,0-4.6-2-4.6-4.9
				c0-2.8,1.9-4.8,4.6-4.8c3.2,0,4.4,2.5,4.4,5.1V428.5z M178.5,427.2c-0.1-1.5-1-2.5-2.6-2.5c-1.6,0-2.6,1-2.8,2.5H178.5z"/>
			<path d="M185.3,424.6c-0.8,0-1.6,0.5-1.6,1.2c0,0.7,0.6,1.1,1.5,1.3c0.4,0.1,0.8,0.2,1.2,0.3c1.5,0.4,2.8,1.1,2.8,2.6
				c0,1.9-1.9,2.9-3.7,2.9c-1.7,0-3.7-0.8-3.9-3.1h1.8c0.2,1.1,0.9,1.6,2.1,1.6c0.9,0,1.9-0.3,1.9-1.3c0-0.8-0.7-1-1.6-1.2
				c-0.4-0.1-0.9-0.2-1.3-0.3c-1.4-0.4-2.6-1.2-2.6-2.6c0-1.7,1.7-2.8,3.5-2.8c1.9,0,3.5,1,3.7,3h-1.8
				C187.1,425.1,186.2,424.6,185.3,424.6z"/>
		</g>
		<g class="st3">
			<path d="M59.8,451.2c-2.8,0-4.8-2-4.8-4.9c0-2.9,2-4.9,4.8-4.9c2.3,0,3.8,1.3,4.1,3.1h-1.8c-0.3-0.9-1-1.6-2.4-1.6
				c-1.8,0-3,1.5-3,3.4c0,1.9,1.2,3.4,3,3.4c1.2,0,2.1-0.6,2.4-1.7H64C63.5,450.1,62,451.2,59.8,451.2z"/>
			<path d="M65.2,446.3c0-2.8,1.9-4.9,4.7-4.9c2.8,0,4.7,2.1,4.7,4.9s-1.9,4.9-4.7,4.9C67.2,451.2,65.2,449.2,65.2,446.3z
				 M72.9,446.3c0-1.9-1.2-3.4-2.9-3.4c-1.7,0-2.9,1.5-2.9,3.4c0,1.8,1.2,3.3,2.9,3.3C71.7,449.7,72.9,448.2,72.9,446.3z"/>
		</g>
		<g class="st3">
			<path d="M76.4,441.7h1.8v1.7c0.5-1.1,1.4-1.9,2.8-1.9c2.4,0,3.3,1.6,3.3,3.6v5.9h-1.8v-5.6c0-1.5-0.6-2.3-1.9-2.3
				c-1.3,0-2.4,1.1-2.4,3.5v4.4h-1.9V441.7z"/>
		</g>
		<g class="st3">
			<path d="M87.2,441.7c0.8,2.5,1.7,5,2.5,7.5h0c0.8-2.4,1.6-5,2.4-7.5h2c-1.2,3.1-2.3,6.2-3.4,9.3h-2.1c-1.2-3.1-2.3-6.2-3.4-9.3
				H87.2z"/>
		</g>
		<g class="st3">
			<path d="M103.6,446.8h-7.2c0.1,1.8,1.3,2.9,2.8,2.9c1.2,0,2.1-0.5,2.4-1.5h1.8c-0.5,1.9-2.1,3-4.2,3c-2.8,0-4.6-2-4.6-4.9
				c0-2.8,1.9-4.8,4.6-4.8c3.2,0,4.4,2.5,4.4,5.1V446.8z M101.8,445.5c-0.1-1.5-1-2.5-2.6-2.5c-1.6,0-2.6,1-2.8,2.5H101.8z"/>
			<path d="M110,441.6v1.7c-0.1,0-0.5,0-0.8,0.1c-1,0.2-2,0.6-2,3.2v4.3h-1.9v-9.3h1.8v1.8C107.7,442.1,108.6,441.6,110,441.6z"/>
			<path d="M114.7,442.9c-0.8,0-1.6,0.5-1.6,1.2c0,0.7,0.6,1.1,1.5,1.3c0.4,0.1,0.8,0.2,1.2,0.3c1.5,0.4,2.8,1.1,2.8,2.6
				c0,1.9-1.9,2.9-3.7,2.9c-1.7,0-3.7-0.8-3.9-3.1h1.8c0.2,1.1,0.9,1.6,2.1,1.6c0.9,0,1.9-0.3,1.9-1.3c0-0.8-0.7-1-1.6-1.2
				c-0.4-0.1-0.9-0.2-1.3-0.3c-1.4-0.4-2.6-1.2-2.6-2.6c0-1.7,1.7-2.8,3.5-2.8c1.9,0,3.5,1,3.7,3h-1.8
				C116.5,443.4,115.6,442.9,114.7,442.9z"/>
			<path d="M120.2,441.7h1.9v9.3h-1.9V441.7z M120.3,440.1v-1.9h1.9v1.9H120.3z"/>
			<path d="M123.9,446.3c0-2.8,1.9-4.9,4.7-4.9c2.8,0,4.7,2.1,4.7,4.9s-1.9,4.9-4.7,4.9C125.9,451.2,123.9,449.2,123.9,446.3z
				 M131.5,446.3c0-1.9-1.2-3.4-2.9-3.4c-1.7,0-2.9,1.5-2.9,3.4c0,1.8,1.2,3.3,2.9,3.3C130.4,449.7,131.5,448.2,131.5,446.3z"/>
			<path d="M135,441.7h1.8v1.7c0.5-1.1,1.4-1.9,2.8-1.9c2.4,0,3.3,1.6,3.3,3.6v5.9h-1.8v-5.6c0-1.5-0.6-2.3-1.9-2.3
				c-1.3,0-2.4,1.1-2.4,3.5v4.4H135V441.7z"/>
		</g>
	</g>
	<g>
		<g>
			<rect x="198.4" y="557.5" class="st4" width="30" height="2"/>
		</g>
		<g>
			<g>
				<ellipse class="st4" cx="326.6" cy="559.2" rx="99.9" ry="32.6"/>
			</g>
			<g>
				<path class="st4" d="M14,533.6h170.5c7.7,0,14,6.2,14,14v25.9c0,7.7-6.2,14-14,14H14c-7.7,0-13.9-6.2-13.9-14v-25.9
					C0.1,539.8,6.3,533.6,14,533.6z"/>
			</g>
			<g class="st3">
				<path d="M16.1,551.9c0,3.8-2.4,6.6-6.6,6.6h-4v-12.9h3.9C13.7,545.6,16.1,548.1,16.1,551.9z M14.1,551.9c0-3.2-2-4.6-4.7-4.6h-2
					v9.6h2.1C12.1,556.8,14.1,555.2,14.1,551.9z"/>
				<path d="M25.6,558.5h-1.9c0-0.4,0-0.8,0-1.2v-0.4h0c-0.3,0.7-1,1.9-3,1.9c-2.2,0-3.3-1.4-3.3-2.8c0-2.6,3.2-2.8,4.6-3
					c1.2-0.2,1.7-0.5,1.7-1.3s-0.7-1.3-2-1.3c-1.1,0-1.9,0.6-2.1,1.6h-1.8c0.2-1.4,1.4-3.1,3.8-3.1c3.3,0,3.8,2,3.8,3.8v3.8
					C25.5,557.2,25.6,558,25.6,558.5z M23.7,553c-0.2,0.6-0.6,1.1-2.4,1.4c-1.3,0.3-2.1,0.6-2.1,1.5c0,0.8,0.7,1.4,1.8,1.4
					c1.3,0,2.6-0.8,2.6-3.1V553z"/>
				<path d="M31.7,557v1.5h-0.9c-2,0-2.7-1.2-2.7-2.7v-5.1h-1.4v-1.5h1.4V547l1.8-0.8v3h1.8v1.5h-1.8v4.9c0,0.9,0.4,1.4,1.2,1.4
					H31.7z"/>
				<path d="M41.2,558.5h-1.9c0-0.4,0-0.8,0-1.2v-0.4h0c-0.3,0.7-1,1.9-3,1.9c-2.2,0-3.3-1.4-3.3-2.8c0-2.6,3.2-2.8,4.6-3
					c1.2-0.2,1.7-0.5,1.7-1.3s-0.7-1.3-2-1.3c-1.1,0-1.9,0.6-2.1,1.6h-1.8c0.2-1.4,1.4-3.1,3.8-3.1c3.3,0,3.8,2,3.8,3.8v3.8
					C41.1,557.2,41.1,558,41.2,558.5z M39.3,553c-0.2,0.6-0.6,1.1-2.4,1.4c-1.3,0.3-2.1,0.6-2.1,1.5c0,0.8,0.7,1.4,1.8,1.4
					c1.3,0,2.6-0.8,2.6-3.1V553z"/>
			</g>
			<g class="st3">
				<path d="M46.4,550.4c-0.8,0-1.6,0.5-1.6,1.2c0,0.7,0.6,1.1,1.5,1.3c0.4,0.1,0.8,0.2,1.2,0.3c1.5,0.4,2.8,1.1,2.8,2.6
					c0,1.9-1.9,2.9-3.7,2.9c-1.7,0-3.7-0.8-3.9-3.1h1.8c0.2,1.1,0.9,1.6,2.1,1.6c0.9,0,1.9-0.3,1.9-1.3c0-0.8-0.7-1-1.6-1.2
					c-0.4-0.1-0.9-0.2-1.3-0.3c-1.4-0.4-2.6-1.2-2.6-2.6c0-1.7,1.7-2.8,3.5-2.8c1.9,0,3.5,1,3.7,3h-1.8
					C48.2,550.9,47.3,550.4,46.4,550.4z"/>
			</g>
			<g class="st3">
				<path d="M60.5,554.3h-7.2c0.1,1.8,1.3,2.9,2.8,2.9c1.2,0,2.1-0.5,2.4-1.5h1.8c-0.5,1.9-2.1,3-4.2,3c-2.8,0-4.6-2-4.6-4.9
					c0-2.8,1.9-4.8,4.6-4.8c3.2,0,4.4,2.5,4.4,5.1V554.3z M58.6,553c-0.1-1.5-1-2.5-2.6-2.5c-1.6,0-2.6,1-2.8,2.5H58.6z"/>
			</g>
			<g class="st3">
				<path d="M66.3,557v1.5h-0.9c-2,0-2.7-1.2-2.7-2.7v-5.1h-1.4v-1.5h1.4V547l1.8-0.8v3h1.8v1.5h-1.8v4.9c0,0.9,0.4,1.4,1.2,1.4
					H66.3z"/>
				<path d="M72,549.2h1.8v5.6c0,1.5,0.6,2.3,1.9,2.3c1.3,0,2.4-1.1,2.4-3.5v-4.4H80v9.3h-1.8v-1.7c-0.5,1.1-1.4,1.9-2.8,1.9
					c-2.4,0-3.3-1.6-3.3-3.6V549.2z"/>
				<path d="M91.5,553.8c0,2.9-1.7,4.9-4.3,4.9c-1.6,0-2.7-1.1-3.1-1.9h0v5.3h-1.9v-12.9h1.9v1.8h0c0.3-0.9,1.4-2,3.1-2
					C89.8,548.9,91.5,550.9,91.5,553.8z M89.6,553.8c0-1.9-1-3.3-2.8-3.3c-1.9,0-2.8,1.6-2.8,3.3c0,1.8,0.9,3.4,2.8,3.4
					C88.7,557.2,89.6,555.7,89.6,553.8z"/>
				<path d="M101.9,545.6v12.9H100v-1.7h0c-0.3,0.9-1.4,1.9-3.1,1.9c-2.6,0-4.3-2-4.3-4.9s1.7-4.9,4.3-4.9c1.7,0,2.8,1.1,3.1,2h0
					v-5.3H101.9z M100.1,553.8c0-1.7-0.9-3.3-2.8-3.3c-1.8,0-2.8,1.4-2.8,3.3c0,1.9,1,3.4,2.8,3.4
					C99.2,557.2,100.1,555.6,100.1,553.8z"/>
				<path d="M111.9,558.5H110c0-0.4,0-0.8,0-1.2v-0.4h0c-0.3,0.7-1,1.9-3,1.9c-2.2,0-3.3-1.4-3.3-2.8c0-2.6,3.2-2.8,4.6-3
					c1.2-0.2,1.7-0.5,1.7-1.3s-0.7-1.3-2-1.3c-1.1,0-1.9,0.6-2.1,1.6h-1.8c0.2-1.4,1.4-3.1,3.8-3.1c3.3,0,3.8,2,3.8,3.8v3.8
					C111.8,557.2,111.8,558,111.9,558.5z M110,553c-0.2,0.6-0.6,1.1-2.4,1.4c-1.3,0.3-2.1,0.6-2.1,1.5c0,0.8,0.7,1.4,1.8,1.4
					c1.3,0,2.6-0.8,2.6-3.1V553z"/>
			</g>
			<g class="st3">
				<path d="M118,557v1.5h-0.9c-2,0-2.7-1.2-2.7-2.7v-5.1H113v-1.5h1.4V547l1.8-0.8v3h1.8v1.5h-1.8v4.9c0,0.9,0.4,1.4,1.2,1.4H118z"
					/>
			</g>
			<g class="st3">
				<path d="M128.1,554.3h-7.2c0.1,1.8,1.3,2.9,2.8,2.9c1.2,0,2.1-0.5,2.4-1.5h1.8c-0.5,1.9-2.1,3-4.2,3c-2.8,0-4.6-2-4.6-4.9
					c0-2.8,1.9-4.8,4.6-4.8c3.2,0,4.4,2.5,4.4,5.1V554.3z M126.3,553c-0.1-1.5-1-2.5-2.6-2.5c-1.6,0-2.6,1-2.8,2.5H126.3z"/>
				<path d="M132.9,549.2h1.9l1.4,5.3c0.2,0.7,0.3,1.4,0.5,2.1h0c0.2-0.7,0.3-1.4,0.5-2.1l1.4-5.2h2.3l1.4,5.2
					c0.2,0.7,0.3,1.4,0.5,2.1h0c0.2-0.7,0.3-1.4,0.5-2.1l1.3-5.2h1.9l-2.7,9.3h-2.1l-1.5-5.5l-0.5-1.9h0c-0.1,0.6-0.3,1.2-0.5,1.9
					l-1.5,5.5h-2.1L132.9,549.2z"/>
			</g>
			<g class="st3">
				<path d="M147.7,549.2h1.9v9.3h-1.9V549.2z M147.8,547.6v-1.9h1.9v1.9H147.8z"/>
			</g>
			<g class="st3">
				<path d="M156,557v1.5h-0.9c-2,0-2.7-1.2-2.7-2.7v-5.1H151v-1.5h1.4V547l1.8-0.8v3h1.8v1.5h-1.8v4.9c0,0.9,0.4,1.4,1.2,1.4H156z"
					/>
			</g>
			<g class="st3">
				<path d="M157.5,545.6h1.8v5.2c0.5-1.1,1.4-1.9,2.8-1.9c2.4,0,3.3,1.6,3.3,3.6v5.9h-1.8v-5.6c0-1.5-0.6-2.3-1.9-2.3
					c-1.3,0-2.4,1.1-2.4,3.5v4.4h-1.9V545.6z"/>
				<path d="M173.6,545.6v12.9h-1.9v-12.9H173.6z"/>
				<path d="M183.7,558.5h-1.9c0-0.4,0-0.8,0-1.2v-0.4h0c-0.3,0.7-1,1.9-3,1.9c-2.2,0-3.3-1.4-3.3-2.8c0-2.6,3.2-2.8,4.6-3
					c1.2-0.2,1.7-0.5,1.7-1.3s-0.7-1.3-2-1.3c-1.1,0-1.9,0.6-2.1,1.6h-1.8c0.2-1.4,1.4-3.1,3.8-3.1c3.3,0,3.8,2,3.8,3.8v3.8
					C183.5,557.2,183.6,558,183.7,558.5z M181.7,553c-0.2,0.6-0.6,1.1-2.4,1.4c-1.3,0.3-2.1,0.6-2.1,1.5c0,0.8,0.7,1.4,1.8,1.4
					c1.3,0,2.6-0.8,2.6-3.1V553z"/>
				<path d="M189.8,557v1.5h-0.9c-2,0-2.7-1.2-2.7-2.7v-5.1h-1.4v-1.5h1.4V547l1.8-0.8v3h1.8v1.5h-1.8v4.9c0,0.9,0.4,1.4,1.2,1.4
					H189.8z"/>
			</g>
			<g class="st3">
				<path d="M27.4,576.8h-1.9c0-0.4,0-0.8,0-1.2v-0.4h0c-0.3,0.7-1,1.9-3,1.9c-2.2,0-3.3-1.4-3.3-2.8c0-2.6,3.2-2.8,4.6-3
					c1.2-0.2,1.7-0.5,1.7-1.3s-0.7-1.3-2-1.3c-1.1,0-1.9,0.6-2.1,1.6h-1.8c0.2-1.4,1.4-3.1,3.8-3.1c3.3,0,3.8,2,3.8,3.8v3.8
					C27.2,575.5,27.3,576.3,27.4,576.8z M25.4,571.3c-0.2,0.6-0.6,1.1-2.4,1.4c-1.3,0.3-2.1,0.6-2.1,1.5c0,0.8,0.7,1.4,1.8,1.4
					c1.3,0,2.6-0.8,2.6-3.1V571.3z"/>
				<path d="M29.4,567.5h1.8v1.7c0.5-1.1,1.4-1.9,2.8-1.9c2.4,0,3.3,1.6,3.3,3.6v5.9h-1.8v-5.6c0-1.5-0.6-2.3-1.9-2.3
					c-1.3,0-2.4,1.1-2.4,3.5v4.4h-1.9V567.5z"/>
				<path d="M48.3,563.9v12.9h-1.9v-1.7h0c-0.3,0.9-1.4,1.9-3.1,1.9c-2.6,0-4.3-2-4.3-4.9s1.7-4.9,4.3-4.9c1.7,0,2.8,1.1,3.1,2h0
					v-5.3H48.3z M46.5,572.1c0-1.7-0.9-3.3-2.8-3.3c-1.8,0-2.8,1.4-2.8,3.3c0,1.9,1,3.4,2.8,3.4C45.6,575.5,46.5,573.9,46.5,572.1z"
					/>
				<path d="M56.5,563.9v12.9h-1.9v-12.9H56.5z"/>
				<path d="M58.7,567.5h1.8v1.7c0.5-1.1,1.4-1.9,2.8-1.9c2.4,0,3.3,1.6,3.3,3.6v5.9h-1.8v-5.6c0-1.5-0.6-2.3-1.9-2.3
					c-1.3,0-2.4,1.1-2.4,3.5v4.4h-1.9V567.5z"/>
				<path d="M77.6,567.5v8.5c0,2.9-2.1,4.3-4.4,4.3c-2.4,0-4.2-1.2-4.4-3.2h1.8c0.2,1.2,1.1,1.7,2.5,1.7c1.5,0,2.6-0.8,2.6-2.7V575
					h0c-0.4,1.1-1.3,1.9-3,1.9c-2.6,0-4.3-2-4.3-4.8c0-2.8,1.7-4.8,4.3-4.8c1.7,0,2.7,1,3,1.8h0v-1.6H77.6z M73,575.4
					c2.1,0,2.8-1.9,2.8-3.3c0-1.4-0.9-3.3-2.8-3.3s-2.8,1.6-2.8,3.3C70.2,573.8,71.1,575.4,73,575.4z"/>
				<path d="M88.1,577c-2.8,0-4.8-2-4.8-4.9c0-2.9,2-4.9,4.8-4.9c2.3,0,3.8,1.3,4.1,3.1h-1.8c-0.3-0.9-1-1.6-2.4-1.6
					c-1.8,0-3,1.5-3,3.4c0,1.9,1.2,3.4,3,3.4c1.2,0,2.1-0.6,2.4-1.7h1.8C91.9,575.9,90.4,577,88.1,577z"/>
				<path d="M93.6,572.1c0-2.8,1.9-4.9,4.7-4.9c2.8,0,4.7,2.1,4.7,4.9s-1.9,4.9-4.7,4.9C95.5,577,93.6,575,93.6,572.1z M101.2,572.1
					c0-1.9-1.2-3.4-2.9-3.4c-1.7,0-2.9,1.5-2.9,3.4c0,1.8,1.2,3.3,2.9,3.3C100,575.5,101.2,574,101.2,572.1z"/>
				<path d="M104.1,572.1c0-2.8,1.9-4.9,4.7-4.9c2.8,0,4.7,2.1,4.7,4.9s-1.9,4.9-4.7,4.9C106.1,577,104.1,575,104.1,572.1z
					 M111.8,572.1c0-1.9-1.2-3.4-2.9-3.4c-1.7,0-2.9,1.5-2.9,3.4c0,1.8,1.2,3.3,2.9,3.3C110.6,575.5,111.8,574,111.8,572.1z"/>
			</g>
			<g class="st3">
				<path d="M119.9,567.4v1.7c-0.1,0-0.5,0-0.8,0.1c-1,0.2-2,0.6-2,3.2v4.3h-1.9v-9.3h1.8v1.8C117.6,567.9,118.5,567.4,119.9,567.4z
					"/>
			</g>
			<g class="st3">
				<path d="M130,563.9v12.9h-1.9v-1.7h0c-0.3,0.9-1.4,1.9-3.1,1.9c-2.6,0-4.3-2-4.3-4.9s1.7-4.9,4.3-4.9c1.7,0,2.8,1.1,3.1,2h0
					v-5.3H130z M128.2,572.1c0-1.7-0.9-3.3-2.8-3.3c-1.8,0-2.8,1.4-2.8,3.3c0,1.9,1,3.4,2.8,3.4
					C127.3,575.5,128.2,573.9,128.2,572.1z"/>
				<path d="M132.3,567.5h1.9v9.3h-1.9V567.5z M132.3,565.9v-1.9h1.9v1.9H132.3z"/>
				<path d="M136.5,567.5h1.8v1.7c0.5-1.1,1.4-1.9,2.8-1.9c2.4,0,3.3,1.6,3.3,3.6v5.9h-1.8v-5.6c0-1.5-0.6-2.3-1.9-2.3
					c-1.3,0-2.4,1.1-2.4,3.5v4.4h-1.9V567.5z"/>
				<path d="M154.5,576.8h-1.9c0-0.4,0-0.8,0-1.2v-0.4h0c-0.3,0.7-1,1.9-3,1.9c-2.2,0-3.3-1.4-3.3-2.8c0-2.6,3.2-2.8,4.6-3
					c1.2-0.2,1.7-0.5,1.7-1.3s-0.7-1.3-2-1.3c-1.1,0-1.9,0.6-2.1,1.6h-1.8c0.2-1.4,1.4-3.1,3.8-3.1c3.3,0,3.8,2,3.8,3.8v3.8
					C154.3,575.5,154.4,576.3,154.5,576.8z M152.5,571.3c-0.2,0.6-0.6,1.1-2.4,1.4c-1.3,0.3-2.1,0.6-2.1,1.5c0,0.8,0.7,1.4,1.8,1.4
					c1.3,0,2.6-0.8,2.6-3.1V571.3z"/>
			</g>
			<g class="st3">
				<path d="M160.6,575.3v1.5h-0.9c-2,0-2.7-1.2-2.7-2.7V569h-1.4v-1.5h1.4v-2.2l1.8-0.8v3h1.8v1.5h-1.8v4.9c0,0.9,0.4,1.4,1.2,1.4
					H160.6z"/>
			</g>
			<g class="st3">
				<path d="M170.7,572.6h-7.2c0.1,1.8,1.3,2.9,2.8,2.9c1.2,0,2.1-0.5,2.4-1.5h1.8c-0.5,1.9-2.1,3-4.2,3c-2.8,0-4.6-2-4.6-4.9
					c0-2.8,1.9-4.8,4.6-4.8c3.2,0,4.4,2.5,4.4,5.1V572.6z M168.9,571.3c-0.1-1.5-1-2.5-2.6-2.5c-1.6,0-2.6,1-2.8,2.5H168.9z"/>
				<path d="M175.6,568.7c-0.8,0-1.6,0.5-1.6,1.2c0,0.7,0.6,1.1,1.5,1.3c0.4,0.1,0.8,0.2,1.2,0.3c1.5,0.4,2.8,1.1,2.8,2.6
					c0,1.9-1.9,2.9-3.7,2.9c-1.7,0-3.7-0.8-3.9-3.1h1.8c0.2,1.1,0.9,1.6,2.1,1.6c0.9,0,1.9-0.3,1.9-1.3c0-0.8-0.7-1-1.6-1.2
					c-0.4-0.1-0.9-0.2-1.3-0.3c-1.4-0.4-2.6-1.2-2.6-2.6c0-1.7,1.7-2.8,3.5-2.8c1.9,0,3.5,1,3.7,3h-1.8
					C177.4,569.2,176.5,568.7,175.6,568.7z"/>
			</g>
			<g class="st3">
				<path d="M261.2,549.4c0,3.6-2.5,6.7-6.7,6.7c-4.2,0-6.7-3.1-6.7-6.7s2.5-6.7,6.7-6.7C258.7,542.7,261.2,545.8,261.2,549.4z
					 M259.2,549.4c0-2.6-1.7-5.1-4.8-5.1c-3,0-4.7,2.4-4.7,5.1s1.7,5.1,4.7,5.1C257.5,554.5,259.2,552,259.2,549.4z"/>
				<path d="M262.9,546.5h1.8v1.7c0.5-1.1,1.4-1.9,2.8-1.9c2.4,0,3.3,1.6,3.3,3.6v5.9h-1.8v-5.6c0-1.5-0.6-2.3-1.9-2.3
					c-1.3,0-2.4,1.1-2.4,3.5v4.4h-1.9V546.5z"/>
				<path d="M275,543v12.9h-1.9V543H275z"/>
				<path d="M277.2,546.5h1.9v9.3h-1.9V546.5z M277.3,544.9V543h1.9v1.9H277.3z"/>
				<path d="M281.5,546.5h1.8v1.7c0.5-1.1,1.4-1.9,2.8-1.9c2.4,0,3.3,1.6,3.3,3.6v5.9h-1.8v-5.6c0-1.5-0.6-2.3-1.9-2.3
					c-1.3,0-2.4,1.1-2.4,3.5v4.4h-1.9V546.5z"/>
				<path d="M300.1,551.7h-7.2c0.1,1.8,1.3,2.9,2.8,2.9c1.2,0,2.1-0.5,2.4-1.5h1.8c-0.5,1.9-2.1,3-4.2,3c-2.8,0-4.6-2-4.6-4.9
					c0-2.8,1.9-4.8,4.6-4.8c3.2,0,4.4,2.5,4.4,5.1V551.7z M298.3,550.3c-0.1-1.5-1-2.5-2.6-2.5c-1.6,0-2.6,1-2.8,2.5H298.3z"/>
				<path d="M310.2,556.1c-2.8,0-4.8-2-4.8-4.9c0-2.9,2-4.9,4.8-4.9c2.3,0,3.8,1.3,4.1,3.1h-1.8c-0.3-0.9-1-1.6-2.4-1.6
					c-1.8,0-3,1.5-3,3.4c0,1.9,1.2,3.4,3,3.4c1.2,0,2.1-0.6,2.4-1.7h1.8C313.9,554.9,312.4,556.1,310.2,556.1z"/>
				<path d="M315.6,551.2c0-2.8,1.9-4.9,4.7-4.9c2.8,0,4.7,2.1,4.7,4.9s-1.9,4.9-4.7,4.9C317.5,556.1,315.6,554,315.6,551.2z
					 M323.2,551.2c0-1.9-1.2-3.4-2.9-3.4c-1.7,0-2.9,1.5-2.9,3.4c0,1.8,1.2,3.3,2.9,3.3C322.1,554.5,323.2,553,323.2,551.2z"/>
				<path d="M326.2,551.2c0-2.8,1.9-4.9,4.7-4.9s4.7,2.1,4.7,4.9s-1.9,4.9-4.7,4.9S326.2,554,326.2,551.2z M333.8,551.2
					c0-1.9-1.2-3.4-2.9-3.4c-1.7,0-2.9,1.5-2.9,3.4c0,1.8,1.2,3.3,2.9,3.3C332.6,554.5,333.8,553,333.8,551.2z"/>
			</g>
			<g class="st3">
				<path d="M341.9,546.5v1.7c-0.1,0-0.5,0-0.8,0.1c-1,0.2-2,0.6-2,3.2v4.3h-1.9v-9.3h1.8v1.8C339.6,547,340.6,546.5,341.9,546.5z"
					/>
			</g>
			<g class="st3">
				<path d="M352,543v12.9h-1.9v-1.7h0c-0.3,0.9-1.4,1.9-3.1,1.9c-2.6,0-4.3-2-4.3-4.9s1.7-4.9,4.3-4.9c1.7,0,2.8,1.1,3.1,2h0V543
					H352z M350.3,551.1c0-1.7-0.9-3.3-2.8-3.3c-1.8,0-2.8,1.4-2.8,3.3c0,1.9,1,3.4,2.8,3.4C349.4,554.5,350.3,552.9,350.3,551.1z"/>
				<path d="M354.3,546.5h1.9v9.3h-1.9V546.5z M354.3,544.9V543h1.9v1.9H354.3z"/>
				<path d="M358.6,546.5h1.8v1.7c0.5-1.1,1.4-1.9,2.8-1.9c2.4,0,3.3,1.6,3.3,3.6v5.9h-1.8v-5.6c0-1.5-0.6-2.3-1.9-2.3
					c-1.3,0-2.4,1.1-2.4,3.5v4.4h-1.9V546.5z"/>
				<path d="M376.5,555.8h-1.9c0-0.4,0-0.8,0-1.2v-0.4h0c-0.3,0.7-1,1.9-3,1.9c-2.2,0-3.3-1.4-3.3-2.8c0-2.6,3.2-2.8,4.6-3
					c1.2-0.2,1.7-0.5,1.7-1.3s-0.7-1.3-2-1.3c-1.1,0-1.9,0.6-2.1,1.6h-1.8c0.2-1.4,1.4-3.1,3.8-3.1c3.3,0,3.8,2,3.8,3.8v3.8
					C376.4,554.5,376.4,555.3,376.5,555.8z M374.6,550.4c-0.2,0.6-0.6,1.1-2.4,1.4c-1.3,0.3-2.1,0.6-2.1,1.5c0,0.8,0.7,1.4,1.8,1.4
					c1.3,0,2.6-0.8,2.6-3.1V550.4z"/>
			</g>
			<g class="st3">
				<path d="M382.6,554.3v1.5h-0.9c-2,0-2.7-1.2-2.7-2.7V548h-1.4v-1.5h1.4v-2.2l1.8-0.8v3h1.8v1.5h-1.8v4.9c0,0.9,0.4,1.4,1.2,1.4
					H382.6z"/>
			</g>
			<g class="st3">
				<path d="M392.7,551.7h-7.2c0.1,1.8,1.3,2.9,2.8,2.9c1.2,0,2.1-0.5,2.4-1.5h1.8c-0.5,1.9-2.1,3-4.2,3c-2.8,0-4.6-2-4.6-4.9
					c0-2.8,1.9-4.8,4.6-4.8c3.2,0,4.4,2.5,4.4,5.1V551.7z M390.9,550.3c-0.1-1.5-1-2.5-2.6-2.5c-1.6,0-2.6,1-2.8,2.5H390.9z"/>
				<path d="M397.6,547.8c-0.8,0-1.6,0.5-1.6,1.2c0,0.7,0.6,1.1,1.5,1.3c0.4,0.1,0.8,0.2,1.2,0.3c1.5,0.4,2.8,1.1,2.8,2.6
					c0,1.9-1.9,2.9-3.7,2.9c-1.7,0-3.7-0.8-3.9-3.1h1.8c0.2,1.1,0.9,1.6,2.1,1.6c0.9,0,1.9-0.3,1.9-1.3c0-0.8-0.7-1-1.6-1.2
					c-0.4-0.1-0.9-0.2-1.3-0.3c-1.4-0.4-2.6-1.2-2.6-2.6c0-1.7,1.7-2.8,3.5-2.8c1.9,0,3.5,1,3.7,3h-1.8
					C399.4,548.2,398.5,547.8,397.6,547.8z"/>
			</g>
		</g>
		<g class="st3">
			<path d="M292.8,574.4c-2.8,0-4.8-2-4.8-4.9c0-2.9,2-4.9,4.8-4.9c2.3,0,3.8,1.3,4.1,3.1h-1.8c-0.3-0.9-1-1.6-2.4-1.6
				c-1.8,0-3,1.5-3,3.4c0,1.9,1.2,3.4,3,3.4c1.2,0,2.1-0.6,2.4-1.7h1.8C296.5,573.2,295,574.4,292.8,574.4z"/>
			<path d="M298.2,569.5c0-2.8,1.9-4.9,4.7-4.9s4.7,2.1,4.7,4.9s-1.9,4.9-4.7,4.9S298.2,572.3,298.2,569.5z M305.9,569.5
				c0-1.9-1.2-3.4-2.9-3.4c-1.7,0-2.9,1.5-2.9,3.4c0,1.8,1.2,3.3,2.9,3.3C304.7,572.8,305.9,571.3,305.9,569.5z"/>
		</g>
		<g class="st3">
			<path d="M309.4,564.8h1.8v1.7c0.5-1.1,1.4-1.9,2.8-1.9c2.4,0,3.3,1.6,3.3,3.6v5.9h-1.8v-5.6c0-1.5-0.6-2.3-1.9-2.3
				c-1.3,0-2.4,1.1-2.4,3.5v4.4h-1.9V564.8z"/>
		</g>
		<g class="st3">
			<path d="M320.1,564.8c0.8,2.5,1.7,5,2.5,7.5h0c0.8-2.4,1.6-5,2.4-7.5h2c-1.2,3.1-2.3,6.2-3.4,9.3h-2.1c-1.2-3.1-2.3-6.2-3.4-9.3
				H320.1z"/>
		</g>
		<g class="st3">
			<path d="M336.6,570h-7.2c0.1,1.8,1.3,2.9,2.8,2.9c1.2,0,2.1-0.5,2.4-1.5h1.8c-0.5,1.9-2.1,3-4.2,3c-2.8,0-4.6-2-4.6-4.9
				c0-2.8,1.9-4.8,4.6-4.8c3.2,0,4.4,2.5,4.4,5.1V570z M334.7,568.6c-0.1-1.5-1-2.5-2.6-2.5c-1.6,0-2.6,1-2.8,2.5H334.7z"/>
		</g>
		<g class="st3">
			<path d="M343,564.8v1.7c-0.1,0-0.5,0-0.8,0.1c-1,0.2-2,0.6-2,3.2v4.3h-1.9v-9.3h1.8v1.8C340.7,565.3,341.6,564.8,343,564.8z"/>
		</g>
		<g class="st3">
			<path d="M348.9,572.6v1.5H348c-2,0-2.7-1.2-2.7-2.7v-5.1h-1.4v-1.5h1.4v-2.2l1.8-0.8v3h1.8v1.5h-1.8v4.9c0,0.9,0.4,1.4,1.2,1.4
				H348.9z"/>
		</g>
		<g class="st3">
			<path d="M359,570h-7.2c0.1,1.8,1.3,2.9,2.8,2.9c1.2,0,2.1-0.5,2.4-1.5h1.8c-0.5,1.9-2.1,3-4.2,3c-2.8,0-4.6-2-4.6-4.9
				c0-2.8,1.9-4.8,4.6-4.8c3.2,0,4.4,2.5,4.4,5.1V570z M357.2,568.6c-0.1-1.5-1-2.5-2.6-2.5c-1.6,0-2.6,1-2.8,2.5H357.2z"/>
			<path d="M365.4,564.8v1.7c-0.1,0-0.5,0-0.8,0.1c-1,0.2-2,0.6-2,3.2v4.3h-1.9v-9.3h1.8v1.8C363.1,565.3,364,564.8,365.4,564.8z"/>
		</g>
	</g>
	<g>
		<g>
			<rect x="197.2" y="294.2" class="st4" width="30" height="2"/>
		</g>
		<g>
			<path class="st4" d="M14,269h170.5c7.7,0,14,6.2,14,14v25.9c0,7.7-6.2,14-14,14H14c-7.7,0-13.9-6.2-13.9-14V283
				C0.1,275.2,6.3,269,14,269z"/>
		</g>
		<g class="st3">
			<path d="M66.6,279.7l4.6,7.8c0.5,0.9,1,1.7,1.4,2.5c0-0.9,0-1.8,0-2.8v-7.5h1.9v12.9h-2.5l-4.5-7.5c-0.5-1-1-1.9-1.5-2.6
				c0,0.9,0,1.9,0,2.9v7.2h-1.9v-12.9H66.6z"/>
		</g>
		<g class="st3">
			<path d="M85.4,288.4h-7.2c0.1,1.8,1.3,2.9,2.8,2.9c1.2,0,2.1-0.5,2.4-1.5h1.8c-0.5,1.9-2.1,3-4.2,3c-2.8,0-4.6-2-4.6-4.9
				c0-2.8,1.9-4.8,4.6-4.8c3.2,0,4.4,2.5,4.4,5.1V288.4z M83.5,287c-0.1-1.5-1-2.5-2.6-2.5c-1.6,0-2.6,1-2.8,2.5H83.5z"/>
			<path d="M91.2,291v1.5h-0.9c-2,0-2.7-1.2-2.7-2.7v-5.1h-1.4v-1.5h1.4v-2.2l1.8-0.8v3h1.8v1.5h-1.8v4.9c0,0.9,0.4,1.4,1.2,1.4
				H91.2z"/>
		</g>
		<g class="st3">
			<path d="M91.9,283.2h1.9l1.4,5.3c0.2,0.7,0.3,1.4,0.5,2.1h0c0.2-0.7,0.3-1.4,0.5-2.1l1.4-5.2h2.3l1.4,5.2
				c0.2,0.7,0.3,1.4,0.5,2.1h0c0.2-0.7,0.3-1.4,0.5-2.1l1.3-5.2h1.9l-2.7,9.3h-2.1l-1.5-5.5l-0.5-1.9h0c-0.1,0.6-0.3,1.2-0.4,1.9
				l-1.5,5.5h-2.1L91.9,283.2z"/>
		</g>
		<g class="st3">
			<path d="M106.1,287.9c0-2.8,1.9-4.9,4.7-4.9c2.8,0,4.7,2.1,4.7,4.9s-1.9,4.9-4.7,4.9C108.1,292.8,106.1,290.7,106.1,287.9z
				 M113.8,287.9c0-1.9-1.2-3.4-2.9-3.4c-1.7,0-2.9,1.5-2.9,3.4c0,1.8,1.2,3.3,2.9,3.3C112.6,291.2,113.8,289.7,113.8,287.9z"/>
		</g>
		<g class="st3">
			<path d="M121.9,283.2v1.7c-0.1,0-0.5,0-0.8,0.1c-1,0.2-2,0.6-2,3.2v4.3h-1.9v-9.3h1.8v1.8C119.6,283.7,120.5,283.2,121.9,283.2z"
				/>
		</g>
		<g class="st3">
			<path d="M126.2,288.4l-0.9,0.9v3.2h-1.9v-12.9h1.9v7.5l3.9-4h2.2l-3.9,4l4,5.3h-2.3L126.2,288.4z"/>
		</g>
		<g class="st3">
			<path d="M51.5,301.5c0.8,2.5,1.7,5,2.5,7.5h0c0.8-2.4,1.6-5,2.4-7.5h2c-1.2,3.1-2.3,6.2-3.4,9.3H53c-1.2-3.1-2.3-6.2-3.4-9.3
				H51.5z"/>
			<path d="M59.7,301.5h1.9v9.3h-1.9V301.5z M59.8,299.9V298h1.9v1.9H59.8z"/>
			<path d="M67.1,302.8c-0.8,0-1.6,0.5-1.6,1.2c0,0.7,0.6,1.1,1.5,1.3c0.4,0.1,0.8,0.2,1.2,0.3c1.5,0.4,2.8,1.1,2.8,2.6
				c0,1.9-1.9,2.9-3.7,2.9c-1.7,0-3.7-0.8-3.9-3.1h1.8c0.2,1.1,0.9,1.6,2.1,1.6c0.9,0,1.9-0.3,1.9-1.3c0-0.8-0.7-1-1.6-1.2
				c-0.4-0.1-0.9-0.2-1.3-0.3c-1.4-0.4-2.6-1.2-2.6-2.6c0-1.7,1.7-2.8,3.5-2.8c1.9,0,3.5,1,3.7,3h-1.8C69,303.2,68,302.8,67.1,302.8
				z"/>
			<path d="M72.6,301.5h1.8v5.6c0,1.5,0.6,2.3,1.9,2.3c1.3,0,2.4-1.1,2.4-3.5v-4.4h1.9v9.3h-1.8v-1.7c-0.5,1.1-1.4,1.9-2.8,1.9
				c-2.4,0-3.3-1.6-3.3-3.6V301.5z"/>
			<path d="M90.6,310.8h-1.9c0-0.4,0-0.8,0-1.2v-0.4h0c-0.3,0.7-1,1.9-3,1.9c-2.2,0-3.3-1.4-3.3-2.8c0-2.6,3.2-2.8,4.6-3
				c1.2-0.2,1.7-0.5,1.7-1.3s-0.7-1.3-2-1.3c-1.1,0-1.9,0.6-2.1,1.6h-1.8c0.2-1.4,1.4-3.1,3.8-3.1c3.3,0,3.8,2,3.8,3.8v3.8
				C90.5,309.5,90.6,310.3,90.6,310.8z M88.7,305.4c-0.2,0.6-0.6,1.1-2.4,1.4c-1.3,0.3-2.1,0.6-2.1,1.5c0,0.8,0.7,1.4,1.8,1.4
				c1.3,0,2.6-0.8,2.6-3.1V305.4z"/>
			<path d="M94.6,298v12.9h-1.9V298H94.6z"/>
		</g>
		<g class="st3">
			<path d="M96.8,301.5h1.9v9.3h-1.9V301.5z M96.9,299.9V298h1.9v1.9H96.9z"/>
		</g>
		<g class="st3">
			<path d="M105.5,303c-0.5,0-0.8,0-1.3,0h-3.5v-1.5h7.1v1.2l-5.3,6.6c0.4,0,0.8,0,1.3,0h4.2v1.5h-7.7v-1.3L105.5,303z"/>
			<path d="M117.5,310.8h-1.9c0-0.4,0-0.8,0-1.2v-0.4h0c-0.3,0.7-1,1.9-3,1.9c-2.2,0-3.3-1.4-3.3-2.8c0-2.6,3.2-2.8,4.6-3
				c1.2-0.2,1.7-0.5,1.7-1.3s-0.7-1.3-2-1.3c-1.1,0-1.9,0.6-2.1,1.6h-1.8c0.2-1.4,1.4-3.1,3.8-3.1c3.3,0,3.8,2,3.8,3.8v3.8
				C117.3,309.5,117.4,310.3,117.5,310.8z M115.5,305.4c-0.2,0.6-0.6,1.1-2.4,1.4c-1.3,0.3-2.1,0.6-2.1,1.5c0,0.8,0.7,1.4,1.8,1.4
				c1.3,0,2.6-0.8,2.6-3.1V305.4z"/>
			<path d="M123.6,309.3v1.5h-0.9c-2,0-2.7-1.2-2.7-2.7V303h-1.4v-1.5h1.4v-2.2l1.8-0.8v3h1.8v1.5h-1.8v4.9c0,0.9,0.4,1.4,1.2,1.4
				H123.6z"/>
			<path d="M125.2,301.5h1.9v9.3h-1.9V301.5z M125.3,299.9V298h1.9v1.9H125.3z"/>
			<path d="M128.9,306.2c0-2.8,1.9-4.9,4.7-4.9c2.8,0,4.7,2.1,4.7,4.9s-1.9,4.9-4.7,4.9C130.9,311.1,128.9,309,128.9,306.2z
				 M136.5,306.2c0-1.9-1.2-3.4-2.9-3.4c-1.7,0-2.9,1.5-2.9,3.4c0,1.8,1.2,3.3,2.9,3.3C135.4,309.5,136.5,308,136.5,306.2z"/>
			<path d="M140.1,301.5h1.8v1.7c0.5-1.1,1.4-1.9,2.8-1.9c2.4,0,3.3,1.6,3.3,3.6v5.9h-1.8v-5.6c0-1.5-0.6-2.3-1.9-2.3
				c-1.3,0-2.4,1.1-2.4,3.5v4.4h-1.9V301.5z"/>
		</g>
		<g>
			<ellipse class="st4" cx="325.4" cy="295.9" rx="99.9" ry="32.6"/>
		</g>
		<g class="st3">
			<path d="M311.7,295.1l-0.2,6.6h-1.4l-0.1-2.1c-0.6,1.4-1.9,2.4-4.3,2.4c-4.1,0-6.3-3.2-6.3-6.7s2.3-6.7,6.5-6.7
				c3.3,0,5,1.9,5.6,4.1h-1.9c-0.5-1.4-1.5-2.5-3.7-2.5c-3,0-4.6,2.4-4.6,5.1s1.5,5.1,4.4,5.1c2.1,0,3.9-1.1,4.1-3.8l-4,0v-1.5
				H311.7z"/>
		</g>
		<g class="st3">
			<path d="M322.2,300.1v1.6H314v-12.9h8.1v1.6H316v3.9h5.8v1.6H316v4.1H322.2z"/>
		</g>
		<g class="st3">
			<path d="M333.3,292.8c0,2.3-2,4-4.6,4h-2.4v5h-1.9v-12.9h4.4C331.5,288.8,333.3,290.5,333.3,292.8z M331.4,292.8
				c0-1.5-1-2.3-2.7-2.3h-2.3v4.6h2.2C330.3,295.1,331.4,294.2,331.4,292.8z"/>
		</g>
		<g class="st3">
			<path d="M344.9,288.8v12.9h-1.9v-5.6H337v5.6h-1.9v-12.9h1.9v5.6h5.9v-5.6H344.9z"/>
			<path d="M349.5,288.8v12.9h-1.9v-12.9H349.5z"/>
		</g>
	</g>
	<g>
		<g>
			<g>
				<rect x="197.1" y="166" class="st4" width="30.3" height="2"/>
			</g>
			<g>
				<path class="st4" d="M14,140.1h170.5c7.7,0,14,6.2,14,13.9V180c0,7.7-6.2,13.9-14,13.9H14c-7.7,0-13.9-6.2-13.9-13.9v-25.9
					C0.1,146.4,6.3,140.1,14,140.1z"/>
			</g>
			<g class="st3">
				<path d="M32.4,162.4c1.5,0,2.6-0.7,2.6-2.1c0-1.5-1.3-1.8-2.9-2.2c-2.1-0.6-4.3-1.3-4.3-3.8c0-2.5,2.1-3.7,4.4-3.7
					c2.6,0,4.3,1.3,4.6,3.9h-2c-0.2-1.5-1-2.3-2.6-2.3c-1.4,0-2.4,0.6-2.4,2c0,1.2,1.2,1.7,2.9,2.2c2.2,0.6,4.3,1.1,4.3,3.9
					c0,2.6-2.3,3.8-4.6,3.8c-2.8,0-5-1.4-5.1-4.3h2C29.4,161.5,30.6,162.4,32.4,162.4z"/>
			</g>
			<g class="st3">
				<path d="M38.9,150.8h1.8v5.2c0.5-1.1,1.4-1.9,2.8-1.9c2.4,0,3.3,1.6,3.3,3.6v5.9h-1.8v-5.6c0-1.5-0.6-2.3-1.9-2.3
					c-1.3,0-2.4,1.1-2.4,3.5v4.4h-1.9V150.8z"/>
				<path d="M57.5,159.5h-7.2c0.1,1.8,1.3,2.9,2.8,2.9c1.2,0,2.1-0.5,2.4-1.5h1.8c-0.5,1.9-2.1,3-4.2,3c-2.8,0-4.6-2-4.6-4.9
					c0-2.8,1.9-4.8,4.6-4.8c3.2,0,4.4,2.5,4.4,5.1V159.5z M55.7,158.2c-0.1-1.5-1-2.5-2.6-2.5c-1.6,0-2.6,1-2.8,2.5H55.7z"/>
			</g>
			<g class="st3">
				<path d="M67.7,159.5h-7.2c0.1,1.8,1.3,2.9,2.8,2.9c1.2,0,2.1-0.5,2.4-1.5h1.8c-0.5,1.9-2.1,3-4.2,3c-2.8,0-4.6-2-4.6-4.9
					c0-2.8,1.9-4.8,4.6-4.8c3.2,0,4.4,2.5,4.4,5.1V159.5z M65.9,158.2c-0.1-1.5-1-2.5-2.6-2.5c-1.6,0-2.6,1-2.8,2.5H65.9z"/>
			</g>
			<g class="st3">
				<path d="M73.6,162.2v1.5h-0.9c-2,0-2.7-1.2-2.7-2.7v-5.1h-1.4v-1.5h1.4v-2.2l1.8-0.8v3h1.8v1.5h-1.8v4.9c0,0.9,0.4,1.4,1.2,1.4
					H73.6z"/>
				<path d="M83.6,163.9c-2.8,0-4.8-2-4.8-4.9c0-2.9,2-4.9,4.8-4.9c2.3,0,3.8,1.3,4.1,3.1h-1.8c-0.3-0.9-1-1.6-2.4-1.6
					c-1.8,0-3,1.5-3,3.4c0,1.9,1.2,3.4,3,3.4c1.2,0,2.1-0.6,2.4-1.7h1.8C87.3,162.8,85.8,163.9,83.6,163.9z"/>
				<path d="M89,159c0-2.8,1.9-4.9,4.7-4.9c2.8,0,4.7,2.1,4.7,4.9s-1.9,4.9-4.7,4.9C90.9,163.9,89,161.9,89,159z M96.6,159
					c0-1.9-1.2-3.4-2.9-3.4c-1.7,0-2.9,1.5-2.9,3.4c0,1.8,1.2,3.3,2.9,3.3C95.5,162.4,96.6,160.9,96.6,159z"/>
			</g>
			<g class="st3">
				<path d="M100.1,154.4h1.8v1.7c0.5-1.1,1.4-1.9,2.8-1.9c2.4,0,3.3,1.6,3.3,3.6v5.9h-1.8v-5.6c0-1.5-0.6-2.3-1.9-2.3
					c-1.3,0-2.4,1.1-2.4,3.5v4.4h-1.9V154.4z"/>
			</g>
			<g class="st3">
				<path d="M110.9,154.4c0.8,2.5,1.7,5,2.5,7.5h0c0.8-2.4,1.6-5,2.4-7.5h2c-1.2,3.1-2.3,6.2-3.4,9.3h-2.1c-1.2-3.1-2.3-6.2-3.4-9.3
					H110.9z"/>
			</g>
			<g class="st3">
				<path d="M127.4,159.5h-7.2c0.1,1.8,1.3,2.9,2.8,2.9c1.2,0,2.1-0.5,2.4-1.5h1.8c-0.5,1.9-2.1,3-4.2,3c-2.8,0-4.6-2-4.6-4.9
					c0-2.8,1.9-4.8,4.6-4.8c3.2,0,4.4,2.5,4.4,5.1V159.5z M125.5,158.2c-0.1-1.5-1-2.5-2.6-2.5c-1.6,0-2.6,1-2.8,2.5H125.5z"/>
				<path d="M133.7,154.3v1.7c-0.1,0-0.5,0-0.8,0.1c-1,0.2-2,0.6-2,3.2v4.3h-1.9v-9.3h1.8v1.8C131.4,154.8,132.4,154.3,133.7,154.3z
					"/>
				<path d="M138.4,155.6c-0.8,0-1.6,0.5-1.6,1.2c0,0.7,0.6,1.1,1.5,1.3c0.4,0.1,0.8,0.2,1.2,0.3c1.5,0.4,2.8,1.1,2.8,2.6
					c0,1.9-1.9,2.9-3.7,2.9c-1.7,0-3.7-0.8-3.9-3.1h1.8c0.2,1.1,0.9,1.6,2.1,1.6c0.9,0,1.9-0.3,1.9-1.3c0-0.8-0.7-1-1.6-1.2
					c-0.4-0.1-0.9-0.2-1.3-0.3c-1.4-0.4-2.6-1.2-2.6-2.6c0-1.7,1.7-2.8,3.5-2.8c1.9,0,3.5,1,3.7,3h-1.8
					C140.3,156.1,139.3,155.6,138.4,155.6z"/>
				<path d="M144,154.4h1.9v9.3H144V154.4z M144,152.8v-1.9h1.9v1.9H144z"/>
				<path d="M147.7,159c0-2.8,1.9-4.9,4.7-4.9c2.8,0,4.7,2.1,4.7,4.9s-1.9,4.9-4.7,4.9C149.6,163.9,147.7,161.9,147.7,159z
					 M155.3,159c0-1.9-1.2-3.4-2.9-3.4c-1.7,0-2.9,1.5-2.9,3.4c0,1.8,1.2,3.3,2.9,3.3C154.1,162.4,155.3,160.9,155.3,159z"/>
				<path d="M158.8,154.4h1.8v1.7c0.5-1.1,1.4-1.9,2.8-1.9c2.4,0,3.3,1.6,3.3,3.6v5.9H165v-5.6c0-1.5-0.6-2.3-1.9-2.3
					c-1.3,0-2.4,1.1-2.4,3.5v4.4h-1.9V154.4z"/>
			</g>
			<g class="st3">
				<path d="M25,180.5v1.5h-0.9c-2,0-2.7-1.2-2.7-2.7v-5.1H20v-1.5h1.4v-2.2l1.8-0.8v3H25v1.5h-1.8v4.9c0,0.9,0.4,1.4,1.2,1.4H25z"
					/>
			</g>
			<g class="st3">
				<path d="M26.1,177.3c0-2.8,1.9-4.9,4.7-4.9c2.8,0,4.7,2.1,4.7,4.9s-1.9,4.9-4.7,4.9C28,182.2,26.1,180.2,26.1,177.3z
					 M33.7,177.3c0-1.9-1.2-3.4-2.9-3.4c-1.7,0-2.9,1.5-2.9,3.4c0,1.8,1.2,3.3,2.9,3.3C32.6,180.7,33.7,179.2,33.7,177.3z"/>
				<path d="M50.6,177.3c0,2.9-1.7,4.9-4.3,4.9c-1.6,0-2.7-1.1-3.1-1.9h0v1.7h-1.9v-12.9h1.9v5.3h0c0.3-0.9,1.4-2,3.1-2
					C48.9,172.4,50.6,174.4,50.6,177.3z M48.7,177.3c0-1.9-1-3.3-2.8-3.3c-1.9,0-2.8,1.6-2.8,3.3c0,1.8,0.9,3.4,2.8,3.4
					C47.8,180.7,48.7,179.2,48.7,177.3z"/>
				<path d="M52.3,172.7h1.9v9.3h-1.9V172.7z M52.3,171.1v-1.9h1.9v1.9H52.3z"/>
				<path d="M65.8,177.3c0,2.9-1.7,4.9-4.3,4.9c-1.6,0-2.7-1.1-3.1-1.9h0v5.3h-1.9v-12.9h1.9v1.8h0c0.3-0.9,1.4-2,3.1-2
					C64.1,172.4,65.8,174.4,65.8,177.3z M63.9,177.3c0-1.9-1-3.3-2.8-3.3c-1.9,0-2.8,1.6-2.8,3.3c0,1.8,0.9,3.4,2.8,3.4
					C63,180.7,63.9,179.2,63.9,177.3z"/>
				<path d="M75.2,182h-1.9c0-0.4,0-0.8,0-1.2v-0.4h0c-0.3,0.7-1,1.9-3,1.9c-2.2,0-3.3-1.4-3.3-2.8c0-2.6,3.2-2.8,4.6-3
					c1.2-0.2,1.7-0.5,1.7-1.3s-0.7-1.3-2-1.3c-1.1,0-1.9,0.6-2.1,1.6h-1.8c0.2-1.4,1.4-3.1,3.8-3.1c3.3,0,3.8,2,3.8,3.8v3.8
					C75.1,180.7,75.1,181.5,75.2,182z M73.3,176.5c-0.2,0.6-0.6,1.1-2.4,1.4c-1.3,0.3-2.1,0.6-2.1,1.5c0,0.8,0.7,1.4,1.8,1.4
					c1.3,0,2.6-0.8,2.6-3.1V176.5z"/>
			</g>
			<g class="st3">
				<path d="M81.9,172.6v1.7c-0.1,0-0.5,0-0.8,0.1c-1,0.2-2,0.6-2,3.2v4.3h-1.9v-9.3h1.8v1.8C79.6,173.1,80.5,172.6,81.9,172.6z"/>
			</g>
			<g class="st3">
				<path d="M87.9,180.5v1.5H87c-2,0-2.7-1.2-2.7-2.7v-5.1h-1.4v-1.5h1.4v-2.2l1.8-0.8v3h1.8v1.5H86v4.9c0,0.9,0.4,1.4,1.2,1.4H87.9
					z"/>
			</g>
			<g class="st3">
				<path d="M89.5,172.7h1.9v9.3h-1.9V172.7z M89.6,171.1v-1.9h1.9v1.9H89.6z"/>
			</g>
			<g class="st3">
				<path d="M97.9,180.5v1.5H97c-2,0-2.7-1.2-2.7-2.7v-5.1h-1.4v-1.5h1.4v-2.2l1.8-0.8v3h1.8v1.5H96v4.9c0,0.9,0.4,1.4,1.2,1.4H97.9
					z"/>
			</g>
			<g class="st3">
				<path d="M108,177.8h-7.2c0.1,1.8,1.3,2.9,2.8,2.9c1.2,0,2.1-0.5,2.4-1.5h1.8c-0.5,1.9-2.1,3-4.2,3c-2.8,0-4.6-2-4.6-4.9
					c0-2.8,1.9-4.8,4.6-4.8c3.2,0,4.4,2.5,4.4,5.1V177.8z M106.1,176.5c-0.1-1.5-1-2.5-2.6-2.5c-1.6,0-2.6,1-2.8,2.5H106.1z"/>
				<path d="M113.8,172.7h1.8v1.7c0.5-1.1,1.4-1.9,2.8-1.9c2.4,0,3.3,1.6,3.3,3.6v5.9h-1.8v-5.6c0-1.5-0.6-2.3-1.9-2.3
					c-1.3,0-2.4,1.1-2.4,3.5v4.4h-1.9V172.7z"/>
			</g>
			<g class="st3">
				<path d="M132.4,177.8h-7.2c0.1,1.8,1.3,2.9,2.8,2.9c1.2,0,2.1-0.5,2.4-1.5h1.8c-0.5,1.9-2.1,3-4.2,3c-2.8,0-4.6-2-4.6-4.9
					c0-2.8,1.9-4.8,4.6-4.8c3.2,0,4.4,2.5,4.4,5.1V177.8z M130.6,176.5c-0.1-1.5-1-2.5-2.6-2.5c-1.6,0-2.6,1-2.8,2.5H130.6z"/>
				<path d="M138.2,180.5v1.5h-0.9c-2,0-2.7-1.2-2.7-2.7v-5.1h-1.4v-1.5h1.4v-2.2l1.8-0.8v3h1.8v1.5h-1.8v4.9c0,0.9,0.4,1.4,1.2,1.4
					H138.2z"/>
			</g>
			<g class="st3">
				<path d="M139,172.7h1.9l1.4,5.3c0.2,0.7,0.3,1.4,0.5,2.1h0c0.2-0.7,0.3-1.4,0.5-2.1l1.4-5.2h2.3l1.4,5.2
					c0.2,0.7,0.3,1.4,0.5,2.1h0c0.2-0.7,0.3-1.4,0.5-2.1l1.3-5.2h1.9l-2.7,9.3h-2.1l-1.5-5.5l-0.5-1.9h0c-0.1,0.6-0.3,1.2-0.4,1.9
					l-1.5,5.5h-2.1L139,172.7z"/>
			</g>
			<g class="st3">
				<path d="M153.1,177.3c0-2.8,1.9-4.9,4.7-4.9c2.8,0,4.7,2.1,4.7,4.9s-1.9,4.9-4.7,4.9C155.1,182.2,153.1,180.2,153.1,177.3z
					 M160.8,177.3c0-1.9-1.2-3.4-2.9-3.4c-1.7,0-2.9,1.5-2.9,3.4c0,1.8,1.2,3.3,2.9,3.3C159.6,180.7,160.8,179.2,160.8,177.3z"/>
			</g>
			<g class="st3">
				<path d="M168.9,172.6v1.7c-0.1,0-0.5,0-0.8,0.1c-1,0.2-2,0.6-2,3.2v4.3h-1.9v-9.3h1.8v1.8C166.6,173.1,167.5,172.6,168.9,172.6z
					"/>
			</g>
			<g class="st3">
				<path d="M173.2,177.9l-0.9,0.9v3.2h-1.9v-12.9h1.9v7.5l3.9-4h2.2l-3.9,4l4,5.3h-2.3L173.2,177.9z"/>
			</g>
			<g>
				<ellipse class="st4" cx="326" cy="167" rx="99.9" ry="32.6"/>
			</g>
			<g class="st3">
				<path d="M286.2,162.3h-3.9v11.2h-1.9v-11.2h-3.9v-1.6h9.7V162.3z"/>
			</g>
			<g class="st3">
				<path d="M293.7,169.8h-5.2l-1.3,3.6h-2l4.8-12.9h2.4l4.8,12.9h-2L293.7,169.8z M289,168.3h4.1l-2.1-5.9h0L289,168.3z"/>
			</g>
			<g class="st3">
				<path d="M298.7,160.6h4.6c2.3,0,4,1.2,4,3.4c0,1.4-0.7,2.3-2.1,2.9v0c1.5,0.3,2.6,1.2,2.6,2.9c0,2.5-1.8,3.6-4.6,3.6h-4.5V160.6
					z M303,166.2c1.5,0,2.4-0.7,2.4-2.1c0-1.4-0.9-1.9-2.4-1.9h-2.4v3.9H303z M303.4,171.9c1.5,0,2.5-0.7,2.5-2.1c0-1.3-1-2-2.4-2
					h-2.8v4.1H303.4z"/>
			</g>
			<g class="st3">
				<path d="M318.1,171.8v1.6h-8.1v-12.9h1.9v11.2H318.1z"/>
			</g>
			<g class="st3">
				<path d="M328,171.8v1.6h-8.2v-12.9h8.1v1.6h-6.2v3.9h5.8v1.6h-5.8v4.1H328z"/>
			</g>
			<g class="st3">
				<path d="M338.5,171.9v1.6h-8.8c0.1-2.8,1.9-4.2,3.8-5.5c2.1-1.4,3-2.1,3-3.6c0-1.2-0.8-2.3-2.3-2.3c-1.6,0-2.4,1.2-2.4,2.7h-1.8
					c0-2.7,1.7-4.2,4.4-4.2c2.4,0,4.1,1.5,4.1,3.7c0,2.2-1,3.1-2.6,4.2c-1.5,1.2-3.1,2-3.6,3.4H338.5z"/>
				<path d="M343.2,160.6l4.6,7.8c0.5,0.9,1,1.7,1.4,2.5c0-0.9,0-1.8,0-2.8v-7.5h1.9v12.9h-2.5l-4.5-7.5c-0.5-1-1-1.9-1.5-2.6
					c0,0.9,0,1.9,0,2.9v7.2h-1.9v-12.9H343.2z"/>
			</g>
		</g>
		<g class="st3">
			<path d="M362.1,171.8v1.6h-8.2v-12.9h8.1v1.6h-6.2v3.9h5.8v1.6h-5.8v4.1H362.1z"/>
		</g>
		<g class="st3">
			<path d="M373.1,162.3h-3.9v11.2h-1.9v-11.2h-3.9v-1.6h9.7V162.3z"/>
		</g>
	</g>
	<g>
		<g>
			<rect x="0.1" y="67.2" width="198.4" height="53.8"/>
		</g>
		<g class="st3">
			<path class="st4" d="M24.4,77.9h8v1.6h-6.1v3.9h5.6V85h-5.6v5.7h-1.9V77.9z"/>
		</g>
		<g class="st3">
			<path class="st4" d="M34,81.4h1.9v9.3H34V81.4z M34.1,79.8v-1.9H36v1.9H34.1z"/>
			<path class="st4" d="M38.3,81.4h1.8v1.7c0.5-1.1,1.4-1.9,2.8-1.9c2.4,0,3.3,1.6,3.3,3.6v5.9h-1.8v-5.6c0-1.5-0.6-2.3-1.9-2.3
				c-1.3,0-2.4,1.1-2.4,3.5v4.4h-1.9V81.4z"/>
			<path class="st4" d="M56.2,90.8h-1.9c0-0.4,0-0.8,0-1.2v-0.4h0c-0.3,0.7-1,1.9-3,1.9c-2.2,0-3.3-1.4-3.3-2.8c0-2.6,3.2-2.8,4.6-3
				c1.2-0.2,1.7-0.5,1.7-1.3s-0.7-1.3-2-1.3c-1.1,0-1.9,0.6-2.1,1.6h-1.8c0.2-1.4,1.4-3.1,3.8-3.1c3.3,0,3.8,2,3.8,3.8v3.8
				C56.1,89.4,56.1,90.2,56.2,90.8z M54.3,85.3c-0.2,0.6-0.6,1.1-2.4,1.4c-1.3,0.3-2.1,0.6-2.1,1.5c0,0.8,0.7,1.4,1.8,1.4
				c1.3,0,2.6-0.8,2.6-3.1V85.3z"/>
			<path class="st4" d="M60.1,77.9v12.9h-1.9V77.9H60.1z"/>
			<path class="st4" d="M70.8,77.8c2.6,0,3.8,1.4,4.2,3.2h-1.8c-0.3-0.8-0.6-1.7-2.3-1.7c-2.1,0-2.8,2.2-2.9,4.2
				c0.6-0.8,1.7-1.4,3.2-1.4c2.5,0,4.2,1.9,4.2,4.4c0,2.6-2,4.4-4.6,4.4c-1.4,0-2.6-0.6-3.5-1.5c-0.9-1.1-1.2-2.7-1.2-4.8
				C66.1,81.2,67.3,77.8,70.8,77.8z M70.8,89.4c1.6,0,2.8-1.3,2.8-2.8c0-1.6-1.2-2.9-2.8-2.9c-1.6,0-2.7,1.2-2.7,2.9
				C68.1,88.2,69.2,89.4,70.8,89.4z"/>
			<path class="st4" d="M81.7,77.8c2.6,0,3.8,1.4,4.2,3.2h-1.8c-0.3-0.8-0.6-1.7-2.3-1.7c-2.1,0-2.8,2.2-2.9,4.2
				c0.6-0.8,1.7-1.4,3.2-1.4c2.5,0,4.2,1.9,4.2,4.4c0,2.6-2,4.4-4.6,4.4c-1.4,0-2.6-0.6-3.5-1.5c-0.9-1.1-1.2-2.7-1.2-4.8
				C77,81.2,78.2,77.8,81.7,77.8z M81.7,89.4c1.6,0,2.8-1.3,2.8-2.8c0-1.6-1.2-2.9-2.8-2.9c-1.6,0-2.7,1.2-2.7,2.9
				C79,88.2,80.1,89.4,81.7,89.4z"/>
		</g>
		<g class="st3">
			<path class="st4" d="M97.1,87.2c0,2.3-1.9,3.7-4.5,3.7c-2.7,0-4.7-1.4-4.6-3.7c0-1.8,1.3-3,2.5-3.3c-1.2-0.4-2-1.4-2-2.9
				c0-1.9,1.7-3.2,4.1-3.2c2.4,0,4.1,1.3,4.1,3.2c0,1.5-0.8,2.6-2,2.9C95.8,84.3,97.1,85.5,97.1,87.2z M95.2,87.1
				c0-1.3-0.9-2.3-2.7-2.3c-1.8,0-2.8,1.1-2.8,2.4c0,1.3,1,2.4,2.8,2.4C94.3,89.5,95.2,88.4,95.2,87.1z M90.2,81.3
				c0,1.1,0.9,2,2.3,2s2.3-1,2.3-2s-0.8-2-2.3-2C91.1,79.3,90.2,80.2,90.2,81.3z"/>
		</g>
		<g class="st3">
			<path class="st4" d="M103.2,77.8c2.3,0,3.8,1.3,3.8,3.3c0,1.4-0.5,2.2-1.5,2.8c1.4,0.5,2.1,1.5,2.1,3.2c0,2.2-1.6,3.9-4.4,3.9
				c-2.6,0-4.2-1.4-4.5-3.7V87h1.9v0.1c0.1,1.5,1.1,2.3,2.6,2.3c1.6,0,2.6-1.1,2.6-2.4c0-1.6-1.3-2.2-2.9-2.2h-0.6v-1.7
				c0.3,0,0.5,0,0.8,0c1.2-0.1,2-0.6,2-1.8c0-1.2-0.8-1.9-2-1.9c-1.3,0-1.9,0.7-2.1,1.7l0,0.3h-1.8C99.4,79.2,100.8,77.8,103.2,77.8
				z"/>
			<path class="st4" d="M113.5,81.4h1.9v9.3h-1.9V81.4z M113.5,79.8v-1.9h1.9v1.9H113.5z"/>
			<path class="st4" d="M117.7,81.4h1.8V83c0.2-0.9,1.1-1.8,2.4-1.8c1.4,0,2.3,0.6,2.7,1.8c0.6-1.2,1.4-1.8,2.6-1.8
				c2.3,0,3.3,1.6,3.3,3.6v5.9h-1.8v-5.6c0-1.5-0.6-2.3-1.7-2.3c-1.2,0-2,1.2-2,3.4v4.5h-1.8v-5.6c0-1.5-0.4-2.3-1.7-2.3
				c-1.6,0-2,1.6-2,3.5v4.4h-1.9V81.4z"/>
			<path class="st4" d="M140.6,90.8h-1.9c0-0.4,0-0.8,0-1.2v-0.4h0c-0.3,0.7-1,1.9-3,1.9c-2.2,0-3.3-1.4-3.3-2.8
				c0-2.6,3.2-2.8,4.6-3c1.2-0.2,1.7-0.5,1.7-1.3s-0.7-1.3-2-1.3c-1.1,0-1.9,0.6-2.1,1.6h-1.8c0.2-1.4,1.4-3.1,3.8-3.1
				c3.3,0,3.8,2,3.8,3.8v3.8C140.4,89.4,140.5,90.2,140.6,90.8z M138.6,85.3c-0.2,0.6-0.6,1.1-2.4,1.4c-1.3,0.3-2.1,0.6-2.1,1.5
				c0,0.8,0.7,1.4,1.8,1.4c1.3,0,2.6-0.8,2.6-3.1V85.3z"/>
			<path class="st4" d="M151.3,81.4v8.5c0,2.9-2.1,4.3-4.4,4.3c-2.4,0-4.2-1.2-4.4-3.2h1.8c0.2,1.2,1.1,1.7,2.5,1.7
				c1.5,0,2.6-0.8,2.6-2.7v-1.1h0c-0.4,1.1-1.3,1.9-3,1.9c-2.6,0-4.3-2-4.3-4.8c0-2.8,1.7-4.8,4.3-4.8c1.7,0,2.7,1,3,1.8h0v-1.6
				H151.3z M146.7,89.3c2.1,0,2.8-1.9,2.8-3.3c0-1.4-0.9-3.3-2.8-3.3s-2.8,1.6-2.8,3.3C143.9,87.8,144.8,89.3,146.7,89.3z"/>
			<path class="st4" d="M162,86.6h-7.2c0.1,1.8,1.3,2.9,2.8,2.9c1.2,0,2.1-0.5,2.4-1.5h1.8c-0.5,1.9-2.1,3-4.2,3
				c-2.8,0-4.6-2-4.6-4.9c0-2.8,1.9-4.8,4.6-4.8c3.2,0,4.4,2.5,4.4,5.1V86.6z M160.2,85.2c-0.1-1.5-1-2.5-2.6-2.5
				c-1.6,0-2.6,1-2.8,2.5H160.2z"/>
			<path class="st4" d="M166.9,82.7c-0.8,0-1.6,0.5-1.6,1.2c0,0.7,0.6,1.1,1.5,1.3c0.4,0.1,0.8,0.2,1.2,0.3c1.5,0.4,2.8,1.1,2.8,2.6
				c0,1.9-1.9,2.9-3.7,2.9c-1.7,0-3.7-0.8-3.9-3.1h1.8c0.2,1.1,0.9,1.6,2.1,1.6c0.9,0,1.9-0.3,1.9-1.3c0-0.8-0.7-1-1.6-1.2
				c-0.4-0.1-0.9-0.2-1.3-0.3c-1.4-0.4-2.6-1.2-2.6-2.6c0-1.7,1.7-2.8,3.5-2.8c1.9,0,3.5,1,3.7,3h-1.8
				C168.7,83.1,167.8,82.7,166.9,82.7z"/>
		</g>
		<g class="st3">
			<path class="st4" d="M51.5,96.2v12.9h-1.9v-1.7h0c-0.3,0.9-1.4,1.9-3.1,1.9c-2.6,0-4.3-2-4.3-4.9s1.7-4.9,4.3-4.9
				c1.7,0,2.8,1.1,3.1,2h0v-5.3H51.5z M49.7,104.4c0-1.7-0.9-3.3-2.8-3.3c-1.8,0-2.8,1.4-2.8,3.3c0,1.9,1,3.4,2.8,3.4
				C48.8,107.7,49.7,106.1,49.7,104.4z"/>
			<path class="st4" d="M61.5,109.1h-1.9c0-0.4,0-0.8,0-1.2v-0.4h0c-0.3,0.7-1,1.9-3,1.9c-2.2,0-3.3-1.4-3.3-2.8
				c0-2.6,3.2-2.8,4.6-3c1.2-0.2,1.7-0.5,1.7-1.3s-0.7-1.3-2-1.3c-1.1,0-1.9,0.6-2.1,1.6h-1.8c0.2-1.4,1.4-3.1,3.8-3.1
				c3.3,0,3.8,2,3.8,3.8v3.8C61.4,107.7,61.4,108.5,61.5,109.1z M59.6,103.6c-0.2,0.6-0.6,1.1-2.4,1.4c-1.3,0.3-2.1,0.6-2.1,1.5
				c0,0.8,0.7,1.4,1.8,1.4c1.3,0,2.6-0.8,2.6-3.1V103.6z"/>
			<path class="st4" d="M67.6,107.6v1.5h-0.9c-2,0-2.7-1.2-2.7-2.7v-5.1h-1.4v-1.5H64v-2.2l1.8-0.8v3h1.8v1.5h-1.8v4.9
				c0,0.9,0.4,1.4,1.2,1.4H67.6z"/>
			<path class="st4" d="M77.1,109.1h-1.9c0-0.4,0-0.8,0-1.2v-0.4h0c-0.3,0.7-1,1.9-3,1.9c-2.2,0-3.3-1.4-3.3-2.8
				c0-2.6,3.2-2.8,4.6-3c1.2-0.2,1.7-0.5,1.7-1.3s-0.7-1.3-2-1.3c-1.1,0-1.9,0.6-2.1,1.6h-1.8c0.2-1.4,1.4-3.1,3.8-3.1
				c3.3,0,3.8,2,3.8,3.8v3.8C76.9,107.7,77,108.5,77.1,109.1z M75.1,103.6c-0.2,0.6-0.6,1.1-2.4,1.4c-1.3,0.3-2.1,0.6-2.1,1.5
				c0,0.8,0.7,1.4,1.8,1.4c1.3,0,2.6-0.8,2.6-3.1V103.6z"/>
		</g>
		<g class="st3">
			<path class="st4" d="M82.3,101c-0.8,0-1.6,0.5-1.6,1.2c0,0.7,0.6,1.1,1.5,1.3c0.4,0.1,0.8,0.2,1.2,0.3c1.5,0.4,2.8,1.1,2.8,2.6
				c0,1.9-1.9,2.9-3.7,2.9c-1.7,0-3.7-0.8-3.9-3.1h1.8c0.2,1.1,0.9,1.6,2.1,1.6c0.9,0,1.9-0.3,1.9-1.3c0-0.8-0.7-1-1.6-1.2
				c-0.4-0.1-0.9-0.2-1.3-0.3c-1.4-0.4-2.6-1.2-2.6-2.6c0-1.7,1.7-2.8,3.5-2.8c1.9,0,3.5,1,3.7,3h-1.8C84.1,101.4,83.2,101,82.3,101
				z"/>
		</g>
		<g class="st3">
			<path class="st4" d="M96.3,104.9h-7.2c0.1,1.8,1.3,2.9,2.8,2.9c1.2,0,2.1-0.5,2.4-1.5h1.8c-0.5,1.9-2.1,3-4.2,3
				c-2.8,0-4.6-2-4.6-4.9c0-2.8,1.9-4.8,4.6-4.8c3.2,0,4.4,2.5,4.4,5.1V104.9z M94.5,103.5c-0.1-1.5-1-2.5-2.6-2.5
				c-1.6,0-2.6,1-2.8,2.5H94.5z"/>
		</g>
		<g class="st3">
			<path class="st4" d="M102.2,107.6v1.5h-0.9c-2,0-2.7-1.2-2.7-2.7v-5.1h-1.4v-1.5h1.4v-2.2l1.8-0.8v3h1.8v1.5h-1.8v4.9
				c0,0.9,0.4,1.4,1.2,1.4H102.2z"/>
			<path class="st4" d="M116.6,103.7v1.5H113v3.6h-1.7v-3.6h-3.5v-1.5h3.5V100h1.7v3.6H116.6z"/>
			<path class="st4" d="M126.8,107.6v1.5h-0.9c-2,0-2.7-1.2-2.7-2.7v-5.1h-1.4v-1.5h1.4v-2.2l1.8-0.8v3h1.8v1.5H125v4.9
				c0,0.9,0.4,1.4,1.2,1.4H126.8z"/>
			<path class="st4" d="M136.3,109.1h-1.9c0-0.4,0-0.8,0-1.2v-0.4h0c-0.3,0.7-1,1.9-3,1.9c-2.2,0-3.3-1.4-3.3-2.8
				c0-2.6,3.2-2.8,4.6-3c1.2-0.2,1.7-0.5,1.7-1.3s-0.7-1.3-2-1.3c-1.1,0-1.9,0.6-2.1,1.6h-1.8c0.2-1.4,1.4-3.1,3.8-3.1
				c3.3,0,3.8,2,3.8,3.8v3.8C136.1,107.7,136.2,108.5,136.3,109.1z M134.3,103.6c-0.2,0.6-0.6,1.1-2.4,1.4c-1.3,0.3-2.1,0.6-2.1,1.5
				c0,0.8,0.7,1.4,1.8,1.4c1.3,0,2.6-0.8,2.6-3.1V103.6z"/>
			<path class="st4" d="M147,99.7v8.5c0,2.9-2.1,4.3-4.4,4.3c-2.4,0-4.2-1.2-4.4-3.2h1.8c0.2,1.2,1.1,1.7,2.5,1.7
				c1.5,0,2.6-0.8,2.6-2.7v-1.1h0c-0.4,1.1-1.3,1.9-3,1.9c-2.6,0-4.3-2-4.3-4.8c0-2.8,1.7-4.8,4.3-4.8c1.7,0,2.7,1,3,1.8h0v-1.6H147
				z M142.4,107.6c2.1,0,2.8-1.9,2.8-3.3c0-1.4-0.9-3.3-2.8-3.3s-2.8,1.6-2.8,3.3C139.6,106.1,140.5,107.6,142.4,107.6z"/>
			<path class="st4" d="M152.4,101c-0.8,0-1.6,0.5-1.6,1.2c0,0.7,0.6,1.1,1.5,1.3c0.4,0.1,0.8,0.2,1.2,0.3c1.5,0.4,2.8,1.1,2.8,2.6
				c0,1.9-1.9,2.9-3.7,2.9c-1.7,0-3.7-0.8-3.9-3.1h1.8c0.2,1.1,0.9,1.6,2.1,1.6c0.9,0,1.9-0.3,1.9-1.3c0-0.8-0.7-1-1.6-1.2
				c-0.4-0.1-0.9-0.2-1.3-0.3c-1.4-0.4-2.6-1.2-2.6-2.6c0-1.7,1.7-2.8,3.5-2.8c1.9,0,3.5,1,3.7,3h-1.8
				C154.2,101.4,153.3,101,152.4,101z"/>
		</g>
		<g class="st3">
			<path d="M226.9,78.2h3.1c2,0,3,1.1,3,2.4c0,1.2-0.8,2-1.8,2.2c0.8,0.2,1.1,0.9,1.4,1.9c0.2,0.8,0.4,1.3,0.7,1.9v0.1h-1.4
				c-0.3-0.6-0.5-1.3-0.7-2c-0.3-0.8-0.7-1.4-1.7-1.4h-1.4v3.4h-1.3V78.2z M230,82.3c1.1,0,1.7-0.6,1.7-1.6c0-0.8-0.4-1.4-1.8-1.4
				h-1.7v3H230z"/>
		</g>
		<g class="st3">
			<path d="M234,83.7c0-1.9,1.3-3.3,3.2-3.3c1.9,0,3.1,1.4,3.1,3.3c0,1.9-1.3,3.3-3.1,3.3C235.3,86.9,234,85.6,234,83.7z M239,83.7
				c0-1.2-0.8-2.2-1.9-2.2c-1.2,0-1.9,1-1.9,2.2c0,1.2,0.8,2.2,1.9,2.2C238.3,85.9,239,84.9,239,83.7z"/>
		</g>
		<g class="st3">
			<path d="M240.7,80.6h1.3l0.9,3.5c0.1,0.5,0.2,0.9,0.3,1.4h0c0.1-0.5,0.2-0.9,0.3-1.4l0.9-3.5h1.5l0.9,3.5c0.1,0.5,0.2,1,0.3,1.4
				h0c0.1-0.5,0.2-0.9,0.3-1.4l0.9-3.5h1.3l-1.8,6.2h-1.4l-1-3.6l-0.3-1.3h0c-0.1,0.4-0.2,0.8-0.3,1.3l-1,3.6h-1.4L240.7,80.6z"/>
			<path d="M251.9,81.2v1.5h-1.4v-1.5H251.9z M251.9,85.3v1.5h-1.4v-1.5H251.9z"/>
			<path d="M258.2,81.4c-0.6,0-1.1,0.3-1.1,0.8c0,0.5,0.4,0.7,1,0.9c0.3,0.1,0.6,0.1,0.8,0.2c1,0.3,1.8,0.7,1.8,1.7
				c0,1.3-1.3,1.9-2.5,1.9c-1.2,0-2.4-0.5-2.6-2h1.2c0.1,0.7,0.6,1,1.4,1c0.6,0,1.2-0.2,1.2-0.9c0-0.5-0.5-0.7-1-0.8
				c-0.3-0.1-0.6-0.1-0.9-0.2c-1-0.2-1.7-0.8-1.7-1.8c0-1.2,1.2-1.8,2.3-1.8c1.3,0,2.3,0.7,2.4,2h-1.2
				C259.4,81.7,258.8,81.4,258.2,81.4z"/>
			<path d="M261.9,80.6h1.2v6.2h-1.2V80.6z M261.9,79.5v-1.3h1.3v1.3H261.9z"/>
			<path d="M264.7,80.6h1.2v1.1c0.3-0.7,0.9-1.3,1.9-1.3c1.6,0,2.2,1.1,2.2,2.4v3.9h-1.2v-3.7c0-1-0.4-1.6-1.2-1.6
				c-0.9,0-1.6,0.8-1.6,2.3v3h-1.2V80.6z"/>
			<path d="M277.3,80.6v5.7c0,1.9-1.4,2.9-3,2.9c-1.6,0-2.8-0.8-2.9-2.1h1.2c0.1,0.8,0.8,1.1,1.7,1.1c1,0,1.7-0.5,1.7-1.8v-0.7h0
				c-0.3,0.7-0.9,1.3-2,1.3c-1.7,0-2.9-1.3-2.9-3.2c0-1.9,1.1-3.2,2.9-3.2c1.2,0,1.8,0.6,2,1.2h0v-1.1H277.3z M274.2,85.8
				c1.4,0,1.9-1.2,1.9-2.2c0-0.9-0.6-2.2-1.9-2.2s-1.9,1-1.9,2.2C272.3,84.8,272.9,85.8,274.2,85.8z"/>
			<path d="M280,78.2v8.6h-1.2v-8.6H280z"/>
			<path d="M287.2,84h-4.8c0.1,1.2,0.8,1.9,1.9,1.9c0.8,0,1.4-0.3,1.6-1h1.2c-0.3,1.3-1.4,2-2.8,2c-1.8,0-3.1-1.3-3.1-3.3
				c0-1.9,1.3-3.2,3.1-3.2c2.1,0,2.9,1.7,2.9,3.4V84z M285.9,83.1c-0.1-1-0.6-1.7-1.7-1.7c-1.1,0-1.7,0.7-1.9,1.7H285.9z"/>
			<path d="M291,80.6h1.2v6.2H291V80.6z M291.1,79.5v-1.3h1.3v1.3H291.1z"/>
			<path d="M293.9,80.6h1.2v1c0.1-0.6,0.7-1.2,1.6-1.2c1,0,1.5,0.4,1.8,1.2c0.4-0.8,0.9-1.2,1.8-1.2c1.5,0,2.2,1.1,2.2,2.4v3.9h-1.2
				v-3.7c0-1-0.4-1.6-1.1-1.6c-0.8,0-1.3,0.8-1.3,2.3v3h-1.2v-3.7c0-1-0.3-1.6-1.1-1.6c-1.1,0-1.3,1.1-1.3,2.3v3h-1.2V80.6z"/>
			<path d="M309.1,86.8h-1.3c0-0.3,0-0.5,0-0.8v-0.3h0c-0.2,0.5-0.7,1.2-2,1.2c-1.4,0-2.2-0.9-2.2-1.8c0-1.7,2.2-1.8,3.1-2
				c0.8-0.1,1.1-0.3,1.1-0.8s-0.5-0.9-1.3-0.9c-0.7,0-1.2,0.4-1.4,1.1h-1.2c0.1-0.9,0.9-2.1,2.6-2.1c2.2,0,2.6,1.4,2.6,2.5v2.5
				C309,85.9,309,86.5,309.1,86.8z M307.8,83.2c-0.1,0.4-0.4,0.7-1.6,0.9c-0.9,0.2-1.4,0.4-1.4,1c0,0.5,0.5,0.9,1.2,0.9
				c0.9,0,1.8-0.6,1.8-2.1V83.2z"/>
			<path d="M316.3,80.6v5.7c0,1.9-1.4,2.9-3,2.9c-1.6,0-2.8-0.8-2.9-2.1h1.2c0.1,0.8,0.8,1.1,1.7,1.1c1,0,1.7-0.5,1.7-1.8v-0.7h0
				c-0.3,0.7-0.9,1.3-2,1.3c-1.7,0-2.9-1.3-2.9-3.2c0-1.9,1.1-3.2,2.9-3.2c1.2,0,1.8,0.6,2,1.2h0v-1.1H316.3z M313.2,85.8
				c1.4,0,1.9-1.2,1.9-2.2c0-0.9-0.6-2.2-1.9-2.2s-1.9,1-1.9,2.2C311.3,84.8,311.9,85.8,313.2,85.8z"/>
			<path d="M323.4,84h-4.8c0.1,1.2,0.8,1.9,1.9,1.9c0.8,0,1.4-0.3,1.6-1h1.2c-0.3,1.3-1.4,2-2.8,2c-1.8,0-3.1-1.3-3.1-3.3
				c0-1.9,1.3-3.2,3.1-3.2c2.1,0,2.9,1.7,2.9,3.4V84z M322.2,83.1c-0.1-1-0.6-1.7-1.7-1.7c-1.1,0-1.7,0.7-1.9,1.7H322.2z"/>
			<path d="M330.7,87c-2.3,0-3.3-1.5-3.3-3.4v-5.4h1.3v5.4c0,1.2,0.6,2.3,2,2.3c1.4,0,2-1,2-2.3v-5.4h1.3v5.4
				C333.9,85.5,332.9,87,330.7,87z"/>
			<path d="M335.7,78.2h3.1c2,0,3,1.1,3,2.4c0,1.2-0.8,2-1.8,2.2c0.8,0.2,1.1,0.9,1.4,1.9c0.2,0.8,0.4,1.3,0.7,1.9v0.1h-1.4
				c-0.3-0.6-0.5-1.3-0.7-2c-0.3-0.8-0.7-1.4-1.7-1.4H337v3.4h-1.3V78.2z M338.8,82.3c1.1,0,1.7-0.6,1.7-1.6c0-0.8-0.4-1.4-1.8-1.4
				H337v3H338.8z"/>
			<path d="M348.9,85.7v1.1h-5.4v-8.6h1.3v7.5H348.9z"/>
		</g>
		<g class="st3">
			<path d="M230.8,98.9c-2.7,0-4.4-2-4.4-4.4c0-2.5,1.6-4.4,4.4-4.4c2.1,0,3.4,1.1,3.9,2.7h-1.3c-0.5-1.1-1.2-1.6-2.6-1.6
				c-2,0-3.1,1.5-3.1,3.3c0,1.8,1.1,3.3,3.1,3.3c1.4,0,2.3-0.7,2.6-1.6h1.3C234.4,97.7,233,98.9,230.8,98.9z"/>
			<path d="M235.7,95.7c0-1.9,1.3-3.3,3.2-3.3s3.1,1.4,3.1,3.3c0,1.9-1.3,3.3-3.1,3.3S235.7,97.6,235.7,95.7z M240.8,95.7
				c0-1.2-0.8-2.2-1.9-2.2c-1.2,0-1.9,1-1.9,2.2c0,1.2,0.8,2.2,1.9,2.2C240,97.9,240.8,96.9,240.8,95.7z"/>
			<path d="M244.4,90.2v8.6h-1.2v-8.6H244.4z"/>
			<path d="M245.8,92.6h1.2v3.7c0,1,0.4,1.6,1.2,1.6c0.9,0,1.6-0.8,1.6-2.3v-3h1.2v6.2h-1.2v-1.1c-0.3,0.7-0.9,1.3-1.9,1.3
				c-1.6,0-2.2-1.1-2.2-2.4V92.6z"/>
			<path d="M252.7,92.6h1.2v1c0.1-0.6,0.7-1.2,1.6-1.2c1,0,1.5,0.4,1.8,1.2c0.4-0.8,0.9-1.2,1.8-1.2c1.5,0,2.2,1.1,2.2,2.4v3.9H260
				v-3.7c0-1-0.4-1.6-1.1-1.6c-0.8,0-1.3,0.8-1.3,2.3v3h-1.2v-3.7c0-1-0.3-1.6-1.1-1.6c-1.1,0-1.3,1.1-1.3,2.3v3h-1.2V92.6z"/>
			<path d="M262.7,92.6h1.2v1.1c0.3-0.7,0.9-1.3,1.9-1.3c1.6,0,2.2,1.1,2.2,2.4v3.9h-1.2v-3.7c0-1-0.4-1.6-1.2-1.6
				c-0.9,0-1.6,0.8-1.6,2.3v3h-1.2V92.6z"/>
			<path d="M271.6,93.4c-0.6,0-1.1,0.3-1.1,0.8c0,0.5,0.4,0.7,1,0.9c0.3,0.1,0.6,0.1,0.8,0.2c1,0.3,1.8,0.7,1.8,1.7
				c0,1.3-1.3,1.9-2.5,1.9c-1.2,0-2.4-0.5-2.6-2h1.2c0.1,0.7,0.6,1,1.4,1c0.6,0,1.2-0.2,1.2-0.9c0-0.5-0.5-0.7-1-0.8
				c-0.3-0.1-0.6-0.1-0.9-0.2c-1-0.2-1.7-0.8-1.7-1.8c0-1.2,1.2-1.8,2.3-1.8c1.3,0,2.3,0.7,2.4,2h-1.2
				C272.8,93.7,272.2,93.4,271.6,93.4z"/>
			<path d="M276.6,93.2v1.5h-1.4v-1.5H276.6z M276.6,97.3v1.5h-1.4v-1.5H276.6z"/>
		</g>
		<g class="st3">
			<path d="M282.4,92.1v0.5h1v1h-1v5.2h-1.2v-5.2h-0.9v-1h0.9V92c0-1,0.5-1.8,1.7-1.8h0.7v1h-0.4C282.7,91.2,282.4,91.4,282.4,92.1z
				"/>
		</g>
		<g class="st3">
			<path d="M289.5,98.8h-1.3c0-0.3,0-0.5,0-0.8v-0.3h0c-0.2,0.5-0.7,1.2-2,1.2c-1.4,0-2.2-0.9-2.2-1.8c0-1.7,2.2-1.8,3.1-2
				c0.8-0.1,1.1-0.3,1.1-0.8s-0.5-0.9-1.3-0.9c-0.7,0-1.2,0.4-1.4,1.1h-1.2c0.1-0.9,0.9-2.1,2.6-2.1c2.2,0,2.6,1.4,2.6,2.5v2.5
				C289.4,97.9,289.4,98.5,289.5,98.8z M288.2,95.2c-0.1,0.4-0.4,0.7-1.6,0.9c-0.9,0.2-1.4,0.4-1.4,1c0,0.5,0.5,0.9,1.2,0.9
				c0.9,0,1.8-0.6,1.8-2.1V95.2z"/>
		</g>
		<g class="st3">
			<path d="M293.7,98.9c-1.9,0-3.2-1.3-3.2-3.3c0-1.9,1.3-3.3,3.2-3.3c1.6,0,2.5,0.9,2.8,2.1h-1.2c-0.2-0.6-0.7-1.1-1.6-1.1
				c-1.2,0-2,1-2,2.3c0,1.3,0.8,2.2,2,2.2c0.8,0,1.4-0.4,1.6-1.1h1.2C296.2,98.2,295.2,98.9,293.7,98.9z"/>
		</g>
		<g class="st3">
			<path d="M300.4,97.8v1h-0.6c-1.3,0-1.8-0.8-1.8-1.8v-3.4H297v-1h0.9v-1.4l1.2-0.5v2h1.2v1h-1.2v3.3c0,0.6,0.3,0.9,0.8,0.9H300.4z
				"/>
		</g>
		<g class="st3">
			<path d="M301.1,95.7c0-1.9,1.3-3.3,3.2-3.3c1.9,0,3.1,1.4,3.1,3.3c0,1.9-1.3,3.3-3.1,3.3C302.4,98.9,301.1,97.6,301.1,95.7z
				 M306.2,95.7c0-1.2-0.8-2.2-1.9-2.2c-1.2,0-1.9,1-1.9,2.2c0,1.2,0.8,2.2,1.9,2.2C305.4,97.9,306.2,96.9,306.2,95.7z"/>
		</g>
		<g class="st3">
			<path d="M311.6,92.6v1.2c-0.1,0-0.3,0-0.5,0.1c-0.7,0.1-1.3,0.4-1.3,2.1v2.9h-1.2v-6.2h1.2v1.2C310.1,92.9,310.7,92.6,311.6,92.6
				z"/>
		</g>
		<g class="st3">
			<path d="M313.5,92.6c0.6,1.7,1.2,3.3,1.8,4.9h0c0.5-1.6,1.1-3.3,1.6-4.9h1.3c-1.2,3.3-1.5,4-2.8,7.4c-0.3,0.7-0.7,1.2-1.6,1.2
				H313v-1h0.7c0.6,0,0.7-0.3,0.8-0.7l0.2-0.5c-0.9-2.2-1.7-4.3-2.5-6.4H313.5z"/>
		</g>
		<g class="st3">
			<path d="M319.9,97.3l-0.9,3h-1.1l0.6-3H319.9z"/>
			<path d="M326.7,98.9c-1.9,0-3.2-1.3-3.2-3.3c0-1.9,1.3-3.3,3.2-3.3c1.6,0,2.5,0.9,2.8,2.1h-1.2c-0.2-0.6-0.7-1.1-1.6-1.1
				c-1.2,0-2,1-2,2.3c0,1.3,0.8,2.2,2,2.2c0.8,0,1.4-0.4,1.6-1.1h1.2C329.2,98.2,328.2,98.9,326.7,98.9z"/>
		</g>
		<g class="st3">
			<path d="M330.7,92.6h1.2v6.2h-1.2V92.6z M330.7,91.5v-1.3h1.3v1.3H330.7z"/>
		</g>
		<g class="st3">
			<path d="M336.2,97.8v1h-0.6c-1.3,0-1.8-0.8-1.8-1.8v-3.4h-0.9v-1h0.9v-1.4l1.2-0.5v2h1.2v1H335v3.3c0,0.6,0.3,0.9,0.8,0.9H336.2z
				"/>
		</g>
		<g class="st3">
			<path d="M338.1,92.6c0.6,1.7,1.2,3.3,1.8,4.9h0c0.5-1.6,1.1-3.3,1.6-4.9h1.3c-1.2,3.3-1.5,4-2.8,7.4c-0.3,0.7-0.7,1.2-1.6,1.2
				h-0.9v-1h0.7c0.6,0,0.7-0.3,0.8-0.7l0.2-0.5c-0.9-2.2-1.7-4.3-2.5-6.4H338.1z"/>
		</g>
		<g class="st3">
			<path d="M344.5,97.3l-0.9,3h-1.1l0.6-3H344.5z"/>
			<path d="M351.3,98.9c-1.9,0-3.2-1.3-3.2-3.3c0-1.9,1.3-3.3,3.2-3.3c1.6,0,2.5,0.9,2.8,2.1h-1.2c-0.2-0.6-0.7-1.1-1.6-1.1
				c-1.2,0-2,1-2,2.3c0,1.3,0.8,2.2,2,2.2c0.8,0,1.4-0.4,1.6-1.1h1.2C353.8,98.2,352.8,98.9,351.3,98.9z"/>
			<path d="M354.9,95.7c0-1.9,1.3-3.3,3.2-3.3s3.1,1.4,3.1,3.3c0,1.9-1.3,3.3-3.1,3.3S354.9,97.6,354.9,95.7z M360,95.7
				c0-1.2-0.8-2.2-1.9-2.2c-1.2,0-1.9,1-1.9,2.2c0,1.2,0.8,2.2,1.9,2.2C359.3,97.9,360,96.9,360,95.7z"/>
			<path d="M362.3,92.6h1.2v3.7c0,1,0.4,1.6,1.2,1.6c0.9,0,1.6-0.8,1.6-2.3v-3h1.2v6.2h-1.2v-1.1c-0.3,0.7-0.9,1.3-1.9,1.3
				c-1.6,0-2.2-1.1-2.2-2.4V92.6z"/>
			<path d="M369.2,92.6h1.2v1.1c0.3-0.7,0.9-1.3,1.9-1.3c1.6,0,2.2,1.1,2.2,2.4v3.9h-1.2v-3.7c0-1-0.4-1.6-1.2-1.6
				c-0.9,0-1.6,0.8-1.6,2.3v3h-1.2V92.6z"/>
		</g>
		<g class="st3">
			<path d="M378.6,97.8v1H378c-1.3,0-1.8-0.8-1.8-1.8v-3.4h-0.9v-1h0.9v-1.4l1.2-0.5v2h1.2v1h-1.2v3.3c0,0.6,0.3,0.9,0.8,0.9H378.6z
				"/>
		</g>
		<g class="st3">
			<path d="M382.7,92.6v1.2c-0.1,0-0.3,0-0.5,0.1c-0.7,0.1-1.3,0.4-1.3,2.1v2.9h-1.2v-6.2h1.2v1.2C381.2,92.9,381.8,92.6,382.7,92.6
				z"/>
		</g>
		<g class="st3">
			<path d="M384.6,92.6c0.6,1.7,1.2,3.3,1.8,4.9h0c0.5-1.6,1.1-3.3,1.6-4.9h1.3c-1.2,3.3-1.5,4-2.8,7.4c-0.3,0.7-0.7,1.2-1.6,1.2
				h-0.9v-1h0.7c0.6,0,0.7-0.3,0.8-0.7l0.2-0.5c-0.9-2.2-1.7-4.3-2.5-6.4H384.6z"/>
		</g>
		<g class="st3">
			<path d="M391,97.3l-0.9,3H389l0.6-3H391z"/>
		</g>
		<g class="st3">
			<path d="M232,110.8h-1.3c0-0.3,0-0.5,0-0.8v-0.3h0c-0.2,0.5-0.7,1.2-2,1.2c-1.4,0-2.2-0.9-2.2-1.8c0-1.7,2.2-1.8,3.1-2
				c0.8-0.1,1.1-0.3,1.1-0.8s-0.5-0.9-1.3-0.9c-0.7,0-1.2,0.4-1.4,1.1h-1.2c0.1-0.9,0.9-2.1,2.6-2.1c2.2,0,2.6,1.4,2.6,2.5v2.5
				C231.9,109.9,231.9,110.5,232,110.8z M230.7,107.2c-0.1,0.4-0.4,0.7-1.6,0.9c-0.9,0.2-1.4,0.4-1.4,1c0,0.5,0.5,0.9,1.2,0.9
				c0.9,0,1.8-0.6,1.8-2.1V107.2z"/>
			<path d="M239.1,102.2v8.6h-1.3v-1.2h0c-0.2,0.6-0.9,1.3-2.1,1.3c-1.7,0-2.9-1.3-2.9-3.3c0-1.9,1.1-3.2,2.9-3.2
				c1.1,0,1.8,0.7,2.1,1.3h0v-3.5H239.1z M237.9,107.7c0-1.2-0.6-2.2-1.9-2.2c-1.2,0-1.9,0.9-1.9,2.2c0,1.3,0.6,2.2,1.9,2.2
				C237.3,109.9,237.9,108.8,237.9,107.7z"/>
			<path d="M246.4,102.2v8.6h-1.3v-1.2h0c-0.2,0.6-0.9,1.3-2.1,1.3c-1.7,0-2.9-1.3-2.9-3.3c0-1.9,1.1-3.2,2.9-3.2
				c1.1,0,1.8,0.7,2.1,1.3h0v-3.5H246.4z M245.3,107.7c0-1.2-0.6-2.2-1.9-2.2c-1.2,0-1.9,0.9-1.9,2.2c0,1.3,0.6,2.2,1.9,2.2
				C244.7,109.9,245.3,108.8,245.3,107.7z"/>
		</g>
		<g class="st3">
			<path d="M251,104.6v1.2c-0.1,0-0.3,0-0.5,0.1c-0.7,0.1-1.3,0.4-1.3,2.1v2.9H248v-6.2h1.2v1.2C249.5,104.9,250.1,104.6,251,104.6z
				"/>
		</g>
		<g class="st3">
			<path d="M257.6,108h-4.8c0.1,1.2,0.8,1.9,1.9,1.9c0.8,0,1.4-0.3,1.6-1h1.2c-0.3,1.3-1.4,2-2.8,2c-1.8,0-3.1-1.3-3.1-3.3
				c0-1.9,1.3-3.2,3.1-3.2c2.1,0,2.9,1.7,2.9,3.4V108z M256.4,107.1c-0.1-1-0.6-1.7-1.7-1.7c-1.1,0-1.7,0.7-1.9,1.7H256.4z"/>
			<path d="M260.9,105.4c-0.6,0-1.1,0.3-1.1,0.8c0,0.5,0.4,0.7,1,0.9c0.3,0.1,0.6,0.1,0.8,0.2c1,0.3,1.8,0.7,1.8,1.7
				c0,1.3-1.3,1.9-2.5,1.9c-1.2,0-2.4-0.5-2.6-2h1.2c0.1,0.7,0.6,1,1.4,1c0.6,0,1.2-0.2,1.2-0.9c0-0.5-0.5-0.7-1-0.8
				c-0.3-0.1-0.6-0.1-0.9-0.2c-1-0.2-1.7-0.8-1.7-1.8c0-1.2,1.2-1.8,2.3-1.8c1.3,0,2.3,0.7,2.4,2h-1.2
				C262.1,105.7,261.5,105.4,260.9,105.4z"/>
		</g>
		<g class="st3">
			<path d="M266.7,105.4c-0.6,0-1.1,0.3-1.1,0.8c0,0.5,0.4,0.7,1,0.9c0.3,0.1,0.6,0.1,0.8,0.2c1,0.3,1.8,0.7,1.8,1.7
				c0,1.3-1.3,1.9-2.5,1.9c-1.2,0-2.4-0.5-2.6-2h1.2c0.1,0.7,0.6,1,1.4,1c0.6,0,1.2-0.2,1.2-0.9c0-0.5-0.5-0.7-1-0.8
				c-0.3-0.1-0.6-0.1-0.9-0.2c-1-0.2-1.7-0.8-1.7-1.8c0-1.2,1.2-1.8,2.3-1.8c1.3,0,2.3,0.7,2.4,2H268
				C267.9,105.7,267.3,105.4,266.7,105.4z"/>
		</g>
		<g class="st3">
			<path d="M272,109.3l-0.9,3H270l0.6-3H272z"/>
			<path d="M278.8,110.9c-1.9,0-3.2-1.3-3.2-3.3c0-1.9,1.3-3.3,3.2-3.3c1.6,0,2.5,0.9,2.8,2.1h-1.2c-0.2-0.6-0.7-1.1-1.6-1.1
				c-1.2,0-2,1-2,2.3c0,1.3,0.8,2.2,2,2.2c0.8,0,1.4-0.4,1.6-1.1h1.2C281.3,110.2,280.3,110.9,278.8,110.9z"/>
			<path d="M282.5,107.7c0-1.9,1.3-3.3,3.2-3.3s3.1,1.4,3.1,3.3c0,1.9-1.3,3.3-3.1,3.3S282.5,109.6,282.5,107.7z M287.6,107.7
				c0-1.2-0.8-2.2-1.9-2.2c-1.2,0-1.9,1-1.9,2.2c0,1.2,0.8,2.2,1.9,2.2C286.8,109.9,287.6,108.9,287.6,107.7z"/>
			<path d="M291.1,102.2v8.6h-1.2v-8.6H291.1z"/>
			<path d="M292.6,104.6h1.2v3.7c0,1,0.4,1.6,1.2,1.6c0.9,0,1.6-0.8,1.6-2.3v-3h1.2v6.2h-1.2v-1.1c-0.3,0.7-0.9,1.3-1.9,1.3
				c-1.6,0-2.2-1.1-2.2-2.4V104.6z"/>
			<path d="M299.4,104.6h1.2v1c0.1-0.6,0.7-1.2,1.6-1.2c1,0,1.5,0.4,1.8,1.2c0.4-0.8,0.9-1.2,1.8-1.2c1.5,0,2.2,1.1,2.2,2.4v3.9
				h-1.2v-3.7c0-1-0.4-1.6-1.1-1.6c-0.8,0-1.3,0.8-1.3,2.3v3h-1.2v-3.7c0-1-0.3-1.6-1.1-1.6c-1.1,0-1.3,1.1-1.3,2.3v3h-1.2V104.6z"
				/>
		</g>
		<g class="st3">
			<path d="M309.5,104.6h1.2v1.1c0.3-0.7,0.9-1.3,1.9-1.3c1.6,0,2.2,1.1,2.2,2.4v3.9h-1.2v-3.7c0-1-0.4-1.6-1.2-1.6
				c-0.9,0-1.6,0.8-1.6,2.3v3h-1.2V104.6z"/>
		</g>
		<g class="st3">
			<path d="M315.6,102.4l1.3,0.5v-1.3h0.7v1.3l1.3-0.5l0.3,0.7l-1.3,0.5l0.7,1.1l-0.6,0.4l-0.8-1.1l-0.8,1.1l-0.6-0.4l0.8-1.1
				l-1.3-0.4L315.6,102.4z"/>
		</g>
		<g class="st3">
			<path d="M323.1,109.8v1h-0.6c-1.3,0-1.8-0.8-1.8-1.8v-3.4h-0.9v-1h0.9v-1.4l1.2-0.5v2h1.2v1h-1.2v3.3c0,0.6,0.3,0.9,0.8,0.9
				H323.1z"/>
			<path d="M329.4,110.8h-1.3c0-0.3,0-0.5,0-0.8v-0.3h0c-0.2,0.5-0.7,1.2-2,1.2c-1.4,0-2.2-0.9-2.2-1.8c0-1.7,2.2-1.8,3.1-2
				c0.8-0.1,1.1-0.3,1.1-0.8s-0.5-0.9-1.3-0.9c-0.7,0-1.2,0.4-1.4,1.1h-1.2c0.1-0.9,0.9-2.1,2.6-2.1c2.2,0,2.6,1.4,2.6,2.5v2.5
				C329.3,109.9,329.3,110.5,329.4,110.8z M328.1,107.2c-0.1,0.4-0.4,0.7-1.6,0.9c-0.9,0.2-1.4,0.4-1.4,1c0,0.5,0.5,0.9,1.2,0.9
				c0.9,0,1.8-0.6,1.8-2.1V107.2z"/>
			<path d="M336.5,104.6v5.7c0,1.9-1.4,2.9-3,2.9c-1.6,0-2.8-0.8-2.9-2.1h1.2c0.1,0.8,0.8,1.1,1.7,1.1c1,0,1.7-0.5,1.7-1.8v-0.7h0
				c-0.3,0.7-0.9,1.3-2,1.3c-1.7,0-2.9-1.3-2.9-3.2c0-1.9,1.1-3.2,2.9-3.2c1.2,0,1.8,0.6,2,1.2h0v-1.1H336.5z M333.5,109.8
				c1.4,0,1.9-1.2,1.9-2.2c0-0.9-0.6-2.2-1.9-2.2s-1.9,1-1.9,2.2C331.6,108.8,332.2,109.8,333.5,109.8z"/>
			<path d="M340.1,105.4c-0.6,0-1.1,0.3-1.1,0.8c0,0.5,0.4,0.7,1,0.9c0.3,0.1,0.6,0.1,0.8,0.2c1,0.3,1.8,0.7,1.8,1.7
				c0,1.3-1.3,1.9-2.5,1.9c-1.2,0-2.4-0.5-2.6-2h1.2c0.1,0.7,0.6,1,1.4,1c0.6,0,1.2-0.2,1.2-0.9c0-0.5-0.5-0.7-1-0.8
				c-0.3-0.1-0.6-0.1-0.9-0.2c-1-0.2-1.7-0.8-1.7-1.8c0-1.2,1.2-1.8,2.3-1.8c1.3,0,2.3,0.7,2.4,2h-1.2
				C341.4,105.7,340.7,105.4,340.1,105.4z"/>
			<path d="M346.6,104.6h1.2v1.1c0.3-0.7,0.9-1.3,1.9-1.3c1.6,0,2.2,1.1,2.2,2.4v3.9h-1.2v-3.7c0-1-0.4-1.6-1.2-1.6
				c-0.9,0-1.6,0.8-1.6,2.3v3h-1.2V104.6z"/>
			<path d="M353.3,104.6h1.2v3.7c0,1,0.4,1.6,1.2,1.6c0.9,0,1.6-0.8,1.6-2.3v-3h1.2v6.2h-1.2v-1.1c-0.3,0.7-0.9,1.3-1.9,1.3
				c-1.6,0-2.2-1.1-2.2-2.4V104.6z"/>
			<path d="M360.1,104.6h1.2v1c0.1-0.6,0.7-1.2,1.6-1.2c1,0,1.5,0.4,1.8,1.2c0.4-0.8,0.9-1.2,1.8-1.2c1.5,0,2.2,1.1,2.2,2.4v3.9
				h-1.2v-3.7c0-1-0.4-1.6-1.1-1.6c-0.8,0-1.3,0.8-1.3,2.3v3h-1.2v-3.7c0-1-0.3-1.6-1.1-1.6c-1.1,0-1.3,1.1-1.3,2.3v3h-1.2V104.6z"
				/>
			<path d="M376.3,107.7c0,1.9-1.1,3.3-2.9,3.3c-1.1,0-1.8-0.7-2.1-1.3h0v1.2h-1.2v-8.6h1.2v3.5h0c0.2-0.6,0.9-1.3,2.1-1.3
				C375.2,104.4,376.3,105.7,376.3,107.7z M375.1,107.7c0-1.3-0.7-2.2-1.9-2.2c-1.3,0-1.9,1.1-1.9,2.2c0,1.2,0.6,2.2,1.9,2.2
				C374.5,109.9,375.1,109,375.1,107.7z"/>
			<path d="M383.1,108h-4.8c0.1,1.2,0.8,1.9,1.9,1.9c0.8,0,1.4-0.3,1.6-1h1.2c-0.3,1.3-1.4,2-2.8,2c-1.8,0-3.1-1.3-3.1-3.3
				c0-1.9,1.3-3.2,3.1-3.2c2.1,0,2.9,1.7,2.9,3.4V108z M381.9,107.1c-0.1-1-0.6-1.7-1.7-1.7c-1.1,0-1.7,0.7-1.9,1.7H381.9z"/>
			<path d="M387.4,104.6v1.2c-0.1,0-0.3,0-0.5,0.1c-0.7,0.1-1.3,0.4-1.3,2.1v2.9h-1.2v-6.2h1.2v1.2
				C385.8,104.9,386.4,104.6,387.4,104.6z"/>
		</g>
	</g>
	<g>
		<g>
			<rect x="34.2" y="213.1" width="130" height="36.8"/>
		</g>
		<g class="st3">
			<path class="st4" d="M82.3,234.4v2.2h-2.1v-2.2H82.3z"/>
			<path class="st4" d="M93.2,227.3v8.5c0,2.9-2.1,4.3-4.4,4.3c-2.4,0-4.2-1.2-4.4-3.2h1.8c0.2,1.2,1.1,1.7,2.5,1.7
				c1.5,0,2.6-0.8,2.6-2.7v-1.1h0c-0.4,1.1-1.3,1.9-3,1.9c-2.6,0-4.3-2-4.3-4.8c0-2.8,1.7-4.8,4.3-4.8c1.7,0,2.7,1,3,1.8h0v-1.6
				H93.2z M88.6,235.2c2.1,0,2.8-1.9,2.8-3.3c0-1.4-0.9-3.3-2.8-3.3s-2.8,1.6-2.8,3.3C85.8,233.6,86.7,235.2,88.6,235.2z"/>
		</g>
		<g class="st3">
			<path class="st4" d="M103.9,232.5h-7.2c0.1,1.8,1.3,2.9,2.8,2.9c1.2,0,2.1-0.5,2.4-1.5h1.8c-0.5,1.9-2.1,3-4.2,3
				c-2.8,0-4.6-2-4.6-4.9c0-2.8,1.9-4.8,4.6-4.8c3.2,0,4.4,2.5,4.4,5.1V232.5z M102.1,231.1c-0.1-1.5-1-2.5-2.6-2.5
				c-1.6,0-2.6,1-2.8,2.5H102.1z"/>
		</g>
		<g class="st3">
			<path class="st4" d="M107.8,231.9l-3.2-4.6h2.2l2.1,3.1l2.1-3.1h2.2l-3.2,4.5l3.3,4.8h-2.2l-2.3-3.3l-2.3,3.3h-2.2L107.8,231.9z"
				/>
		</g>
		<g class="st3">
			<path class="st4" d="M117.3,226.5v0.8h1.6v1.5h-1.6v7.8h-1.8v-7.8h-1.3v-1.5h1.3v-0.9c0-1.5,0.7-2.7,2.5-2.7h1v1.5h-0.6
				C117.7,225.2,117.3,225.5,117.3,226.5z"/>
		</g>
		<g class="st3">
			<path d="M228.6,222.9l3.1,5.2c0.3,0.6,0.6,1.2,0.9,1.6c0-0.6,0-1.2,0-1.9v-5h1.3v8.6h-1.7l-3-5c-0.4-0.6-0.7-1.2-1-1.8
				c0,0.6,0,1.3,0,2v4.8h-1.3v-8.6H228.6z"/>
		</g>
		<g class="st3">
			<path d="M235.1,228.4c0-1.9,1.3-3.3,3.2-3.3s3.1,1.4,3.1,3.3c0,1.9-1.3,3.3-3.1,3.3S235.1,230.3,235.1,228.4z M240.1,228.4
				c0-1.2-0.8-2.2-1.9-2.2c-1.2,0-1.9,1-1.9,2.2c0,1.2,0.8,2.2,1.9,2.2C239.4,230.6,240.1,229.6,240.1,228.4z"/>
			<path d="M248.3,222.9v8.6H247v-1.2h0c-0.2,0.6-0.9,1.3-2.1,1.3c-1.7,0-2.9-1.3-2.9-3.3c0-1.9,1.1-3.2,2.9-3.2
				c1.1,0,1.8,0.7,2.1,1.3h0v-3.5H248.3z M247.1,228.4c0-1.2-0.6-2.2-1.9-2.2c-1.2,0-1.9,0.9-1.9,2.2c0,1.3,0.6,2.2,1.9,2.2
				C246.5,230.6,247.1,229.5,247.1,228.4z"/>
			<path d="M255.4,228.7h-4.8c0.1,1.2,0.8,1.9,1.9,1.9c0.8,0,1.4-0.3,1.6-1h1.2c-0.3,1.3-1.4,2-2.8,2c-1.8,0-3.1-1.3-3.1-3.3
				c0-1.9,1.3-3.2,3.1-3.2c2.1,0,2.9,1.7,2.9,3.4V228.7z M254.2,227.8c-0.1-1-0.6-1.7-1.7-1.7c-1.1,0-1.7,0.7-1.9,1.7H254.2z"/>
			<path d="M258.7,226.1c-0.6,0-1.1,0.3-1.1,0.8c0,0.5,0.4,0.7,1,0.9c0.3,0.1,0.6,0.1,0.8,0.2c1,0.3,1.8,0.7,1.8,1.7
				c0,1.3-1.3,1.9-2.5,1.9c-1.2,0-2.4-0.5-2.6-2h1.2c0.1,0.7,0.6,1,1.4,1c0.6,0,1.2-0.2,1.2-0.9c0-0.5-0.5-0.7-1-0.8
				c-0.3-0.1-0.6-0.1-0.9-0.2c-1-0.2-1.7-0.8-1.7-1.8c0-1.2,1.2-1.8,2.3-1.8c1.3,0,2.3,0.7,2.4,2H260
				C259.9,226.4,259.3,226.1,258.7,226.1z"/>
			<path d="M270.3,229h-3.5l-0.9,2.4h-1.3l3.2-8.6h1.6l3.2,8.6h-1.4L270.3,229z M267.1,228h2.7l-1.4-3.9h0L267.1,228z"/>
			<path d="M274.8,225.8v1.5h-1.4v-1.5H274.8z M274.8,230v1.5h-1.4V230H274.8z"/>
			<path d="M279,225.3h1.2v6.2H279V225.3z M279,224.2v-1.3h1.3v1.3H279z"/>
			<path d="M281.8,225.3h1.2v1c0.1-0.6,0.7-1.2,1.6-1.2c1,0,1.5,0.4,1.8,1.2c0.4-0.8,0.9-1.2,1.8-1.2c1.5,0,2.2,1.1,2.2,2.4v3.9
				h-1.2v-3.7c0-1-0.4-1.6-1.1-1.6c-0.8,0-1.3,0.8-1.3,2.3v3h-1.2v-3.7c0-1-0.3-1.6-1.1-1.6c-1.1,0-1.3,1.1-1.3,2.3v3h-1.2V225.3z"
				/>
			<path d="M297,231.5h-1.3c0-0.3,0-0.5,0-0.8v-0.3h0c-0.2,0.5-0.7,1.2-2,1.2c-1.4,0-2.2-0.9-2.2-1.8c0-1.7,2.2-1.8,3.1-2
				c0.8-0.1,1.1-0.3,1.1-0.8s-0.5-0.9-1.3-0.9c-0.7,0-1.2,0.4-1.4,1.1h-1.2c0.1-0.9,0.9-2.1,2.6-2.1c2.2,0,2.6,1.4,2.6,2.5v2.5
				C296.9,230.6,297,231.1,297,231.5z M295.7,227.8c-0.1,0.4-0.4,0.7-1.6,0.9c-0.9,0.2-1.4,0.4-1.4,1c0,0.5,0.5,0.9,1.2,0.9
				c0.9,0,1.8-0.6,1.8-2.1V227.8z"/>
			<path d="M304.2,225.3v5.7c0,1.9-1.4,2.9-3,2.9c-1.6,0-2.8-0.8-2.9-2.1h1.2c0.1,0.8,0.8,1.1,1.7,1.1c1,0,1.7-0.5,1.7-1.8v-0.7h0
				c-0.3,0.7-0.9,1.3-2,1.3c-1.7,0-2.9-1.3-2.9-3.2c0-1.9,1.1-3.2,2.9-3.2c1.2,0,1.8,0.6,2,1.2h0v-1.1H304.2z M301.1,230.5
				c1.4,0,1.9-1.2,1.9-2.2c0-0.9-0.6-2.2-1.9-2.2c-1.2,0-1.9,1-1.9,2.2C299.2,229.5,299.8,230.5,301.1,230.5z"/>
			<path d="M311.3,228.7h-4.8c0.1,1.2,0.8,1.9,1.9,1.9c0.8,0,1.4-0.3,1.6-1h1.2c-0.3,1.3-1.4,2-2.8,2c-1.8,0-3.1-1.3-3.1-3.3
				c0-1.9,1.3-3.2,3.1-3.2c2.1,0,2.9,1.7,2.9,3.4V228.7z M310.1,227.8c-0.1-1-0.6-1.7-1.7-1.7c-1.1,0-1.7,0.7-1.9,1.7H310.1z"/>
			<path d="M314.6,226.1c-0.6,0-1.1,0.3-1.1,0.8c0,0.5,0.4,0.7,1,0.9c0.3,0.1,0.6,0.1,0.8,0.2c1,0.3,1.8,0.7,1.8,1.7
				c0,1.3-1.3,1.9-2.5,1.9c-1.2,0-2.4-0.5-2.6-2h1.2c0.1,0.7,0.6,1,1.4,1c0.6,0,1.2-0.2,1.2-0.9c0-0.5-0.5-0.7-1-0.8
				c-0.3-0.1-0.6-0.1-0.9-0.2c-1-0.2-1.7-0.8-1.7-1.8c0-1.2,1.2-1.8,2.3-1.8c1.3,0,2.3,0.7,2.4,2h-1.2
				C315.8,226.4,315.2,226.1,314.6,226.1z"/>
		</g>
		<g class="st3">
			<path d="M226.9,234.9h3.1c1.5,0,2.7,0.8,2.7,2.3c0,0.9-0.5,1.5-1.4,1.9v0c1,0.2,1.7,0.8,1.7,1.9c0,1.7-1.2,2.4-3.1,2.4h-3V234.9z
				 M229.8,238.6c1,0,1.6-0.4,1.6-1.4c0-0.9-0.6-1.2-1.6-1.2h-1.6v2.6H229.8z M230,242.4c1,0,1.7-0.5,1.7-1.4c0-0.9-0.7-1.3-1.6-1.3
				h-1.9v2.7H230z"/>
		</g>
		<g class="st3">
			<path d="M233.8,240.4c0-1.9,1.3-3.3,3.2-3.3c1.9,0,3.1,1.4,3.1,3.3c0,1.9-1.3,3.3-3.1,3.3C235.1,243.6,233.8,242.3,233.8,240.4z
				 M238.9,240.4c0-1.2-0.8-2.2-1.9-2.2c-1.2,0-1.9,1-1.9,2.2c0,1.2,0.8,2.2,1.9,2.2C238.1,242.6,238.9,241.6,238.9,240.4z"/>
			<path d="M247.1,234.9v8.6h-1.3v-1.2h0c-0.2,0.6-0.9,1.3-2.1,1.3c-1.7,0-2.9-1.3-2.9-3.3c0-1.9,1.1-3.2,2.9-3.2
				c1.1,0,1.8,0.7,2.1,1.3h0v-3.5H247.1z M245.9,240.4c0-1.2-0.6-2.2-1.9-2.2c-1.2,0-1.9,0.9-1.9,2.2c0,1.3,0.6,2.2,1.9,2.2
				C245.3,242.6,245.9,241.5,245.9,240.4z"/>
			<path d="M254.2,240.7h-4.8c0.1,1.2,0.8,1.9,1.9,1.9c0.8,0,1.4-0.3,1.6-1h1.2c-0.3,1.3-1.4,2-2.8,2c-1.8,0-3.1-1.3-3.1-3.3
				c0-1.9,1.3-3.2,3.1-3.2c2.1,0,2.9,1.7,2.9,3.4V240.7z M253,239.8c-0.1-1-0.6-1.7-1.7-1.7c-1.1,0-1.7,0.7-1.9,1.7H253z"/>
			<path d="M257.5,238.1c-0.6,0-1.1,0.3-1.1,0.8c0,0.5,0.4,0.7,1,0.9c0.3,0.1,0.6,0.1,0.8,0.2c1,0.3,1.8,0.7,1.8,1.7
				c0,1.3-1.3,1.9-2.5,1.9c-1.2,0-2.4-0.5-2.6-2h1.2c0.1,0.7,0.6,1,1.4,1c0.6,0,1.2-0.2,1.2-0.9c0-0.5-0.5-0.7-1-0.8
				c-0.3-0.1-0.6-0.1-0.9-0.2c-1-0.2-1.7-0.8-1.7-1.8c0-1.2,1.2-1.8,2.3-1.8c1.3,0,2.3,0.7,2.4,2h-1.2
				C258.7,238.4,258.1,238.1,257.5,238.1z"/>
		</g>
		<g class="st3">
			<path d="M264,234.9h3.1c1.5,0,2.7,0.8,2.7,2.3c0,0.9-0.5,1.5-1.4,1.9v0c1,0.2,1.7,0.8,1.7,1.9c0,1.7-1.2,2.4-3.1,2.4h-3V234.9z
				 M266.9,238.6c1,0,1.6-0.4,1.6-1.4c0-0.9-0.6-1.2-1.6-1.2h-1.6v2.6H266.9z M267.1,242.4c1,0,1.7-0.5,1.7-1.4
				c0-0.9-0.7-1.3-1.6-1.3h-1.9v2.7H267.1z"/>
		</g>
		<g class="st3">
			<path d="M272.8,237.8v1.5h-1.4v-1.5H272.8z M272.8,242v1.5h-1.4V242H272.8z"/>
			<path d="M279.7,242.5v1h-0.6c-1.3,0-1.8-0.8-1.8-1.8v-3.4h-0.9v-1h0.9v-1.4l1.2-0.5v2h1.2v1h-1.2v3.3c0,0.6,0.3,0.9,0.8,0.9
				H279.7z"/>
			<path d="M286,243.5h-1.3c0-0.3,0-0.5,0-0.8v-0.3h0c-0.2,0.5-0.7,1.2-2,1.2c-1.4,0-2.2-0.9-2.2-1.8c0-1.7,2.2-1.8,3.1-2
				c0.8-0.1,1.1-0.3,1.1-0.8s-0.5-0.9-1.3-0.9c-0.7,0-1.2,0.4-1.4,1.1h-1.2c0.1-0.9,0.9-2.1,2.6-2.1c2.2,0,2.6,1.4,2.6,2.5v2.5
				C285.9,242.6,285.9,243.1,286,243.5z M284.7,239.8c-0.1,0.4-0.4,0.7-1.6,0.9c-0.9,0.2-1.4,0.4-1.4,1c0,0.5,0.5,0.9,1.2,0.9
				c0.9,0,1.8-0.6,1.8-2.1V239.8z"/>
			<path d="M293.1,237.3v5.7c0,1.9-1.4,2.9-3,2.9c-1.6,0-2.8-0.8-2.9-2.1h1.2c0.1,0.8,0.8,1.1,1.7,1.1c1,0,1.7-0.5,1.7-1.8v-0.7h0
				c-0.3,0.7-0.9,1.3-2,1.3c-1.7,0-2.9-1.3-2.9-3.2c0-1.9,1.1-3.2,2.9-3.2c1.2,0,1.8,0.6,2,1.2h0v-1.1H293.1z M290.1,242.5
				c1.4,0,1.9-1.2,1.9-2.2c0-0.9-0.6-2.2-1.9-2.2s-1.9,1-1.9,2.2C288.2,241.5,288.8,242.5,290.1,242.5z"/>
			<path d="M296.7,238.1c-0.6,0-1.1,0.3-1.1,0.8c0,0.5,0.4,0.7,1,0.9c0.3,0.1,0.6,0.1,0.8,0.2c1,0.3,1.8,0.7,1.8,1.7
				c0,1.3-1.3,1.9-2.5,1.9c-1.2,0-2.4-0.5-2.6-2h1.2c0.1,0.7,0.6,1,1.4,1c0.6,0,1.2-0.2,1.2-0.9c0-0.5-0.5-0.7-1-0.8
				c-0.3-0.1-0.6-0.1-0.9-0.2c-1-0.2-1.7-0.8-1.7-1.8c0-1.2,1.2-1.8,2.3-1.8c1.3,0,2.3,0.7,2.4,2H298
				C298,238.4,297.3,238.1,296.7,238.1z"/>
		</g>
	</g>
	<g>
		<g>
			<rect x="197.2" y="694.4" class="st4" width="30" height="2"/>
		</g>
		<g>
			<ellipse class="st4" cx="326" cy="695.4" rx="99.9" ry="32.6"/>
		</g>
		<g class="st3">
			<path d="M299.5,692.3c0,2.3-2,4-4.6,4h-2.4v5h-1.9v-12.9h4.4C297.7,688.4,299.5,690,299.5,692.3z M297.6,692.3
				c0-1.5-1-2.3-2.7-2.3h-2.3v4.6h2.2C296.5,694.6,297.6,693.8,297.6,692.3z"/>
		</g>
		<g class="st3">
			<path d="M303.2,688.4v12.9h-1.9v-12.9H303.2z"/>
			<path d="M309.3,694.6l-4.4-6.3h2.4l3.1,4.7l3.3-4.7h2.3l-4.5,6.3l4.7,6.6h-2.4l-3.4-5l-3.4,5h-2.3L309.3,694.6z"/>
		</g>
		<g class="st3">
			<path d="M326.6,692.3c0,2.3-2,4-4.6,4h-2.4v5h-1.9v-12.9h4.4C324.8,688.4,326.6,690,326.6,692.3z M324.7,692.3
				c0-1.5-1-2.3-2.7-2.3h-2.3v4.6h2.2C323.6,694.6,324.7,693.8,324.7,692.3z"/>
		</g>
		<g class="st3">
			<path d="M336.4,699.6v1.6h-8.1v-12.9h1.9v11.2H336.4z"/>
		</g>
		<g class="st3">
			<path d="M350.3,694.8c0,3.6-2.5,6.7-6.7,6.7s-6.7-3.1-6.7-6.7s2.5-6.7,6.7-6.7S350.3,691.2,350.3,694.8z M348.3,694.8
				c0-2.6-1.7-5.1-4.8-5.1s-4.7,2.4-4.7,5.1s1.7,5.1,4.7,5.1S348.3,697.4,348.3,694.8z"/>
		</g>
		<g class="st3">
			<path d="M360.1,690h-3.9v11.2h-1.9V690h-3.9v-1.6h9.7V690z"/>
		</g>
		<g>
			<polygon points="99.2,735.4 0,695.4 99.2,655.4 198.5,695.4 			"/>
		</g>
		<g class="st3">
			<path class="st4" d="M89.4,682c0,3.8-2.4,6.6-6.6,6.6h-4v-12.9h3.9C87,675.8,89.4,678.2,89.4,682z M87.4,682c0-3.2-2-4.6-4.7-4.6
				h-2v9.6h2.1C85.4,687,87.4,685.3,87.4,682z"/>
		</g>
		<g class="st3">
			<path class="st4" d="M95.8,679.3v1.7c-0.1,0-0.5,0-0.8,0.1c-1,0.2-2,0.6-2,3.2v4.3h-1.9v-9.3H93v1.8
				C93.5,679.8,94.4,679.3,95.8,679.3z"/>
		</g>
		<g class="st3">
			<path class="st4" d="M104.7,688.6h-1.9c0-0.4,0-0.8,0-1.2V687h0c-0.3,0.7-1,1.9-3,1.9c-2.2,0-3.3-1.4-3.3-2.8
				c0-2.6,3.2-2.8,4.6-3c1.2-0.2,1.7-0.5,1.7-1.3s-0.7-1.3-2-1.3c-1.1,0-1.9,0.6-2.1,1.6h-1.8c0.2-1.4,1.4-3.1,3.8-3.1
				c3.3,0,3.8,2,3.8,3.8v3.8C104.5,687.3,104.6,688.1,104.7,688.6z M102.7,683.2c-0.2,0.6-0.6,1.1-2.4,1.4c-1.3,0.3-2.1,0.6-2.1,1.5
				c0,0.8,0.7,1.4,1.8,1.4c1.3,0,2.6-0.8,2.6-3.1V683.2z"/>
		</g>
		<g class="st3">
			<path class="st4" d="M108.9,678.6v0.8h1.6v1.5h-1.6v7.8h-1.8v-7.8h-1.3v-1.5h1.3v-0.9c0-1.5,0.7-2.7,2.5-2.7h1v1.5h-0.6
				C109.3,677.3,108.9,677.5,108.9,678.6z"/>
		</g>
		<g class="st3">
			<path class="st4" d="M116.4,687.1v1.5h-0.9c-2,0-2.7-1.2-2.7-2.7v-5.1h-1.4v-1.5h1.4v-2.2l1.8-0.8v3h1.8v1.5h-1.8v4.9
				c0,0.9,0.4,1.4,1.2,1.4H116.4z"/>
		</g>
		<g class="st3">
			<path class="st4" d="M51.5,697.6c0.8,2.5,1.7,5,2.5,7.5h0c0.8-2.4,1.6-5,2.4-7.5h2c-1.2,3.1-2.3,6.2-3.4,9.3H53
				c-1.2-3.1-2.3-6.2-3.4-9.3H51.5z"/>
			<path class="st4" d="M59.7,697.6h1.9v9.3h-1.9V697.6z M59.8,696v-1.9h1.9v1.9H59.8z"/>
			<path class="st4" d="M67.1,698.9c-0.8,0-1.6,0.5-1.6,1.2c0,0.7,0.6,1.1,1.5,1.3c0.4,0.1,0.8,0.2,1.2,0.3c1.5,0.4,2.8,1.1,2.8,2.6
				c0,1.9-1.9,2.9-3.7,2.9c-1.7,0-3.7-0.8-3.9-3.1h1.8c0.2,1.1,0.9,1.6,2.1,1.6c0.9,0,1.9-0.3,1.9-1.3c0-0.8-0.7-1-1.6-1.2
				c-0.4-0.1-0.9-0.2-1.3-0.3c-1.4-0.4-2.6-1.2-2.6-2.6c0-1.7,1.7-2.8,3.5-2.8c1.9,0,3.5,1,3.7,3h-1.8C69,699.3,68,698.9,67.1,698.9
				z"/>
			<path class="st4" d="M72.6,697.6h1.8v5.6c0,1.5,0.6,2.3,1.9,2.3c1.3,0,2.4-1.1,2.4-3.5v-4.4h1.9v9.3h-1.8v-1.7
				c-0.5,1.1-1.4,1.9-2.8,1.9c-2.4,0-3.3-1.6-3.3-3.6V697.6z"/>
			<path class="st4" d="M90.6,706.9h-1.9c0-0.4,0-0.8,0-1.2v-0.4h0c-0.3,0.7-1,1.9-3,1.9c-2.2,0-3.3-1.4-3.3-2.8
				c0-2.6,3.2-2.8,4.6-3c1.2-0.2,1.7-0.5,1.7-1.3s-0.7-1.3-2-1.3c-1.1,0-1.9,0.6-2.1,1.6h-1.8c0.2-1.4,1.4-3.1,3.8-3.1
				c3.3,0,3.8,2,3.8,3.8v3.8C90.5,705.6,90.6,706.4,90.6,706.9z M88.7,701.5c-0.2,0.6-0.6,1.1-2.4,1.4c-1.3,0.3-2.1,0.6-2.1,1.5
				c0,0.8,0.7,1.4,1.8,1.4c1.3,0,2.6-0.8,2.6-3.1V701.5z"/>
			<path class="st4" d="M94.6,694.1v12.9h-1.9v-12.9H94.6z"/>
		</g>
		<g class="st3">
			<path class="st4" d="M96.8,697.6h1.9v9.3h-1.9V697.6z M96.9,696v-1.9h1.9v1.9H96.9z"/>
		</g>
		<g class="st3">
			<path class="st4" d="M105.5,699.1c-0.5,0-0.8,0-1.3,0h-3.5v-1.5h7.1v1.2l-5.3,6.6c0.4,0,0.8,0,1.3,0h4.2v1.5h-7.7v-1.3
				L105.5,699.1z"/>
			<path class="st4" d="M117.4,706.9h-1.9c0-0.4,0-0.8,0-1.2v-0.4h0c-0.3,0.7-1,1.9-3,1.9c-2.2,0-3.3-1.4-3.3-2.8
				c0-2.6,3.2-2.8,4.6-3c1.2-0.2,1.7-0.5,1.7-1.3s-0.7-1.3-2-1.3c-1.1,0-1.9,0.6-2.1,1.6h-1.8c0.2-1.4,1.4-3.1,3.8-3.1
				c3.3,0,3.8,2,3.8,3.8v3.8C117.3,705.6,117.4,706.4,117.4,706.9z M115.5,701.5c-0.2,0.6-0.6,1.1-2.4,1.4c-1.3,0.3-2.1,0.6-2.1,1.5
				c0,0.8,0.7,1.4,1.8,1.4c1.3,0,2.6-0.8,2.6-3.1V701.5z"/>
			<path class="st4" d="M123.5,705.4v1.5h-0.9c-2,0-2.7-1.2-2.7-2.7v-5.1h-1.4v-1.5h1.4v-2.2l1.8-0.8v3h1.8v1.5h-1.8v4.9
				c0,0.9,0.4,1.4,1.2,1.4H123.5z"/>
			<path class="st4" d="M125.2,697.6h1.9v9.3h-1.9V697.6z M125.3,696v-1.9h1.9v1.9H125.3z"/>
			<path class="st4" d="M128.9,702.3c0-2.8,1.9-4.9,4.7-4.9c2.8,0,4.7,2.1,4.7,4.9s-1.9,4.9-4.7,4.9
				C130.9,707.2,128.9,705.1,128.9,702.3z M136.5,702.3c0-1.9-1.2-3.4-2.9-3.4c-1.7,0-2.9,1.5-2.9,3.4c0,1.8,1.2,3.3,2.9,3.3
				C135.4,705.6,136.5,704.1,136.5,702.3z"/>
			<path class="st4" d="M140,697.6h1.8v1.7c0.5-1.1,1.4-1.9,2.8-1.9c2.4,0,3.3,1.6,3.3,3.6v5.9h-1.8v-5.6c0-1.5-0.6-2.3-1.9-2.3
				c-1.3,0-2.4,1.1-2.4,3.5v4.4H140V697.6z"/>
		</g>
	</g>
	<g>
		<g>
			<rect x="197.2" y="787.8" class="st4" width="30" height="2"/>
		</g>
		<g>
			<g>
				<ellipse class="st4" cx="326" cy="788" rx="99.9" ry="32.6"/>
			</g>
			<g class="st3">
				<path d="M276,781v12.9H274v-5.6h-5.9v5.6h-1.9V781h1.9v5.6h5.9V781H276z"/>
				<path d="M287.3,782.6h-3.9v11.2h-1.9v-11.2h-3.9V781h9.7V782.6z"/>
				<path d="M288.9,781l3.1,0l3.5,10.6h0l3.4-10.6h3.1v12.9h-1.9v-10.7h0l-3.5,10.7h-2.1l-3.6-10.7h0v10.7h-1.9V781z"/>
			</g>
			<g class="st3">
				<path d="M312.8,792.2v1.6h-8.1V781h1.9v11.2H312.8z"/>
			</g>
			<g class="st3">
				<path d="M317.3,791.6l-1.4,4.4h-1.7l1-4.4H317.3z"/>
			</g>
			<g class="st3">
				<path d="M329.3,794c-4.1,0-6.5-2.9-6.5-6.7c0-3.7,2.4-6.7,6.6-6.7c3.2,0,5.1,1.7,5.9,4.1h-1.9c-0.7-1.6-1.9-2.5-3.9-2.5
					c-3,0-4.6,2.3-4.6,5c0,2.7,1.6,5,4.6,5c2.1,0,3.4-1,3.9-2.5h1.9C334.6,792.2,332.6,794,329.3,794z"/>
			</g>
			<g class="st3">
				<path d="M341.9,792.5c1.5,0,2.6-0.7,2.6-2.1c0-1.5-1.3-1.8-2.9-2.2c-2.1-0.6-4.3-1.3-4.3-3.8c0-2.5,2.1-3.7,4.4-3.7
					c2.6,0,4.3,1.3,4.6,3.9h-2c-0.2-1.5-1-2.3-2.6-2.3c-1.4,0-2.4,0.6-2.4,2c0,1.2,1.2,1.7,2.9,2.2c2.2,0.6,4.3,1.1,4.3,3.9
					c0,2.6-2.3,3.8-4.6,3.8c-2.8,0-5-1.4-5.1-4.3h2C338.9,791.6,340.1,792.5,341.9,792.5z"/>
			</g>
			<g class="st3">
				<path d="M353,792.5c1.5,0,2.6-0.7,2.6-2.1c0-1.5-1.3-1.8-2.9-2.2c-2.1-0.6-4.3-1.3-4.3-3.8c0-2.5,2.1-3.7,4.4-3.7
					c2.6,0,4.3,1.3,4.6,3.9h-2c-0.2-1.5-1-2.3-2.6-2.3c-1.4,0-2.4,0.6-2.4,2c0,1.2,1.2,1.7,2.9,2.2c2.2,0.6,4.3,1.1,4.3,3.9
					c0,2.6-2.3,3.8-4.6,3.8c-2.8,0-5-1.4-5.1-4.3h2C350,791.6,351.3,792.5,353,792.5z"/>
			</g>
			<g class="st3">
				<path d="M361.9,791.6l-1.4,4.4h-1.7l1-4.4H361.9z"/>
				<path d="M369.1,790.5c0.1,1.3,0.7,2,1.9,2c1.4,0,1.7-1.1,1.7-2.4V781h1.9v9.1c0,2.6-1.2,4.1-3.7,4.1c-2.1,0-3.7-1.3-3.7-3.6
					l0-0.8h1.9L369.1,790.5z"/>
				<path d="M381.7,792.5c1.5,0,2.6-0.7,2.6-2.1c0-1.5-1.3-1.8-2.9-2.2c-2.1-0.6-4.3-1.3-4.3-3.8c0-2.5,2.1-3.7,4.4-3.7
					c2.6,0,4.3,1.3,4.6,3.9h-2c-0.2-1.5-1-2.3-2.6-2.3c-1.4,0-2.4,0.6-2.4,2c0,1.2,1.2,1.7,2.9,2.2c2.2,0.6,4.3,1.1,4.3,3.9
					c0,2.6-2.3,3.8-4.6,3.8c-2.8,0-5-1.4-5.1-4.3h2C378.7,791.6,380,792.5,381.7,792.5z"/>
			</g>
			<g>
				<polygon points="99.2,828.8 0,788.8 99.2,748.8 198.5,788.8 				"/>
			</g>
			<g class="st3">
				<path class="st4" d="M86.9,778.4h-5.2l-1.3,3.6h-2l4.8-12.9h2.4l4.8,12.9h-2L86.9,778.4z M82.2,776.9h4.1l-2.1-5.9h0L82.2,776.9
					z"/>
			</g>
			<g class="st3">
				<path class="st4" d="M95.4,780.6v1.5h-0.9c-2,0-2.7-1.2-2.7-2.7v-5.1h-1.4v-1.5h1.4v-2.2l1.8-0.8v3h1.8v1.5h-1.8v4.9
					c0,0.9,0.4,1.4,1.2,1.4H95.4z"/>
			</g>
			<g class="st3">
				<path class="st4" d="M98.8,769.2v12.9h-1.9v-12.9H98.8z"/>
				<path class="st4" d="M108.8,782.1h-1.9c0-0.4,0-0.8,0-1.2v-0.4h0c-0.3,0.7-1,1.9-3,1.9c-2.2,0-3.3-1.4-3.3-2.8
					c0-2.6,3.2-2.8,4.6-3c1.2-0.2,1.7-0.5,1.7-1.3s-0.7-1.3-2-1.3c-1.1,0-1.9,0.6-2.1,1.6H101c0.2-1.4,1.4-3.1,3.8-3.1
					c3.3,0,3.8,2,3.8,3.8v3.8C108.7,780.7,108.7,781.6,108.8,782.1z M106.9,776.6c-0.2,0.6-0.6,1.1-2.4,1.4
					c-1.3,0.3-2.1,0.6-2.1,1.5c0,0.8,0.7,1.4,1.8,1.4c1.3,0,2.6-0.8,2.6-3.1V776.6z"/>
				<path class="st4" d="M114,774c-0.8,0-1.6,0.5-1.6,1.2c0,0.7,0.6,1.1,1.5,1.3c0.4,0.1,0.8,0.2,1.2,0.3c1.5,0.4,2.8,1.1,2.8,2.6
					c0,1.9-1.9,2.9-3.7,2.9c-1.7,0-3.7-0.8-3.9-3.1h1.8c0.2,1.1,0.9,1.6,2.1,1.6c0.9,0,1.9-0.3,1.9-1.3c0-0.8-0.7-1-1.6-1.2
					c-0.4-0.1-0.9-0.2-1.3-0.3c-1.4-0.4-2.6-1.2-2.6-2.6c0-1.7,1.7-2.8,3.5-2.8c1.9,0,3.5,1,3.7,3h-1.8
					C115.8,774.4,114.9,774,114,774z"/>
			</g>
			<g class="st3">
				<path class="st4" d="M52.5,791c0.8,2.5,1.7,5,2.5,7.5h0c0.8-2.4,1.6-5,2.4-7.5h2c-1.2,3.1-2.3,6.2-3.4,9.3H54
					c-1.2-3.1-2.3-6.2-3.4-9.3H52.5z"/>
				<path class="st4" d="M60.7,791h1.9v9.3h-1.9V791z M60.8,789.4v-1.9h1.9v1.9H60.8z"/>
				<path class="st4" d="M68.1,792.3c-0.8,0-1.6,0.5-1.6,1.2c0,0.7,0.6,1.1,1.5,1.3c0.4,0.1,0.8,0.2,1.2,0.3
					c1.5,0.4,2.8,1.1,2.8,2.6c0,1.9-1.9,2.9-3.7,2.9c-1.7,0-3.7-0.8-3.9-3.1h1.8c0.2,1.1,0.9,1.6,2.1,1.6c0.9,0,1.9-0.3,1.9-1.3
					c0-0.8-0.7-1-1.6-1.2c-0.4-0.1-0.9-0.2-1.3-0.3c-1.4-0.4-2.6-1.2-2.6-2.6c0-1.7,1.7-2.8,3.5-2.8c1.9,0,3.5,1,3.7,3h-1.8
					C69.9,792.7,69,792.3,68.1,792.3z"/>
				<path class="st4" d="M73.6,791h1.8v5.6c0,1.5,0.6,2.3,1.9,2.3c1.3,0,2.4-1.1,2.4-3.5V791h1.9v9.3h-1.8v-1.7
					c-0.5,1.1-1.4,1.9-2.8,1.9c-2.4,0-3.3-1.6-3.3-3.6V791z"/>
				<path class="st4" d="M91.6,800.4h-1.9c0-0.4,0-0.8,0-1.2v-0.4h0c-0.3,0.7-1,1.9-3,1.9c-2.2,0-3.3-1.4-3.3-2.8
					c0-2.6,3.2-2.8,4.6-3c1.2-0.2,1.7-0.5,1.7-1.3s-0.7-1.3-2-1.3c-1.1,0-1.9,0.6-2.1,1.6h-1.8c0.2-1.4,1.4-3.1,3.8-3.1
					c3.3,0,3.8,2,3.8,3.8v3.8C91.5,799,91.5,799.9,91.6,800.4z M89.7,794.9c-0.2,0.6-0.6,1.1-2.4,1.4c-1.3,0.3-2.1,0.6-2.1,1.5
					c0,0.8,0.7,1.4,1.8,1.4c1.3,0,2.6-0.8,2.6-3.1V794.9z"/>
				<path class="st4" d="M95.5,787.5v12.9h-1.9v-12.9H95.5z"/>
			</g>
			<g class="st3">
				<path class="st4" d="M97.8,791h1.9v9.3h-1.9V791z M97.8,789.4v-1.9h1.9v1.9H97.8z"/>
			</g>
			<g class="st3">
				<path class="st4" d="M106.5,792.5c-0.5,0-0.8,0-1.3,0h-3.5V791h7.1v1.2l-5.3,6.6c0.4,0,0.8,0,1.3,0h4.2v1.5h-7.7v-1.3
					L106.5,792.5z"/>
				<path class="st4" d="M118.4,800.4h-1.9c0-0.4,0-0.8,0-1.2v-0.4h0c-0.3,0.7-1,1.9-3,1.9c-2.2,0-3.3-1.4-3.3-2.8
					c0-2.6,3.2-2.8,4.6-3c1.2-0.2,1.7-0.5,1.7-1.3s-0.7-1.3-2-1.3c-1.1,0-1.9,0.6-2.1,1.6h-1.8c0.2-1.4,1.4-3.1,3.8-3.1
					c3.3,0,3.8,2,3.8,3.8v3.8C118.3,799,118.4,799.9,118.4,800.4z M116.5,794.9c-0.2,0.6-0.6,1.1-2.4,1.4c-1.3,0.3-2.1,0.6-2.1,1.5
					c0,0.8,0.7,1.4,1.8,1.4c1.3,0,2.6-0.8,2.6-3.1V794.9z"/>
				<path class="st4" d="M124.5,798.9v1.5h-0.9c-2,0-2.7-1.2-2.7-2.7v-5.1h-1.4V791h1.4v-2.2l1.8-0.8v3h1.8v1.5h-1.8v4.9
					c0,0.9,0.4,1.4,1.2,1.4H124.5z"/>
				<path class="st4" d="M126.2,791h1.9v9.3h-1.9V791z M126.3,789.4v-1.9h1.9v1.9H126.3z"/>
				<path class="st4" d="M129.9,795.7c0-2.8,1.9-4.9,4.7-4.9c2.8,0,4.7,2.1,4.7,4.9s-1.9,4.9-4.7,4.9
					C131.9,800.6,129.9,798.5,129.9,795.7z M137.5,795.7c0-1.9-1.2-3.4-2.9-3.4c-1.7,0-2.9,1.5-2.9,3.4c0,1.8,1.2,3.3,2.9,3.3
					C136.4,799.1,137.5,797.5,137.5,795.7z"/>
				<path class="st4" d="M141,791h1.8v1.7c0.5-1.1,1.4-1.9,2.8-1.9c2.4,0,3.3,1.6,3.3,3.6v5.9h-1.8v-5.6c0-1.5-0.6-2.3-1.9-2.3
					c-1.3,0-2.4,1.1-2.4,3.5v4.4H141V791z"/>
			</g>
		</g>
	</g>
</g>
</svg>
