<?xml version="1.0" encoding="utf-8"?>
<!-- Generator: Adobe Illustrator 26.4.0, SVG Export Plug-In . SVG Version: 6.00 Build 0)  -->
<svg version="1.1" id="Testi" xmlns="http://www.w3.org/2000/svg" xmlns:xlink="http://www.w3.org/1999/xlink" x="0px" y="0px"
	 viewBox="0 0 135.2 138.3" style="enable-background:new 0 0 135.2 138.3;" xml:space="preserve">
<style type="text/css">
	.st0{enable-background:new    ;}
	.st1{fill:#FFFFFF;}
	.st2{fill:#EDEDED;}
</style>
<g>
	<rect x="0.9" y="46.9" width="133.4" height="36.2"/>
</g>
<g class="st0">
	<path class="st1" d="M36.1,64.4c0,3.8-2.4,6.6-6.6,6.6h-4V58.2h3.9C33.7,58.2,36.1,60.6,36.1,64.4z M34.2,64.4c0-3.2-2-4.6-4.7-4.6
		h-2v9.6h2.1C32.1,69.4,34.2,67.7,34.2,64.4z"/>
</g>
<g class="st0">
	<path class="st1" d="M45.2,67.4H40L38.6,71h-2l4.8-12.9h2.4L48.6,71h-2L45.2,67.4z M40.5,65.8h4.1L42.6,60h0L40.5,65.8z"/>
	<path class="st1" d="M55.5,59.8h-3.9V71h-1.9V59.8h-3.9v-1.6h9.7V59.8z"/>
</g>
<g class="st0">
	<path class="st1" d="M64.6,67.4h-5.2L58.1,71h-2l4.8-12.9h2.4L68,71h-2L64.6,67.4z M60,65.8h4.1L62,60h0L60,65.8z"/>
</g>
<g class="st0">
	<path class="st1" d="M73.8,69.7c1.5,0,2.6-0.7,2.6-2.1c0-1.5-1.3-1.8-2.9-2.2c-2.1-0.6-4.3-1.3-4.3-3.8c0-2.5,2.1-3.7,4.4-3.7
		c2.6,0,4.3,1.3,4.6,3.9h-2c-0.2-1.5-1-2.3-2.6-2.3c-1.4,0-2.4,0.6-2.4,2c0,1.2,1.2,1.7,2.9,2.2c2.2,0.6,4.3,1.1,4.3,3.9
		c0,2.6-2.2,3.8-4.6,3.8c-2.8,0-5-1.4-5.1-4.3h2C70.8,68.8,72,69.7,73.8,69.7z"/>
	<path class="st1" d="M88.7,69.4V71h-8.2V58.2h8.1v1.6h-6.2v3.9h5.8v1.6h-5.8v4.1H88.7z"/>
</g>
<g class="st0">
	<path class="st1" d="M99.8,59.8h-3.9V71H94V59.8h-3.9v-1.6h9.7V59.8z"/>
</g>
<g class="st0">
	<path class="st1" d="M105.6,69.7c1.5,0,2.6-0.7,2.6-2.1c0-1.5-1.3-1.8-2.9-2.2c-2.1-0.6-4.3-1.3-4.3-3.8c0-2.5,2.1-3.7,4.4-3.7
		c2.6,0,4.3,1.3,4.6,3.9h-2c-0.2-1.5-1-2.3-2.6-2.3c-1.4,0-2.4,0.6-2.4,2c0,1.2,1.2,1.7,2.9,2.2c2.2,0.6,4.3,1.1,4.3,3.9
		c0,2.6-2.2,3.8-4.6,3.8c-2.8,0-5-1.4-5.1-4.3h2C102.6,68.8,103.9,69.7,105.6,69.7z"/>
</g>
<g>
	<ellipse class="st1" cx="67.6" cy="115.9" rx="67.2" ry="21.9"/>
	<path class="st2" d="M67.6,138.3c-37.3,0-67.6-10-67.6-22.3c0-12.3,30.3-22.3,67.6-22.3s67.6,10,67.6,22.3
		C135.2,128.3,104.9,138.3,67.6,138.3z M67.6,94.4c-36.8,0-66.8,9.7-66.8,21.5c0,11.9,30,21.5,66.8,21.5c36.8,0,66.8-9.7,66.8-21.5
		C134.4,104.1,104.4,94.4,67.6,94.4z"/>
</g>
<g class="st0">
	<path d="M47.6,111h-3.9v11.2h-1.9V111h-3.9v-1.6h9.7V111z"/>
</g>
<g class="st0">
	<path d="M61.1,115.8c0,3.6-2.5,6.7-6.7,6.7s-6.7-3.1-6.7-6.7s2.5-6.7,6.7-6.7S61.1,112.1,61.1,115.8z M59.2,115.8
		c0-2.6-1.7-5.1-4.8-5.1s-4.7,2.4-4.7,5.1s1.7,5.1,4.7,5.1S59.2,118.4,59.2,115.8z"/>
</g>
<g class="st0">
	<path d="M75.7,115.8c0,3.6-2.5,6.7-6.7,6.7c-4.2,0-6.7-3.1-6.7-6.7s2.5-6.7,6.7-6.7C73.2,109,75.7,112.1,75.7,115.8z M73.8,115.8
		c0-2.6-1.7-5.1-4.8-5.1c-3,0-4.7,2.4-4.7,5.1s1.7,5.1,4.7,5.1C72.1,120.9,73.8,118.4,73.8,115.8z"/>
</g>
<g class="st0">
	<path d="M85.8,120.6v1.6h-8.1v-12.9h1.9v11.2H85.8z"/>
	<path d="M92.1,120.9c1.5,0,2.6-0.7,2.6-2.1c0-1.5-1.3-1.8-2.9-2.2c-2.1-0.6-4.3-1.3-4.3-3.8c0-2.5,2.1-3.7,4.4-3.7
		c2.6,0,4.3,1.3,4.6,3.9h-2c-0.2-1.5-1-2.3-2.6-2.3c-1.4,0-2.4,0.6-2.4,2c0,1.2,1.2,1.7,2.9,2.2c2.2,0.6,4.3,1.1,4.3,3.9
		c0,2.6-2.3,3.8-4.6,3.8c-2.8,0-5-1.4-5.1-4.3h2C89.1,120,90.4,120.9,92.1,120.9z"/>
</g>
<g>
	<path class="st1" d="M8.5,0.4h118.2c4.2,0,7.6,3.4,7.6,7.6V29c0,4.2-3.4,7.6-7.6,7.6H8.5c-4.2,0-7.6-3.4-7.6-7.6V8
		C0.9,3.8,4.3,0.4,8.5,0.4z"/>
	<path class="st2" d="M126.7,37H8.5c-4.4,0-8-3.6-8-8V8c0-4.4,3.6-8,8-8h118.2c4.4,0,8,3.6,8,8V29C134.7,33.4,131.1,37,126.7,37z
		 M8.5,0.8C4.5,0.8,1.3,4,1.3,8V29c0,4,3.2,7.2,7.2,7.2h118.2c4,0,7.2-3.2,7.2-7.2V8c0-4-3.2-7.2-7.2-7.2H8.5z"/>
</g>
<g class="st0">
	<path d="M18.2,15.9c0,2.3-2,4-4.6,4h-2.4v5H9.3V11.9h4.4C16.4,11.9,18.2,13.6,18.2,15.9z M16.3,15.9c0-1.5-1-2.3-2.7-2.3h-2.3v4.6
		h2.2C15.2,18.2,16.3,17.3,16.3,15.9z"/>
</g>
<g class="st0">
	<path d="M19.9,11.9h4.7c2.9,0,4.4,1.6,4.4,3.7c0,1.9-1.2,3-2.6,3.4c1.2,0.3,1.6,1.3,2.1,2.9c0.4,1.2,0.6,2,1.1,2.8v0.2h-2
		c-0.4-0.8-0.7-2-1.1-3c-0.5-1.2-1-2.1-2.6-2.1h-2.1v5.1h-1.9V11.9z M24.5,18c1.7,0,2.6-0.9,2.6-2.4c0-1.1-0.7-2.1-2.7-2.1h-2.6V18
		H24.5z"/>
</g>
<g class="st0">
	<path d="M44.2,18.4c0,3.6-2.5,6.7-6.7,6.7s-6.7-3.1-6.7-6.7s2.5-6.7,6.7-6.7S44.2,14.7,44.2,18.4z M42.2,18.4
		c0-2.6-1.7-5.1-4.8-5.1s-4.7,2.4-4.7,5.1s1.7,5.1,4.7,5.1S42.2,21,42.2,18.4z"/>
</g>
<g class="st0">
	<path d="M51.9,25c-4.1,0-6.5-2.9-6.5-6.7c0-3.7,2.4-6.7,6.6-6.7c3.2,0,5.1,1.7,5.9,4.1h-1.9c-0.7-1.6-1.9-2.5-3.9-2.5
		c-3,0-4.6,2.3-4.6,5c0,2.7,1.6,5,4.6,5c2.1,0,3.4-1,3.9-2.5h1.9C57.2,23.2,55.2,25,51.9,25z"/>
</g>
<g class="st0">
	<path d="M68.2,23.2v1.6H60V11.9h8.1v1.6H62v3.9h5.8v1.6H62v4.1H68.2z"/>
</g>
<g class="st0">
	<path d="M81,18.2c0,3.8-2.4,6.6-6.6,6.6h-4V11.9h3.9C78.6,11.9,81,14.4,81,18.2z M79.1,18.2c0-3.2-2-4.6-4.7-4.6h-2v9.6h2.1
		C77.1,23.2,79.1,21.5,79.1,18.2z"/>
	<path d="M87.9,25.1c-3.4,0-5-2.2-5-5.1v-8.1h1.9V20c0,1.9,0.9,3.4,3,3.4c2.1,0,3-1.5,3-3.4v-8.1h1.9V20
		C92.8,22.9,91.3,25.1,87.9,25.1z"/>
</g>
<g class="st0">
	<path d="M95.5,11.9h4.7c2.9,0,4.4,1.6,4.4,3.7c0,1.9-1.2,3-2.6,3.4c1.2,0.3,1.6,1.3,2.1,2.9c0.4,1.2,0.6,2,1.1,2.8v0.2h-2
		c-0.4-0.8-0.7-2-1.1-3c-0.5-1.2-1-2.1-2.6-2.1h-2.1v5.1h-1.9V11.9z M100.1,18c1.7,0,2.6-0.9,2.6-2.4c0-1.1-0.7-2.1-2.7-2.1h-2.6V18
		H100.1z"/>
</g>
<g class="st0">
	<path d="M115.4,23.2v1.6h-8.2V11.9h8.1v1.6h-6.2v3.9h5.8v1.6h-5.8v4.1H115.4z"/>
</g>
<g class="st0">
	<path d="M121.9,23.5c1.5,0,2.6-0.7,2.6-2.1c0-1.5-1.3-1.8-2.9-2.2c-2.1-0.6-4.3-1.3-4.3-3.8c0-2.5,2.1-3.7,4.4-3.7
		c2.6,0,4.3,1.3,4.6,3.9h-2c-0.2-1.5-1-2.3-2.6-2.3c-1.4,0-2.4,0.6-2.4,2c0,1.2,1.2,1.7,2.9,2.2c2.2,0.6,4.3,1.1,4.3,3.9
		c0,2.6-2.3,3.8-4.6,3.8c-2.8,0-5-1.4-5.1-4.3h2C118.9,22.6,120.1,23.5,121.9,23.5z"/>
</g>
</svg>
